M48
FMAT,2
T1C0.020
T2C0.024
T3C0.028
T4C0.031
T5C0.032
T6C0.032
T7C0.035
T8C0.039
T9C0.039
T10C0.040
T11C0.052
T12C0.055
T13C0.079
T14C0.083
T15C0.112
T16C0.118
T17C0.154
%
M25
T1
X0135Y00812
X02118Y00834
X02457Y00819
X02645Y00812
X03472Y00834
X04396Y00812
X05223Y00834
X05744Y00812
X06571Y00834
X08151Y00661
X09336Y00752
Y00672
X09571Y00697
X09771Y00777
Y00832
Y00667
X09826Y00682
X10036Y00847
X10286Y00387
X01271Y0087
X01506Y01076
X01596Y01012
X01736Y00875
X01767Y01076
X01775Y01024
X01813Y00875
X02018Y01023
X02125Y01094
X0237Y00875
X02456Y00877
X02583Y01012
X02633Y00969
X02658Y01094
X02839Y01062
X02914Y01007
X0309Y00875
X0313Y00981
X03167Y00875
X03363Y01023
X03483Y01067
X03594Y01098
X03724Y00875
X0465Y01011
X04841Y00875
X04881Y01002
X04921Y00875
X05122Y0102
X0525Y01103
X05296Y01061
X05475Y00875
X06003Y01012
X06189Y00875
X06233Y01014
X06269Y00875
X06467Y0102
X06597Y0109
X06823Y00875
X07724Y0105
X07871Y01018
X07976Y01072
X09331Y00952
X09416Y00957
X09871Y01062
X09926
X09996Y01077
X10051Y01032
X10196Y01122
X10231Y01087
X10266Y01052
X10301Y01017
X10391Y00927
Y00982
X10466Y01022
X10506Y01057
Y01112
X10621Y01057
X01344Y01316
X01397Y01245
X01472Y01619
X01515Y01345
X01524Y01152
X01605Y01321
X01638Y01181
X01683Y01264
Y01501
X01725Y01619
X01869Y0138
X01921Y01225
X01963Y01573
X02054Y01544
X02181Y01139
X02185Y01347
X02617Y0114
X0274Y01142
X02741Y01268
X02876Y01306
X03011Y01182
X03205Y01378
X0322Y01575
Y01462
X03261Y01225
X03301Y01282
X03367Y01437
X03436Y01597
X04001Y01598
X04251Y01597
X04761Y01182
X05008Y01225
X0532Y0114
X06045Y01182
X06353Y01225
X06556Y0113
X08209Y01158
X08936Y01292
X09451Y01182
X09741Y01297
X09796
X09891
X10136Y01177
X10171Y01412
X10206Y01497
X10231Y01407
X10346Y01387
Y01317
X10386Y01282
Y01352
X10406Y01422
X10506Y01357
X10556Y01467
X10566Y01612
X10706Y01137
X10791Y01577
X01237Y01996
X01292Y01763
X01351Y01918
X01373Y02033
X01458Y02147
X01503Y02098
X01638Y01774
X01766Y01692
X01805Y0198
X01855Y0196
X01952Y01801
X02029Y01794
X02119Y01934
X02386Y0203
X02501Y01911
X02685Y01709
X02688Y01922
X02717Y02106
X02722Y02052
X02726Y01878
X0273Y01967
X028Y02054
X02816Y01983
X02871Y01985
X03088Y01894
X03235Y01879
X03268Y01797
X03299Y0185
X03398Y01879
X03436Y02037
X03519Y01943
X03913Y01941
X04001Y02037
X04251
X06092Y02091
X06217Y01859
X06231Y02097
X063Y01873
X06361Y01917
X06407Y02065
X06491Y02007
X06696Y01967
X07271Y01797
X07691Y02032
X07746Y01682
X07801
X07851Y02122
X07856Y01682
X07906Y01917
X07911Y01682
X07956Y01987
X08386Y02097
X08641Y02137
X08921Y01982
X08971Y02007
X09016Y01982
X09111Y02112
X09166
X09221
X09276
X09471Y01931
X09596Y01914
X09643Y021
X09646Y02042
X09655Y0182
X09656Y01927
X09709Y01929
X09768Y01994
X09875Y01931
X09876Y02069
X09924Y01931
X1017Y01929
X10219Y02128
X1022Y01929
X10431Y02062
X10556Y01952
X10606Y01967
X10646Y02117
X10701Y01797
X10716Y01647
X10736Y01837
X10866Y01897
X10871Y01762
X10901Y01857
X10936Y01762
X01332Y02285
X01485Y02361
X01585Y02278
X01638Y02355
X02097Y02308
X02523Y02347
X0258Y02207
X0298Y02366
X03038Y02296
X03299Y02237
X03397Y02319
X03519Y02381
X03913Y02379
X08126Y02322
X08196Y02202
X08241Y02322
X08461Y02212
X08501Y02307
X08536Y02257
X08571Y02307
X08611Y02212
X08696Y02172
X08701Y02392
X08736Y02337
X08776Y02247
X08826Y02262
X08841Y02167
X08881Y02207
X08941Y02167
X09011Y02187
X09643Y02242
Y02192
Y02396
X09768Y02179
X09876Y02254
X09986Y02365
X10098Y02178
X10219Y02349
Y0218
Y024
X10441Y02257
X10491Y02272
X10496Y02152
X10541Y02287
X10611Y02157
X01373Y0259
X01518Y02625
X01724Y02502
X02033Y02446
X02061Y02567
X02149Y02569
X02593Y02416
X02969Y02417
X03166Y02489
X03226Y02417
X03432Y02477
X04001Y02478
X04251Y02477
X07691Y02467
X07851Y02612
X07906
X07961
X08051Y02497
X08086Y02597
X08316
X08366
X08416
X08466
X08946Y02467
X08981Y02417
X09011Y02467
X09036Y02417
X09076Y02462
X09116Y02417
X09211Y02437
X09271Y02432
X09316Y02467
X09361Y02437
X09416
X09643Y02447
X09685Y02505
X09736
X09883
X09931Y025
X09978Y02505
X10098Y02439
X10311Y02637
X10351Y02602
X10411Y02452
X10441Y02497
X10491Y02532
X10496Y02622
X10531Y02417
X10576Y02477
X10586Y02567
X10596Y02622
X10661Y02482
X0131Y03112
X01373Y02667
X01477Y02872
X01683Y02746
X01823Y02895
X01862Y0285
X02534Y02874
X03351Y02737
X03412Y02727
X04576Y02687
X06313Y03055
X07681Y02822
X07771Y02777
X07906Y02914
X08331Y03092
X08351Y02892
X08386Y02857
Y02927
X08401Y03002
X08756Y02872
X09481Y03137
X09536
X09591
X09656Y02812
X09661Y03137
X09721Y02777
X09761Y02807
X09831Y03147
X09891Y02932
X09926Y02777
X09951Y02677
X09971Y02797
X09981Y02847
X10011Y02887
X10051Y02857
Y02807
X10086Y02897
X10116Y02697
X10141Y02892
X10166Y02802
X10176Y02977
X10201Y02732
X10216Y02802
X10231Y02977
X10251Y02907
X10331Y02767
X10351Y02677
X10371Y02802
X10376Y02732
X10701Y02852
X10736Y02887
X10771Y02852
Y02777
X10791Y02707
X10806Y02887
X02508Y03573
X02718Y03611
X02963Y03572
X03149Y03609
X04178Y03179
X06353Y0348
X07906Y03235
Y0356
X08126Y03422
X08356Y03467
X08376Y03527
Y03237
X08396Y03592
X08411Y03192
X08446Y03322
Y03422
Y03372
X08481Y03462
X08741Y03267
X08776Y03227
X08811Y03267
X08846Y03227
X09061Y03212
X09111Y03197
X09591Y03202
X09681Y03227
X09721Y03192
X09761Y03222
X09796Y03182
X09983Y03683
X10467Y03657
X10572Y0363
X10581Y03537
X10743Y03509
X10795
X11296Y03212
X01332Y03985
X01373Y03733
X01518Y04096
X01578Y03975
X01638
X02313Y04155
X02326Y03704
X02768Y04095
Y04155
X02769Y03704
X04178Y03735
X04478
X06353Y0388
X07906Y03886
X08431Y04067
Y04012
Y03957
X08531
X08571Y04012
Y04067
X08596Y03887
X09576Y03782
X09714Y03685
X09763Y03711
X0988Y03699
X09883Y03782
X09915Y03733
X09937Y03825
X10016Y03719
X10036Y03791
X10099Y03786
X10271Y03861
X1029Y04179
X10319Y03884
X10339Y04194
X10501Y03692
X10578Y03891
X10605Y03689
X10607Y03768
X10717Y03935
X10719Y03858
X10776Y04077
X1082Y03824
X10867Y03786
X11201Y04157
X11263Y04057
X11309Y03922
X01373Y0429
Y04367
X01498Y0453
X01518Y0433
X01683Y04446
X01724Y04199
X02498Y04245
X02768Y04605
X02793Y0465
X02958Y04245
X03108Y0467
X04113Y047
X04191Y0457
X04278Y047
X04383Y04695
X04753Y04595
X04798Y04635
X06353Y0428
X07458Y0429
X07578
X07703
X07828
X07891Y04582
X07978Y0429
X08103
X08228
X08353
X08729Y04632
X09597Y04501
X09652Y04262
X0985Y04411
X09902Y0441
X10006Y04642
X10041Y04677
X10105Y04444
X10179Y04522
X10362Y04705
X10389Y04198
X10481Y0444
Y04492
X10726Y04651
X11376Y04432
X0131Y04812
X01373Y05083
X02318Y04835
X02508Y0494
X0268Y05011
X02808Y05065
X02913Y0472
X04113Y0476
X04613Y05205
X04708Y048
X09588Y04924
X09622Y04872
X09656Y04925
X09708Y0487
X09709Y04949
X09768Y04941
X09771Y05152
X09851Y0487
X10006Y04712
X10041Y04747
X10054Y0487
X10101Y05027
X10102Y04849
X10141Y04815
X10162Y05152
X10408Y05072
X10445Y04991
X10458Y05072
X105Y05023
X1053Y04878
X10543Y04965
X10581Y05025
X10584Y04792
X10617Y04971
X10633Y05026
X1067Y04969
X11211Y05002
X01332Y05335
X01373Y0564
Y05717
X01518Y0544
X0156Y05717
X01578Y0534
X01638
X01724Y05549
X02448Y0573
X02608Y0573
X02648Y05475
X02768Y0573
X02769Y0537
X02928Y0573
X03088
X03248
X0325Y05374
X03408Y0573
X03568
X04098Y05535
X04428
X04558Y05465
X04598Y05595
X04683Y05575
X04828Y05465
X09946Y05637
X10029Y05261
X10177Y05397
X10181Y05509
X10191Y05608
X10291Y05388
X1033Y05553
X10378Y05627
X10387Y05329
X10412Y05508
X1043Y05305
X10449Y05548
X10487Y05593
X10521Y05303
X10529Y05617
X10582Y0541
X10674
X10806Y05459
X10877Y053
X11114Y05272
X11166
X0131Y06162
X0151Y05872
X01587Y05875
X01723Y05795
X10331Y06169
X1074Y05868
X10823Y06095
X10341Y06567
T2
X01427Y01981
Y01921
X02424Y00931
X02484
X05526
X05586
X0143Y04972
Y05032
T3
X07751Y01797
X08621Y02697
X08921Y03472
X10984Y03464
Y03563
Y03642
X02258Y04265
X03198Y04205
X04118Y039
X04378Y0379
X04443Y03825
X05058Y0431
Y0407
X05133Y0416
X09669Y03978
X09712Y04426
X09884Y03979
X10018Y03978
X10107Y03998
X10108Y04382
Y04312
Y04214
Y04114
X10984Y0374
X03208Y04725
X04153Y0527
Y0537
X04168Y05975
X04203Y0532
X04754Y05368
Y05268
X04766Y05978
X04804Y05318
X04963Y0466
X04168Y06075
X04218Y06025
X04816Y06028
X04766Y06078
T4
X10862Y04456
Y04231
X1138Y04168
X11419Y04686
T5
X02761Y02205
X07401Y02032
X07611
X08616Y02847
X08686Y02777
X05878Y0323
Y0333
Y0293
X05978Y0333
Y0293
Y0323
X06378Y0293
Y0323
Y0333
X06478Y0323
Y0333
Y0293
X06678Y0333
Y0293
Y0323
X06778Y0293
Y0323
Y0333
X07178Y0323
Y0333
Y0293
X07278Y0333
Y0293
Y0323
X08881Y03387
X05878Y0403
Y0413
Y0363
Y0373
X05978Y0403
Y0413
Y0363
Y0373
X06378Y0403
Y0413
Y0363
Y0373
X06478Y0403
Y0413
Y0363
Y0373
X06678Y0403
Y0413
Y0363
Y0373
X06778Y0403
Y0413
Y0363
Y0373
X07178Y0403
Y0413
Y0363
Y0373
X07278Y0413
Y0403
Y0373
Y0363
X08841Y03447
X02744Y0483
X02979Y04943
X04527Y04398
X05878Y0443
Y0483
Y0453
Y0493
X05978Y0483
Y0443
Y0493
Y0453
X06378Y0443
Y0483
Y0453
Y0493
X06478Y0483
Y0443
Y0493
Y0453
X06678Y0443
Y0483
Y0453
Y0493
X06778Y0483
Y0443
Y0493
Y0453
X07178Y0443
Y0483
Y0453
Y0493
X07278Y0483
Y0443
Y0493
Y0453
X03373Y05075
X05878Y0563
Y0573
Y0523
Y0533
X05978Y0563
Y0573
Y0523
Y0533
X06378Y0563
Y0573
Y0523
Y0533
X06478Y0563
Y0573
Y0523
Y0533
X06678Y0563
Y0573
Y0523
Y0533
X06778Y0563
Y0573
Y0523
Y0533
X07178Y0563
Y0573
Y0523
Y0533
X07278Y0563
Y0573
Y0523
Y0533
X05878Y0603
X05978
X06378
X06384Y06246
Y06346
X06478Y0603
X06484Y06246
Y06346
X06584Y06246
Y06346
X06678Y0603
X06684Y06246
Y06346
X06778Y0603
X06784Y06246
Y06346
X06884Y06246
Y06346
X06984Y06246
Y06346
X07084Y06246
Y06346
X07178Y0603
X07184Y06246
Y06346
X07278Y0603
X07284Y06346
Y06246
X07384Y06346
Y06246
X07484
Y06346
X07584Y06246
Y06346
X07684Y06246
Y06346
X07784Y06246
Y06346
X07884Y06246
Y06346
X07984Y06246
Y06346
X08084Y06246
Y06346
X08184Y06246
Y06346
X08284Y06246
Y06346
T6
X06291Y01982
T7
X10166Y05954
X10266
X10366
X10466
X10076Y06404
Y06484
X10216Y06054
X10316
X10416
X10516
X10606Y06404
Y06484
T8
X06586Y01857
X09786Y015
X09921Y00612
X10501Y00557
X11151Y00857
X09301Y03382
X09441Y02622
X10736Y04157
X10756Y03422
X10951Y02607
Y02757
X11201Y02482
X10751Y04827
X08951Y04857
T9
X07487Y01008
Y01108
X09826Y00927
X09926
X10021Y00612
X10026Y00927
X10121Y00612
X10221
X10501Y00657
X10601Y00557
Y00657
X10701
Y00557
X10801
Y00657
X11051Y01057
Y00857
Y00957
X11151
Y01057
X07487Y01508
Y01608
Y01208
X09886Y015
X09986
X11051Y01157
Y01257
Y01357
X11151
Y01157
Y01257
X11201Y01782
Y01882
Y01582
Y01682
X11301Y01882
Y01582
Y01782
Y01682
X06586Y02157
Y02057
Y01957
X09041Y02622
X09141
X09241
X09341
X11051Y02607
X11151
X11201Y02182
Y01982
Y02382
Y02282
Y02082
X11251Y02607
X11301Y01982
Y02182
Y02482
Y02282
Y02082
Y02382
X03366Y02912
X03466
X03566
X03866
X03966
X04623Y03285
Y03185
X04948
Y03285
X09401Y03382
X09501
X09601
X09701
X09801
X09901
X10001
X10101
X10201
X10301
X10401
X10501
X10756Y03322
Y03222
Y03022
Y03122
X10951Y02857
Y02957
Y03057
X11321Y02927
Y03027
X03313Y0375
Y0365
X04623Y03785
Y03685
Y03585
X04948
Y03685
Y03785
X08951Y03657
Y03857
Y03757
Y03557
X09051Y03857
Y03557
Y03657
Y03757
X09301Y03482
X09401
X09501
X09601
X09701
X09801
X09901
X10001
X10101
X10201
X10301
X10401
X10501
X03313Y0415
Y0425
Y0405
X08951Y04657
Y04157
Y04357
Y04257
Y04057
Y04557
Y03957
Y04457
X09051Y03957
Y04557
Y04457
Y04257
Y04357
Y04157
Y04657
Y04057
X10736Y04457
Y04357
Y04257
X08951Y04757
X09051Y04857
Y04757
X09136Y05472
X09236
X09336
X09606Y05742
Y05642
X10191Y04742
X10291
X10851Y04827
X10951
X09606Y05842
T10
X04846Y02772
X09121Y03277
X09596Y02557
X09601Y02647
X02248Y05818
X09196Y03512
X02248Y06113
T11
X10031Y06184
X10651
T12
X01252Y00527
X01402
X01552
X01702
X01852
X02002
X02152
X02302
X02605
X02755
X02905
X03055
X03205
X03355
X03505
X03655
X04357
X04507
X04657
X04807
X04957
X05107
X05257
X05407
X05705
X05855
X06005
X06155
X06305
X06455
X06605
X06755
X07504
X07654
X07804
X07954
X08104
X08861Y00527
X09011
X09161
X09311
X09461
X01021Y02102
Y015
Y0165
Y018
Y0135
Y009
Y0105
Y012
Y0075
Y03002
Y02852
Y03802
Y03152
Y02402
Y02252
Y02702
Y02552
Y04852
Y04702
Y05302
Y05152
Y03952
Y05452
Y04252
Y04102
Y04552
Y04402
Y06202
Y06052
Y05902
Y05602
Y05752
X0218Y0641
X0233
X0248
X0263
X0278
X0293
X0308
X0323
X0338
X0353
X0406
X0421
X0436
X0451
X0466
X0481
X0496
X0511
X09333Y06412
X09483
X11181Y06175
Y06025
Y05725
Y05875
Y05575
X09633Y06412
T13
X05702Y02085
T14
X1109Y03344
Y03861
T15
X06154Y06318
X08513
T16
X00901Y00407
X04001
X07101
X11301
X00901Y06532
Y03482
X05526Y06532
X08951
X11301
T17
X04639Y02085
M30
