G75*
%MOIN*%
%OFA0B0*%
%FSLAX25Y25*%
%IPPOS*%
%LPD*%
%AMOC8*
5,1,8,0,0,1.08239X$1,22.5*
%
%ADD10C,0.01200*%
%ADD11C,0.00100*%
%ADD12C,0.00500*%
%ADD13C,0.00600*%
%ADD14C,0.00787*%
%ADD15C,0.00200*%
%ADD16C,0.00800*%
%ADD17R,0.00787X0.00787*%
%ADD18R,0.02000X0.00500*%
%ADD19C,0.01600*%
%ADD20C,0.00039*%
%ADD21C,0.00295*%
%ADD22R,0.06200X0.02400*%
%ADD23C,0.00000*%
D10*
X0015580Y0025231D02*
X0247863Y0025231D01*
X0248148Y0025234D01*
X0248434Y0025245D01*
X0248719Y0025262D01*
X0249003Y0025286D01*
X0249287Y0025317D01*
X0249570Y0025355D01*
X0249851Y0025400D01*
X0250132Y0025451D01*
X0250412Y0025509D01*
X0250690Y0025574D01*
X0250966Y0025646D01*
X0251240Y0025724D01*
X0251513Y0025809D01*
X0251783Y0025901D01*
X0252051Y0025999D01*
X0252317Y0026103D01*
X0252580Y0026214D01*
X0252840Y0026331D01*
X0253098Y0026454D01*
X0253352Y0026584D01*
X0253603Y0026720D01*
X0253851Y0026861D01*
X0254095Y0027009D01*
X0254336Y0027162D01*
X0254572Y0027322D01*
X0254805Y0027487D01*
X0255034Y0027657D01*
X0255259Y0027833D01*
X0255479Y0028015D01*
X0255695Y0028201D01*
X0255906Y0028393D01*
X0256113Y0028590D01*
X0256315Y0028792D01*
X0256512Y0028999D01*
X0256704Y0029210D01*
X0256890Y0029426D01*
X0257072Y0029646D01*
X0257248Y0029871D01*
X0257418Y0030100D01*
X0257583Y0030333D01*
X0257743Y0030569D01*
X0257896Y0030810D01*
X0258044Y0031054D01*
X0258185Y0031302D01*
X0258321Y0031553D01*
X0258451Y0031807D01*
X0258574Y0032065D01*
X0258691Y0032325D01*
X0258802Y0032588D01*
X0258906Y0032854D01*
X0259004Y0033122D01*
X0259096Y0033392D01*
X0259181Y0033665D01*
X0259259Y0033939D01*
X0259331Y0034215D01*
X0259396Y0034493D01*
X0259454Y0034773D01*
X0259505Y0035054D01*
X0259550Y0035335D01*
X0259588Y0035618D01*
X0259619Y0035902D01*
X0259643Y0036186D01*
X0259660Y0036471D01*
X0259671Y0036757D01*
X0259674Y0037042D01*
X0259674Y0131530D01*
X0259671Y0131815D01*
X0259660Y0132101D01*
X0259643Y0132386D01*
X0259619Y0132670D01*
X0259588Y0132954D01*
X0259550Y0133237D01*
X0259505Y0133518D01*
X0259454Y0133799D01*
X0259396Y0134079D01*
X0259331Y0134357D01*
X0259259Y0134633D01*
X0259181Y0134907D01*
X0259096Y0135180D01*
X0259004Y0135450D01*
X0258906Y0135718D01*
X0258802Y0135984D01*
X0258691Y0136247D01*
X0258574Y0136507D01*
X0258451Y0136765D01*
X0258321Y0137019D01*
X0258185Y0137270D01*
X0258044Y0137518D01*
X0257896Y0137762D01*
X0257743Y0138003D01*
X0257583Y0138239D01*
X0257418Y0138472D01*
X0257248Y0138701D01*
X0257072Y0138926D01*
X0256890Y0139146D01*
X0256704Y0139362D01*
X0256512Y0139573D01*
X0256315Y0139780D01*
X0256113Y0139982D01*
X0255906Y0140179D01*
X0255695Y0140371D01*
X0255479Y0140557D01*
X0255259Y0140739D01*
X0255034Y0140915D01*
X0254805Y0141085D01*
X0254572Y0141250D01*
X0254336Y0141410D01*
X0254095Y0141563D01*
X0253851Y0141711D01*
X0253603Y0141852D01*
X0253352Y0141988D01*
X0253098Y0142118D01*
X0252840Y0142241D01*
X0252580Y0142358D01*
X0252317Y0142469D01*
X0252051Y0142573D01*
X0251783Y0142671D01*
X0251513Y0142763D01*
X0251240Y0142848D01*
X0250966Y0142926D01*
X0250690Y0142998D01*
X0250412Y0143063D01*
X0250132Y0143121D01*
X0249851Y0143172D01*
X0249570Y0143217D01*
X0249287Y0143255D01*
X0249003Y0143286D01*
X0248719Y0143310D01*
X0248434Y0143327D01*
X0248148Y0143338D01*
X0247863Y0143341D01*
X0015580Y0143341D01*
X0015295Y0143338D01*
X0015009Y0143327D01*
X0014724Y0143310D01*
X0014440Y0143286D01*
X0014156Y0143255D01*
X0013873Y0143217D01*
X0013592Y0143172D01*
X0013311Y0143121D01*
X0013031Y0143063D01*
X0012753Y0142998D01*
X0012477Y0142926D01*
X0012203Y0142848D01*
X0011930Y0142763D01*
X0011660Y0142671D01*
X0011392Y0142573D01*
X0011126Y0142469D01*
X0010863Y0142358D01*
X0010603Y0142241D01*
X0010345Y0142118D01*
X0010091Y0141988D01*
X0009840Y0141852D01*
X0009592Y0141711D01*
X0009348Y0141563D01*
X0009107Y0141410D01*
X0008871Y0141250D01*
X0008638Y0141085D01*
X0008409Y0140915D01*
X0008184Y0140739D01*
X0007964Y0140557D01*
X0007748Y0140371D01*
X0007537Y0140179D01*
X0007330Y0139982D01*
X0007128Y0139780D01*
X0006931Y0139573D01*
X0006739Y0139362D01*
X0006553Y0139146D01*
X0006371Y0138926D01*
X0006195Y0138701D01*
X0006025Y0138472D01*
X0005860Y0138239D01*
X0005700Y0138003D01*
X0005547Y0137762D01*
X0005399Y0137518D01*
X0005258Y0137270D01*
X0005122Y0137019D01*
X0004992Y0136765D01*
X0004869Y0136507D01*
X0004752Y0136247D01*
X0004641Y0135984D01*
X0004537Y0135718D01*
X0004439Y0135450D01*
X0004347Y0135180D01*
X0004262Y0134907D01*
X0004184Y0134633D01*
X0004112Y0134357D01*
X0004047Y0134079D01*
X0003989Y0133799D01*
X0003938Y0133518D01*
X0003893Y0133237D01*
X0003855Y0132954D01*
X0003824Y0132670D01*
X0003800Y0132386D01*
X0003783Y0132101D01*
X0003772Y0131815D01*
X0003769Y0131530D01*
X0003769Y0037042D01*
X0003772Y0036757D01*
X0003783Y0036471D01*
X0003800Y0036186D01*
X0003824Y0035902D01*
X0003855Y0035618D01*
X0003893Y0035335D01*
X0003938Y0035054D01*
X0003989Y0034773D01*
X0004047Y0034493D01*
X0004112Y0034215D01*
X0004184Y0033939D01*
X0004262Y0033665D01*
X0004347Y0033392D01*
X0004439Y0033122D01*
X0004537Y0032854D01*
X0004641Y0032588D01*
X0004752Y0032325D01*
X0004869Y0032065D01*
X0004992Y0031807D01*
X0005122Y0031553D01*
X0005258Y0031302D01*
X0005399Y0031054D01*
X0005547Y0030810D01*
X0005700Y0030569D01*
X0005860Y0030333D01*
X0006025Y0030100D01*
X0006195Y0029871D01*
X0006371Y0029646D01*
X0006553Y0029426D01*
X0006739Y0029210D01*
X0006931Y0028999D01*
X0007128Y0028792D01*
X0007330Y0028590D01*
X0007537Y0028393D01*
X0007748Y0028201D01*
X0007964Y0028015D01*
X0008184Y0027833D01*
X0008409Y0027657D01*
X0008638Y0027487D01*
X0008871Y0027322D01*
X0009107Y0027162D01*
X0009348Y0027009D01*
X0009592Y0026861D01*
X0009840Y0026720D01*
X0010091Y0026584D01*
X0010345Y0026454D01*
X0010603Y0026331D01*
X0010863Y0026214D01*
X0011126Y0026103D01*
X0011392Y0025999D01*
X0011660Y0025901D01*
X0011930Y0025809D01*
X0012203Y0025724D01*
X0012477Y0025646D01*
X0012753Y0025574D01*
X0013031Y0025509D01*
X0013311Y0025451D01*
X0013592Y0025400D01*
X0013873Y0025355D01*
X0014156Y0025317D01*
X0014440Y0025286D01*
X0014724Y0025262D01*
X0015009Y0025245D01*
X0015295Y0025234D01*
X0015580Y0025231D01*
D11*
X0032579Y0034839D02*
X0032579Y0036340D01*
X0033330Y0036340D01*
X0033580Y0036090D01*
X0033580Y0035589D01*
X0033330Y0035339D01*
X0032579Y0035339D01*
X0033079Y0035339D02*
X0033580Y0034839D01*
X0034052Y0035589D02*
X0035053Y0035589D01*
X0035526Y0035089D02*
X0035526Y0036090D01*
X0035776Y0036340D01*
X0036276Y0036340D01*
X0036526Y0036090D01*
X0035526Y0035089D01*
X0035776Y0034839D01*
X0036276Y0034839D01*
X0036526Y0035089D01*
X0036526Y0036090D01*
X0036999Y0035589D02*
X0037749Y0035589D01*
X0038000Y0035339D01*
X0038000Y0035089D01*
X0037749Y0034839D01*
X0037249Y0034839D01*
X0036999Y0035089D01*
X0036999Y0035589D01*
X0037499Y0036090D01*
X0038000Y0036340D01*
X0034803Y0036340D02*
X0034803Y0034839D01*
X0034052Y0035589D02*
X0034803Y0036340D01*
X0045275Y0034308D02*
X0045275Y0033307D01*
X0045525Y0033057D01*
X0046026Y0033057D01*
X0046276Y0033307D01*
X0046748Y0033807D02*
X0047749Y0033807D01*
X0048222Y0034058D02*
X0048722Y0034558D01*
X0048722Y0033057D01*
X0048222Y0033057D02*
X0049223Y0033057D01*
X0049695Y0033057D02*
X0050696Y0033057D01*
X0050195Y0033057D02*
X0050195Y0034558D01*
X0049695Y0034058D01*
X0047499Y0034558D02*
X0046748Y0033807D01*
X0046276Y0034308D02*
X0046026Y0034558D01*
X0045525Y0034558D01*
X0045275Y0034308D01*
X0047499Y0034558D02*
X0047499Y0033057D01*
X0055335Y0031891D02*
X0055335Y0030390D01*
X0055335Y0030890D02*
X0056086Y0030890D01*
X0056336Y0031141D01*
X0056336Y0031641D01*
X0056086Y0031891D01*
X0055335Y0031891D01*
X0055835Y0030890D02*
X0056336Y0030390D01*
X0056808Y0031141D02*
X0057809Y0031141D01*
X0058281Y0031641D02*
X0058532Y0031891D01*
X0059032Y0031891D01*
X0059282Y0031641D01*
X0058281Y0030640D01*
X0058532Y0030390D01*
X0059032Y0030390D01*
X0059282Y0030640D01*
X0059282Y0031641D01*
X0059755Y0031141D02*
X0060756Y0031141D01*
X0060505Y0031891D02*
X0059755Y0031141D01*
X0060505Y0031891D02*
X0060505Y0030390D01*
X0058281Y0030640D02*
X0058281Y0031641D01*
X0057559Y0031891D02*
X0056808Y0031141D01*
X0057559Y0031891D02*
X0057559Y0030390D01*
X0050792Y0041210D02*
X0050292Y0041210D01*
X0050041Y0041461D01*
X0049569Y0041461D02*
X0049319Y0041210D01*
X0048818Y0041210D01*
X0048568Y0041461D01*
X0049569Y0042461D01*
X0049569Y0041461D01*
X0049569Y0042461D02*
X0049319Y0042712D01*
X0048818Y0042712D01*
X0048568Y0042461D01*
X0048568Y0041461D01*
X0048096Y0041961D02*
X0047095Y0041961D01*
X0047846Y0042712D01*
X0047846Y0041210D01*
X0046623Y0041210D02*
X0046122Y0041711D01*
X0046372Y0041711D02*
X0045622Y0041711D01*
X0045622Y0041210D02*
X0045622Y0042712D01*
X0046372Y0042712D01*
X0046623Y0042461D01*
X0046623Y0041961D01*
X0046372Y0041711D01*
X0050041Y0042461D02*
X0050292Y0042712D01*
X0050792Y0042712D01*
X0051042Y0042461D01*
X0051042Y0042211D01*
X0050792Y0041961D01*
X0051042Y0041711D01*
X0051042Y0041461D01*
X0050792Y0041210D01*
X0050792Y0041961D02*
X0050542Y0041961D01*
X0058831Y0044305D02*
X0059081Y0044055D01*
X0059582Y0044055D01*
X0059832Y0044305D01*
X0060304Y0044806D02*
X0061305Y0044806D01*
X0061777Y0045306D02*
X0062028Y0045556D01*
X0062528Y0045556D01*
X0062778Y0045306D01*
X0061777Y0044305D01*
X0062028Y0044055D01*
X0062528Y0044055D01*
X0062778Y0044305D01*
X0062778Y0045306D01*
X0063251Y0045306D02*
X0063251Y0045056D01*
X0063501Y0044806D01*
X0064001Y0044806D01*
X0064252Y0044556D01*
X0064252Y0044305D01*
X0064001Y0044055D01*
X0063501Y0044055D01*
X0063251Y0044305D01*
X0063251Y0044556D01*
X0063501Y0044806D01*
X0064001Y0044806D02*
X0064252Y0045056D01*
X0064252Y0045306D01*
X0064001Y0045556D01*
X0063501Y0045556D01*
X0063251Y0045306D01*
X0061777Y0045306D02*
X0061777Y0044305D01*
X0061055Y0044055D02*
X0061055Y0045556D01*
X0060304Y0044806D01*
X0059832Y0045306D02*
X0059582Y0045556D01*
X0059081Y0045556D01*
X0058831Y0045306D01*
X0058831Y0044305D01*
X0067296Y0043912D02*
X0067546Y0043662D01*
X0068046Y0043662D01*
X0068296Y0043912D01*
X0068769Y0044412D02*
X0069770Y0044412D01*
X0070242Y0043912D02*
X0071243Y0044913D01*
X0071243Y0043912D01*
X0070993Y0043662D01*
X0070492Y0043662D01*
X0070242Y0043912D01*
X0070242Y0044913D01*
X0070492Y0045163D01*
X0070993Y0045163D01*
X0071243Y0044913D01*
X0071715Y0044913D02*
X0071715Y0044662D01*
X0071966Y0044412D01*
X0072716Y0044412D01*
X0072716Y0043912D02*
X0072716Y0044913D01*
X0072466Y0045163D01*
X0071966Y0045163D01*
X0071715Y0044913D01*
X0071715Y0043912D02*
X0071966Y0043662D01*
X0072466Y0043662D01*
X0072716Y0043912D01*
X0076595Y0044091D02*
X0076595Y0045592D01*
X0077345Y0045592D01*
X0077596Y0045342D01*
X0077596Y0044841D01*
X0077345Y0044591D01*
X0076595Y0044591D01*
X0077095Y0044591D02*
X0077596Y0044091D01*
X0078068Y0044841D02*
X0079069Y0044841D01*
X0079541Y0044341D02*
X0080542Y0045342D01*
X0080542Y0044341D01*
X0080292Y0044091D01*
X0079791Y0044091D01*
X0079541Y0044341D01*
X0079541Y0045342D01*
X0079791Y0045592D01*
X0080292Y0045592D01*
X0080542Y0045342D01*
X0081015Y0045592D02*
X0081015Y0044841D01*
X0081515Y0045091D01*
X0081765Y0045091D01*
X0082015Y0044841D01*
X0082015Y0044341D01*
X0081765Y0044091D01*
X0081265Y0044091D01*
X0081015Y0044341D01*
X0081015Y0045592D02*
X0082015Y0045592D01*
X0078819Y0045592D02*
X0078819Y0044091D01*
X0078068Y0044841D02*
X0078819Y0045592D01*
X0069519Y0045163D02*
X0069519Y0043662D01*
X0068769Y0044412D02*
X0069519Y0045163D01*
X0068296Y0044913D02*
X0068046Y0045163D01*
X0067546Y0045163D01*
X0067296Y0044913D01*
X0067296Y0043912D01*
X0049409Y0049109D02*
X0049159Y0048858D01*
X0048658Y0048858D01*
X0048408Y0049109D01*
X0047936Y0049109D02*
X0047686Y0048858D01*
X0047185Y0048858D01*
X0046935Y0049109D01*
X0047936Y0050109D01*
X0047936Y0049109D01*
X0047936Y0050109D02*
X0047686Y0050360D01*
X0047185Y0050360D01*
X0046935Y0050109D01*
X0046935Y0049109D01*
X0046463Y0049609D02*
X0045462Y0049609D01*
X0046212Y0050360D01*
X0046212Y0048858D01*
X0044989Y0049109D02*
X0044739Y0048858D01*
X0044239Y0048858D01*
X0043988Y0049109D01*
X0043988Y0050109D01*
X0044239Y0050360D01*
X0044739Y0050360D01*
X0044989Y0050109D01*
X0048408Y0050109D02*
X0048658Y0050360D01*
X0049159Y0050360D01*
X0049409Y0050109D01*
X0049409Y0049859D01*
X0049159Y0049609D01*
X0049409Y0049359D01*
X0049409Y0049109D01*
X0049159Y0049609D02*
X0048909Y0049609D01*
X0048487Y0056850D02*
X0049488Y0057851D01*
X0049488Y0058102D01*
X0049238Y0058352D01*
X0048737Y0058352D01*
X0048487Y0058102D01*
X0048015Y0058102D02*
X0047014Y0057101D01*
X0047264Y0056850D01*
X0047764Y0056850D01*
X0048015Y0057101D01*
X0048015Y0058102D01*
X0047764Y0058352D01*
X0047264Y0058352D01*
X0047014Y0058102D01*
X0047014Y0057101D01*
X0046541Y0057601D02*
X0045540Y0057601D01*
X0046291Y0058352D01*
X0046291Y0056850D01*
X0045068Y0057101D02*
X0044818Y0056850D01*
X0044317Y0056850D01*
X0044067Y0057101D01*
X0044067Y0058102D01*
X0044317Y0058352D01*
X0044818Y0058352D01*
X0045068Y0058102D01*
X0048487Y0056850D02*
X0049488Y0056850D01*
X0030882Y0049732D02*
X0029881Y0049732D01*
X0030381Y0049732D02*
X0030381Y0051234D01*
X0029881Y0050733D01*
X0029408Y0050983D02*
X0028407Y0049983D01*
X0028658Y0049732D01*
X0029158Y0049732D01*
X0029408Y0049983D01*
X0029408Y0050983D01*
X0029158Y0051234D01*
X0028658Y0051234D01*
X0028407Y0050983D01*
X0028407Y0049983D01*
X0027935Y0050483D02*
X0026934Y0050483D01*
X0027685Y0051234D01*
X0027685Y0049732D01*
X0026462Y0049983D02*
X0026462Y0050983D01*
X0026212Y0051234D01*
X0025461Y0051234D01*
X0025461Y0049732D01*
X0026212Y0049732D01*
X0026462Y0049983D01*
X0026413Y0057191D02*
X0025913Y0057191D01*
X0025663Y0057441D01*
X0026663Y0058442D01*
X0026663Y0057441D01*
X0026413Y0057191D01*
X0027136Y0057441D02*
X0027386Y0057191D01*
X0027887Y0057191D01*
X0028137Y0057441D01*
X0028137Y0057691D01*
X0027887Y0057941D01*
X0027136Y0057941D01*
X0027136Y0057441D01*
X0027136Y0057941D02*
X0027636Y0058442D01*
X0028137Y0058692D01*
X0026663Y0058442D02*
X0026413Y0058692D01*
X0025913Y0058692D01*
X0025663Y0058442D01*
X0025663Y0057441D01*
X0025190Y0057941D02*
X0024189Y0057941D01*
X0024940Y0058692D01*
X0024940Y0057191D01*
X0023717Y0057441D02*
X0023467Y0057191D01*
X0022966Y0057191D01*
X0022716Y0057441D01*
X0022716Y0058442D01*
X0022966Y0058692D01*
X0023467Y0058692D01*
X0023717Y0058442D01*
X0091949Y0055316D02*
X0091949Y0053815D01*
X0092950Y0053815D01*
X0093422Y0054566D02*
X0094423Y0054566D01*
X0094896Y0055066D02*
X0095146Y0055316D01*
X0095646Y0055316D01*
X0095896Y0055066D01*
X0094896Y0054065D01*
X0095146Y0053815D01*
X0095646Y0053815D01*
X0095896Y0054065D01*
X0095896Y0055066D01*
X0096369Y0054816D02*
X0096869Y0055316D01*
X0096869Y0053815D01*
X0096369Y0053815D02*
X0097370Y0053815D01*
X0094896Y0054065D02*
X0094896Y0055066D01*
X0094173Y0055316D02*
X0093422Y0054566D01*
X0094173Y0055316D02*
X0094173Y0053815D01*
X0097376Y0045582D02*
X0097126Y0045331D01*
X0097126Y0044331D01*
X0097376Y0044080D01*
X0097876Y0044080D01*
X0098126Y0044331D01*
X0098599Y0044831D02*
X0099600Y0044831D01*
X0100072Y0045081D02*
X0100573Y0045582D01*
X0100573Y0044080D01*
X0101073Y0044080D02*
X0100072Y0044080D01*
X0099349Y0044080D02*
X0099349Y0045582D01*
X0098599Y0044831D01*
X0098126Y0045331D02*
X0097876Y0045582D01*
X0097376Y0045582D01*
X0101545Y0045331D02*
X0101796Y0045582D01*
X0102296Y0045582D01*
X0102546Y0045331D01*
X0102546Y0045081D01*
X0101545Y0044080D01*
X0102546Y0044080D01*
X0114744Y0045006D02*
X0115494Y0045006D01*
X0115745Y0045256D01*
X0115745Y0046257D01*
X0115494Y0046507D01*
X0114744Y0046507D01*
X0114744Y0045006D01*
X0116217Y0045006D02*
X0117218Y0045006D01*
X0116717Y0045006D02*
X0116717Y0046507D01*
X0116217Y0046006D01*
X0117690Y0046257D02*
X0117690Y0045256D01*
X0118691Y0046257D01*
X0118691Y0045256D01*
X0118441Y0045006D01*
X0117940Y0045006D01*
X0117690Y0045256D01*
X0117690Y0046257D02*
X0117940Y0046507D01*
X0118441Y0046507D01*
X0118691Y0046257D01*
X0119163Y0046006D02*
X0119664Y0046507D01*
X0119664Y0045006D01*
X0120164Y0045006D02*
X0119163Y0045006D01*
X0134750Y0042289D02*
X0134750Y0041038D01*
X0135000Y0040788D01*
X0135501Y0040788D01*
X0135751Y0041038D01*
X0135751Y0042289D01*
X0136223Y0042039D02*
X0136473Y0042289D01*
X0136974Y0042289D01*
X0137224Y0042039D01*
X0137224Y0041788D01*
X0136223Y0040788D01*
X0137224Y0040788D01*
X0149221Y0031525D02*
X0149971Y0031525D01*
X0150222Y0031275D01*
X0150222Y0030774D01*
X0149971Y0030524D01*
X0149221Y0030524D01*
X0149721Y0030524D02*
X0150222Y0030024D01*
X0150694Y0030024D02*
X0151695Y0030024D01*
X0151194Y0030024D02*
X0151194Y0031525D01*
X0150694Y0031025D01*
X0152167Y0031275D02*
X0152417Y0031525D01*
X0152918Y0031525D01*
X0153168Y0031275D01*
X0152167Y0030274D01*
X0152417Y0030024D01*
X0152918Y0030024D01*
X0153168Y0030274D01*
X0153168Y0031275D01*
X0153641Y0031275D02*
X0153891Y0031525D01*
X0154391Y0031525D01*
X0154641Y0031275D01*
X0154641Y0031025D01*
X0153641Y0030024D01*
X0154641Y0030024D01*
X0152167Y0030274D02*
X0152167Y0031275D01*
X0149221Y0031525D02*
X0149221Y0030024D01*
X0180082Y0046498D02*
X0180082Y0047999D01*
X0180833Y0047999D01*
X0181083Y0047749D01*
X0181083Y0047248D01*
X0180833Y0046998D01*
X0180082Y0046998D01*
X0180583Y0046998D02*
X0181083Y0046498D01*
X0181556Y0046498D02*
X0182556Y0046498D01*
X0182056Y0046498D02*
X0182056Y0047999D01*
X0181556Y0047499D01*
X0183029Y0047749D02*
X0183279Y0047999D01*
X0183779Y0047999D01*
X0184030Y0047749D01*
X0183029Y0046748D01*
X0183279Y0046498D01*
X0183779Y0046498D01*
X0184030Y0046748D01*
X0184030Y0047749D01*
X0184502Y0047749D02*
X0184752Y0047999D01*
X0185253Y0047999D01*
X0185503Y0047749D01*
X0185503Y0047499D01*
X0185253Y0047248D01*
X0185503Y0046998D01*
X0185503Y0046748D01*
X0185253Y0046498D01*
X0184752Y0046498D01*
X0184502Y0046748D01*
X0185002Y0047248D02*
X0185253Y0047248D01*
X0183029Y0046748D02*
X0183029Y0047749D01*
X0196075Y0045432D02*
X0196075Y0044431D01*
X0196325Y0044181D01*
X0196826Y0044181D01*
X0197076Y0044431D01*
X0197548Y0044181D02*
X0198549Y0044181D01*
X0198049Y0044181D02*
X0198049Y0045682D01*
X0197548Y0045182D01*
X0197076Y0045432D02*
X0196826Y0045682D01*
X0196325Y0045682D01*
X0196075Y0045432D01*
X0199022Y0045432D02*
X0199272Y0045682D01*
X0199772Y0045682D01*
X0200022Y0045432D01*
X0199022Y0044431D01*
X0199272Y0044181D01*
X0199772Y0044181D01*
X0200022Y0044431D01*
X0200022Y0045432D01*
X0200495Y0045682D02*
X0200495Y0044932D01*
X0200995Y0045182D01*
X0201245Y0045182D01*
X0201496Y0044932D01*
X0201496Y0044431D01*
X0201245Y0044181D01*
X0200745Y0044181D01*
X0200495Y0044431D01*
X0200495Y0045682D02*
X0201496Y0045682D01*
X0199022Y0045432D02*
X0199022Y0044431D01*
X0193365Y0035719D02*
X0193365Y0034218D01*
X0193865Y0034218D02*
X0192864Y0034218D01*
X0192392Y0034468D02*
X0192142Y0034218D01*
X0191641Y0034218D01*
X0191391Y0034468D01*
X0192392Y0035469D01*
X0192392Y0034468D01*
X0192864Y0035219D02*
X0193365Y0035719D01*
X0192392Y0035469D02*
X0192142Y0035719D01*
X0191641Y0035719D01*
X0191391Y0035469D01*
X0191391Y0034468D01*
X0190919Y0034218D02*
X0189918Y0034218D01*
X0189445Y0034218D02*
X0188444Y0034218D01*
X0188444Y0035719D01*
X0189918Y0035219D02*
X0190418Y0035719D01*
X0190418Y0034218D01*
X0190225Y0029212D02*
X0190225Y0027710D01*
X0189725Y0027710D02*
X0190726Y0027710D01*
X0191198Y0027961D02*
X0192199Y0028961D01*
X0192199Y0027961D01*
X0191949Y0027710D01*
X0191448Y0027710D01*
X0191198Y0027961D01*
X0191198Y0028961D01*
X0191448Y0029212D01*
X0191949Y0029212D01*
X0192199Y0028961D01*
X0192671Y0028961D02*
X0192922Y0029212D01*
X0193422Y0029212D01*
X0193672Y0028961D01*
X0193672Y0028711D01*
X0193422Y0028461D01*
X0193672Y0028211D01*
X0193672Y0027961D01*
X0193422Y0027710D01*
X0192922Y0027710D01*
X0192671Y0027961D01*
X0193172Y0028461D02*
X0193422Y0028461D01*
X0190225Y0029212D02*
X0189725Y0028711D01*
X0189252Y0028961D02*
X0189002Y0029212D01*
X0188502Y0029212D01*
X0188252Y0028961D01*
X0188252Y0027961D01*
X0188502Y0027710D01*
X0189002Y0027710D01*
X0189252Y0027961D01*
X0159252Y0054339D02*
X0158251Y0054339D01*
X0158751Y0054339D02*
X0158751Y0055840D01*
X0158251Y0055340D01*
X0157778Y0055590D02*
X0156777Y0054589D01*
X0157028Y0054339D01*
X0157528Y0054339D01*
X0157778Y0054589D01*
X0157778Y0055590D01*
X0157528Y0055840D01*
X0157028Y0055840D01*
X0156777Y0055590D01*
X0156777Y0054589D01*
X0156305Y0054339D02*
X0155304Y0054339D01*
X0155805Y0054339D02*
X0155805Y0055840D01*
X0155304Y0055340D01*
X0154832Y0055590D02*
X0154582Y0055840D01*
X0154081Y0055840D01*
X0153831Y0055590D01*
X0153831Y0054589D01*
X0154081Y0054339D01*
X0154582Y0054339D01*
X0154832Y0054589D01*
X0167611Y0056575D02*
X0168361Y0056575D01*
X0168611Y0056825D01*
X0168611Y0057826D01*
X0168361Y0058076D01*
X0167611Y0058076D01*
X0167611Y0056575D01*
X0169084Y0056575D02*
X0170085Y0056575D01*
X0169584Y0056575D02*
X0169584Y0058076D01*
X0169084Y0057576D01*
X0170557Y0057826D02*
X0170557Y0056825D01*
X0171558Y0057826D01*
X0171558Y0056825D01*
X0171308Y0056575D01*
X0170807Y0056575D01*
X0170557Y0056825D01*
X0170557Y0057826D02*
X0170807Y0058076D01*
X0171308Y0058076D01*
X0171558Y0057826D01*
X0172030Y0057826D02*
X0172280Y0058076D01*
X0172781Y0058076D01*
X0173031Y0057826D01*
X0173031Y0057576D01*
X0172030Y0056575D01*
X0173031Y0056575D01*
X0169987Y0064947D02*
X0168986Y0064947D01*
X0169487Y0064947D02*
X0169487Y0066448D01*
X0168986Y0065947D01*
X0168514Y0066198D02*
X0167513Y0065197D01*
X0167763Y0064947D01*
X0168264Y0064947D01*
X0168514Y0065197D01*
X0168514Y0066198D01*
X0168264Y0066448D01*
X0167763Y0066448D01*
X0167513Y0066198D01*
X0167513Y0065197D01*
X0167041Y0065197D02*
X0166790Y0064947D01*
X0166290Y0064947D01*
X0166040Y0065197D01*
X0166040Y0065697D01*
X0166790Y0065697D01*
X0167041Y0065447D01*
X0167041Y0065197D01*
X0166040Y0065697D02*
X0166540Y0066198D01*
X0167041Y0066448D01*
X0165567Y0066198D02*
X0165317Y0066448D01*
X0164817Y0066448D01*
X0164567Y0066198D01*
X0164567Y0065197D01*
X0164817Y0064947D01*
X0165317Y0064947D01*
X0165567Y0065197D01*
X0158543Y0064803D02*
X0157542Y0064803D01*
X0158042Y0064803D02*
X0158042Y0066305D01*
X0157542Y0065804D01*
X0157070Y0066054D02*
X0156069Y0065053D01*
X0156319Y0064803D01*
X0156819Y0064803D01*
X0157070Y0065053D01*
X0157070Y0066054D01*
X0156819Y0066305D01*
X0156319Y0066305D01*
X0156069Y0066054D01*
X0156069Y0065053D01*
X0155596Y0065053D02*
X0155346Y0064803D01*
X0154846Y0064803D01*
X0154596Y0065053D01*
X0154123Y0065053D02*
X0153873Y0064803D01*
X0153373Y0064803D01*
X0153122Y0065053D01*
X0153122Y0066054D01*
X0153373Y0066305D01*
X0153873Y0066305D01*
X0154123Y0066054D01*
X0154596Y0066054D02*
X0154846Y0066305D01*
X0155346Y0066305D01*
X0155596Y0066054D01*
X0155596Y0065804D01*
X0155346Y0065554D01*
X0155596Y0065304D01*
X0155596Y0065053D01*
X0155346Y0065554D02*
X0155096Y0065554D01*
X0144625Y0071210D02*
X0143624Y0071210D01*
X0144125Y0071210D02*
X0144125Y0072712D01*
X0143624Y0072211D01*
X0143152Y0072461D02*
X0142151Y0071461D01*
X0142401Y0071210D01*
X0142901Y0071210D01*
X0143152Y0071461D01*
X0143152Y0072461D01*
X0142901Y0072712D01*
X0142401Y0072712D01*
X0142151Y0072461D01*
X0142151Y0071461D01*
X0141678Y0071210D02*
X0140678Y0071210D01*
X0140205Y0071210D02*
X0139705Y0071711D01*
X0139955Y0071711D02*
X0139204Y0071711D01*
X0139204Y0071210D02*
X0139204Y0072712D01*
X0139955Y0072712D01*
X0140205Y0072461D01*
X0140205Y0071961D01*
X0139955Y0071711D01*
X0140678Y0072211D02*
X0141178Y0072712D01*
X0141178Y0071210D01*
X0131574Y0064381D02*
X0131324Y0064631D01*
X0130824Y0064631D01*
X0130574Y0064381D01*
X0130101Y0064381D02*
X0129100Y0063380D01*
X0129351Y0063130D01*
X0129851Y0063130D01*
X0130101Y0063380D01*
X0130101Y0064381D01*
X0129851Y0064631D01*
X0129351Y0064631D01*
X0129100Y0064381D01*
X0129100Y0063380D01*
X0128628Y0063130D02*
X0127627Y0063130D01*
X0128127Y0063130D02*
X0128127Y0064631D01*
X0127627Y0064131D01*
X0127155Y0064381D02*
X0126904Y0064631D01*
X0126404Y0064631D01*
X0126154Y0064381D01*
X0126154Y0063380D01*
X0126404Y0063130D01*
X0126904Y0063130D01*
X0127155Y0063380D01*
X0130574Y0063130D02*
X0131574Y0064131D01*
X0131574Y0064381D01*
X0131574Y0063130D02*
X0130574Y0063130D01*
X0113700Y0071254D02*
X0113700Y0071504D01*
X0113450Y0071755D01*
X0112700Y0071755D01*
X0112700Y0071254D01*
X0112950Y0071004D01*
X0113450Y0071004D01*
X0113700Y0071254D01*
X0113200Y0072255D02*
X0112700Y0071755D01*
X0112227Y0071254D02*
X0112227Y0072505D01*
X0111226Y0072505D02*
X0111226Y0071254D01*
X0111477Y0071004D01*
X0111977Y0071004D01*
X0112227Y0071254D01*
X0113200Y0072255D02*
X0113700Y0072505D01*
X0102124Y0067971D02*
X0102124Y0067471D01*
X0101874Y0067221D01*
X0100873Y0068221D01*
X0101874Y0068221D01*
X0102124Y0067971D01*
X0101874Y0067221D02*
X0100873Y0067221D01*
X0100623Y0067471D01*
X0100623Y0067971D01*
X0100873Y0068221D01*
X0102124Y0066748D02*
X0102124Y0065747D01*
X0102124Y0066248D02*
X0100623Y0066248D01*
X0101123Y0065747D01*
X0101373Y0065275D02*
X0101373Y0064274D01*
X0100623Y0065025D01*
X0102124Y0065025D01*
X0101874Y0063802D02*
X0102124Y0063552D01*
X0102124Y0063051D01*
X0101874Y0062801D01*
X0100873Y0062801D01*
X0100623Y0063051D01*
X0100623Y0063552D01*
X0100873Y0063802D01*
X0102275Y0087746D02*
X0102275Y0089247D01*
X0103026Y0089247D01*
X0103276Y0088997D01*
X0103276Y0088496D01*
X0103026Y0088246D01*
X0102275Y0088246D01*
X0102776Y0088246D02*
X0103276Y0087746D01*
X0103748Y0088496D02*
X0104749Y0088496D01*
X0105222Y0087996D02*
X0106223Y0088997D01*
X0106223Y0087996D01*
X0105972Y0087746D01*
X0105472Y0087746D01*
X0105222Y0087996D01*
X0105222Y0088997D01*
X0105472Y0089247D01*
X0105972Y0089247D01*
X0106223Y0088997D01*
X0106695Y0088997D02*
X0106945Y0089247D01*
X0107446Y0089247D01*
X0107696Y0088997D01*
X0107696Y0088747D01*
X0106695Y0087746D01*
X0107696Y0087746D01*
X0104499Y0087746D02*
X0104499Y0089247D01*
X0103748Y0088496D01*
X0115897Y0088443D02*
X0116648Y0088443D01*
X0116898Y0088693D01*
X0116898Y0089194D01*
X0116648Y0089444D01*
X0115897Y0089444D01*
X0115897Y0087943D01*
X0116398Y0088443D02*
X0116898Y0087943D01*
X0117370Y0088693D02*
X0118371Y0088693D01*
X0118844Y0088193D02*
X0118844Y0089194D01*
X0119094Y0089444D01*
X0119594Y0089444D01*
X0119845Y0089194D01*
X0118844Y0088193D01*
X0119094Y0087943D01*
X0119594Y0087943D01*
X0119845Y0088193D01*
X0119845Y0089194D01*
X0120317Y0088943D02*
X0120817Y0089444D01*
X0120817Y0087943D01*
X0120317Y0087943D02*
X0121318Y0087943D01*
X0118121Y0087943D02*
X0118121Y0089444D01*
X0117370Y0088693D01*
X0108631Y0102341D02*
X0107630Y0102341D01*
X0107380Y0102591D01*
X0107380Y0103092D01*
X0107630Y0103342D01*
X0108131Y0103814D02*
X0108131Y0104815D01*
X0108631Y0105287D02*
X0107630Y0105287D01*
X0107380Y0105538D01*
X0107380Y0106038D01*
X0107630Y0106288D01*
X0108631Y0105287D01*
X0108881Y0105538D01*
X0108881Y0106038D01*
X0108631Y0106288D01*
X0107630Y0106288D01*
X0107881Y0106761D02*
X0107380Y0107261D01*
X0108881Y0107261D01*
X0108881Y0106761D02*
X0108881Y0107762D01*
X0108881Y0104565D02*
X0107380Y0104565D01*
X0108131Y0103814D01*
X0108631Y0103342D02*
X0108881Y0103092D01*
X0108881Y0102591D01*
X0108631Y0102341D01*
X0108503Y0112825D02*
X0108253Y0113075D01*
X0109254Y0114076D01*
X0109254Y0113075D01*
X0109004Y0112825D01*
X0108503Y0112825D01*
X0108253Y0113075D02*
X0108253Y0114076D01*
X0108503Y0114326D01*
X0109004Y0114326D01*
X0109254Y0114076D01*
X0109726Y0114076D02*
X0109977Y0114326D01*
X0110477Y0114326D01*
X0110727Y0114076D01*
X0110727Y0113825D01*
X0109726Y0112825D01*
X0110727Y0112825D01*
X0107781Y0113075D02*
X0107531Y0112825D01*
X0107030Y0112825D01*
X0106780Y0113075D01*
X0106308Y0112825D02*
X0105807Y0113325D01*
X0106057Y0113325D02*
X0105307Y0113325D01*
X0105307Y0112825D02*
X0105307Y0114326D01*
X0106057Y0114326D01*
X0106308Y0114076D01*
X0106308Y0113575D01*
X0106057Y0113325D01*
X0106780Y0114076D02*
X0107030Y0114326D01*
X0107531Y0114326D01*
X0107781Y0114076D01*
X0107781Y0113825D01*
X0107531Y0113575D01*
X0107781Y0113325D01*
X0107781Y0113075D01*
X0107531Y0113575D02*
X0107280Y0113575D01*
X0090176Y0108927D02*
X0089175Y0108927D01*
X0089676Y0108927D02*
X0089676Y0110428D01*
X0089175Y0109928D01*
X0088703Y0110178D02*
X0087702Y0109177D01*
X0087952Y0108927D01*
X0088453Y0108927D01*
X0088703Y0109177D01*
X0088703Y0110178D01*
X0088453Y0110428D01*
X0087952Y0110428D01*
X0087702Y0110178D01*
X0087702Y0109177D01*
X0087230Y0109177D02*
X0086979Y0108927D01*
X0086479Y0108927D01*
X0086229Y0109177D01*
X0085756Y0108927D02*
X0085256Y0109427D01*
X0085506Y0109427D02*
X0084756Y0109427D01*
X0084756Y0108927D02*
X0084756Y0110428D01*
X0085506Y0110428D01*
X0085756Y0110178D01*
X0085756Y0109678D01*
X0085506Y0109427D01*
X0086229Y0110178D02*
X0086479Y0110428D01*
X0086979Y0110428D01*
X0087230Y0110178D01*
X0087230Y0109928D01*
X0086979Y0109678D01*
X0087230Y0109427D01*
X0087230Y0109177D01*
X0086979Y0109678D02*
X0086729Y0109678D01*
X0084434Y0118150D02*
X0083934Y0118150D01*
X0083684Y0118400D01*
X0083211Y0118400D02*
X0082961Y0118150D01*
X0082461Y0118150D01*
X0082211Y0118400D01*
X0083211Y0119401D01*
X0083211Y0118400D01*
X0083684Y0118900D02*
X0083684Y0119651D01*
X0084685Y0119651D01*
X0084434Y0119151D02*
X0084685Y0118900D01*
X0084685Y0118400D01*
X0084434Y0118150D01*
X0084434Y0119151D02*
X0084184Y0119151D01*
X0083684Y0118900D01*
X0083211Y0119401D02*
X0082961Y0119651D01*
X0082461Y0119651D01*
X0082211Y0119401D01*
X0082211Y0118400D01*
X0081738Y0118900D02*
X0080737Y0118900D01*
X0081488Y0119651D01*
X0081488Y0118150D01*
X0080265Y0118400D02*
X0080015Y0118150D01*
X0079514Y0118150D01*
X0079264Y0118400D01*
X0079264Y0119401D01*
X0079514Y0119651D01*
X0080015Y0119651D01*
X0080265Y0119401D01*
X0062677Y0118625D02*
X0061676Y0118625D01*
X0062427Y0119375D01*
X0062427Y0117874D01*
X0061204Y0118124D02*
X0060953Y0117874D01*
X0060453Y0117874D01*
X0060203Y0118124D01*
X0061204Y0119125D01*
X0061204Y0118124D01*
X0061204Y0119125D02*
X0060953Y0119375D01*
X0060453Y0119375D01*
X0060203Y0119125D01*
X0060203Y0118124D01*
X0059730Y0118625D02*
X0058729Y0118625D01*
X0059480Y0119375D01*
X0059480Y0117874D01*
X0058257Y0118124D02*
X0058007Y0117874D01*
X0057506Y0117874D01*
X0057256Y0118124D01*
X0057256Y0119125D01*
X0057506Y0119375D01*
X0058007Y0119375D01*
X0058257Y0119125D01*
X0014239Y0107708D02*
X0014239Y0107457D01*
X0013238Y0106457D01*
X0013238Y0106206D01*
X0012766Y0106457D02*
X0012516Y0106206D01*
X0012015Y0106206D01*
X0011765Y0106457D01*
X0012766Y0107457D01*
X0012766Y0106457D01*
X0012766Y0107457D02*
X0012516Y0107708D01*
X0012015Y0107708D01*
X0011765Y0107457D01*
X0011765Y0106457D01*
X0011293Y0106957D02*
X0010292Y0106957D01*
X0011042Y0107708D01*
X0011042Y0106206D01*
X0009819Y0106457D02*
X0009569Y0106206D01*
X0009069Y0106206D01*
X0008819Y0106457D01*
X0008819Y0107457D01*
X0009069Y0107708D01*
X0009569Y0107708D01*
X0009819Y0107457D01*
X0013238Y0107708D02*
X0014239Y0107708D01*
X0163240Y0097550D02*
X0163240Y0096550D01*
X0163491Y0096299D01*
X0163991Y0096299D01*
X0164241Y0096550D01*
X0164714Y0096550D02*
X0164964Y0096299D01*
X0165464Y0096299D01*
X0165715Y0096550D01*
X0165715Y0096800D01*
X0165464Y0097050D01*
X0165214Y0097050D01*
X0165464Y0097050D02*
X0165715Y0097300D01*
X0165715Y0097550D01*
X0165464Y0097801D01*
X0164964Y0097801D01*
X0164714Y0097550D01*
X0164241Y0097550D02*
X0163991Y0097801D01*
X0163491Y0097801D01*
X0163240Y0097550D01*
X0166187Y0097550D02*
X0166187Y0096550D01*
X0167188Y0097550D01*
X0167188Y0096550D01*
X0166938Y0096299D01*
X0166437Y0096299D01*
X0166187Y0096550D01*
X0166187Y0097550D02*
X0166437Y0097801D01*
X0166938Y0097801D01*
X0167188Y0097550D01*
X0167660Y0097550D02*
X0167910Y0097801D01*
X0168411Y0097801D01*
X0168661Y0097550D01*
X0168661Y0097300D01*
X0167660Y0096299D01*
X0168661Y0096299D01*
X0171902Y0096550D02*
X0171902Y0097550D01*
X0172152Y0097801D01*
X0172652Y0097801D01*
X0172903Y0097550D01*
X0173375Y0097550D02*
X0173625Y0097801D01*
X0174126Y0097801D01*
X0174376Y0097550D01*
X0174376Y0097300D01*
X0174126Y0097050D01*
X0174376Y0096800D01*
X0174376Y0096550D01*
X0174126Y0096299D01*
X0173625Y0096299D01*
X0173375Y0096550D01*
X0172903Y0096550D02*
X0172652Y0096299D01*
X0172152Y0096299D01*
X0171902Y0096550D01*
X0173876Y0097050D02*
X0174126Y0097050D01*
X0174848Y0096550D02*
X0174848Y0097550D01*
X0175099Y0097801D01*
X0175599Y0097801D01*
X0175849Y0097550D01*
X0174848Y0096550D01*
X0175099Y0096299D01*
X0175599Y0096299D01*
X0175849Y0096550D01*
X0175849Y0097550D01*
X0176322Y0097550D02*
X0176572Y0097801D01*
X0177072Y0097801D01*
X0177322Y0097550D01*
X0177322Y0097300D01*
X0177072Y0097050D01*
X0177322Y0096800D01*
X0177322Y0096550D01*
X0177072Y0096299D01*
X0176572Y0096299D01*
X0176322Y0096550D01*
X0176822Y0097050D02*
X0177072Y0097050D01*
X0167041Y0104650D02*
X0166791Y0104399D01*
X0166290Y0104399D01*
X0166040Y0104650D01*
X0165568Y0104650D02*
X0165568Y0105901D01*
X0166040Y0105650D02*
X0166290Y0105901D01*
X0166791Y0105901D01*
X0167041Y0105650D01*
X0167041Y0105400D01*
X0166791Y0105150D01*
X0167041Y0104900D01*
X0167041Y0104650D01*
X0166791Y0105150D02*
X0166541Y0105150D01*
X0165568Y0104650D02*
X0165318Y0104399D01*
X0164817Y0104399D01*
X0164567Y0104650D01*
X0164567Y0105901D01*
X0165059Y0108461D02*
X0165059Y0109962D01*
X0165810Y0109962D01*
X0166060Y0109712D01*
X0166060Y0109211D01*
X0165810Y0108961D01*
X0165059Y0108961D01*
X0165560Y0108961D02*
X0166060Y0108461D01*
X0166533Y0108711D02*
X0166783Y0108461D01*
X0167283Y0108461D01*
X0167533Y0108711D01*
X0167533Y0109211D01*
X0167283Y0109462D01*
X0167033Y0109462D01*
X0166533Y0109211D01*
X0166533Y0109962D01*
X0167533Y0109962D01*
X0168006Y0109712D02*
X0168256Y0109962D01*
X0168756Y0109962D01*
X0169007Y0109712D01*
X0168006Y0108711D01*
X0168256Y0108461D01*
X0168756Y0108461D01*
X0169007Y0108711D01*
X0169007Y0109712D01*
X0169479Y0109462D02*
X0169980Y0109962D01*
X0169980Y0108461D01*
X0170480Y0108461D02*
X0169479Y0108461D01*
X0168006Y0108711D02*
X0168006Y0109712D01*
X0177973Y0106812D02*
X0177973Y0105311D01*
X0177973Y0105812D02*
X0178723Y0105812D01*
X0178974Y0106062D01*
X0178974Y0106562D01*
X0178723Y0106812D01*
X0177973Y0106812D01*
X0178473Y0105812D02*
X0178974Y0105311D01*
X0179446Y0105561D02*
X0179696Y0105311D01*
X0180197Y0105311D01*
X0180447Y0105561D01*
X0180447Y0106062D01*
X0180197Y0106312D01*
X0179946Y0106312D01*
X0179446Y0106062D01*
X0179446Y0106812D01*
X0180447Y0106812D01*
X0180919Y0106562D02*
X0181169Y0106812D01*
X0181670Y0106812D01*
X0181920Y0106562D01*
X0180919Y0105561D01*
X0181169Y0105311D01*
X0181670Y0105311D01*
X0181920Y0105561D01*
X0181920Y0106562D01*
X0182392Y0106562D02*
X0182643Y0106812D01*
X0183143Y0106812D01*
X0183393Y0106562D01*
X0183393Y0106312D01*
X0182392Y0105311D01*
X0183393Y0105311D01*
X0180919Y0105561D02*
X0180919Y0106562D01*
X0196272Y0089198D02*
X0197023Y0089198D01*
X0197273Y0088948D01*
X0197273Y0087947D01*
X0197023Y0087697D01*
X0196272Y0087697D01*
X0196272Y0089198D01*
X0197745Y0088948D02*
X0197995Y0089198D01*
X0198496Y0089198D01*
X0198746Y0088948D01*
X0198746Y0088698D01*
X0198496Y0088448D01*
X0198746Y0088197D01*
X0198746Y0087947D01*
X0198496Y0087697D01*
X0197995Y0087697D01*
X0197745Y0087947D01*
X0198246Y0088448D02*
X0198496Y0088448D01*
X0199218Y0087947D02*
X0199218Y0088948D01*
X0199469Y0089198D01*
X0199969Y0089198D01*
X0200219Y0088948D01*
X0199218Y0087947D01*
X0199469Y0087697D01*
X0199969Y0087697D01*
X0200219Y0087947D01*
X0200219Y0088948D01*
X0200692Y0088698D02*
X0201192Y0089198D01*
X0201192Y0087697D01*
X0200692Y0087697D02*
X0201693Y0087697D01*
X0217798Y0088843D02*
X0217981Y0088659D01*
X0218165Y0088659D01*
X0218348Y0088843D01*
X0218348Y0089210D01*
X0218532Y0089393D01*
X0218715Y0089393D01*
X0218899Y0089210D01*
X0218899Y0088843D01*
X0218715Y0088659D01*
X0217798Y0088843D02*
X0217798Y0089210D01*
X0217981Y0089393D01*
X0217798Y0089764D02*
X0218899Y0089764D01*
X0218532Y0090131D01*
X0218899Y0090498D01*
X0217798Y0090498D01*
X0217798Y0090869D02*
X0217798Y0091420D01*
X0217981Y0091603D01*
X0218715Y0091603D01*
X0218899Y0091420D01*
X0218899Y0090869D01*
X0217798Y0090869D01*
X0234677Y0081373D02*
X0235427Y0081373D01*
X0235678Y0081123D01*
X0235678Y0080622D01*
X0235427Y0080372D01*
X0234677Y0080372D01*
X0235177Y0080372D02*
X0235678Y0079872D01*
X0236150Y0079872D02*
X0237151Y0080873D01*
X0237151Y0081123D01*
X0236901Y0081373D01*
X0236400Y0081373D01*
X0236150Y0081123D01*
X0236150Y0079872D02*
X0237151Y0079872D01*
X0237623Y0080122D02*
X0238624Y0081123D01*
X0238624Y0080122D01*
X0238374Y0079872D01*
X0237873Y0079872D01*
X0237623Y0080122D01*
X0237623Y0081123D01*
X0237873Y0081373D01*
X0238374Y0081373D01*
X0238624Y0081123D01*
X0239097Y0080873D02*
X0239597Y0081373D01*
X0239597Y0079872D01*
X0239097Y0079872D02*
X0240097Y0079872D01*
X0234677Y0079872D02*
X0234677Y0081373D01*
X0255304Y0085825D02*
X0255304Y0086575D01*
X0255554Y0086825D01*
X0256054Y0086825D01*
X0256305Y0086575D01*
X0256305Y0085825D01*
X0256305Y0086325D02*
X0256805Y0086825D01*
X0256805Y0087298D02*
X0255804Y0088299D01*
X0255554Y0088299D01*
X0255304Y0088048D01*
X0255304Y0087548D01*
X0255554Y0087298D01*
X0256805Y0087298D02*
X0256805Y0088299D01*
X0256555Y0088771D02*
X0255554Y0089772D01*
X0256555Y0089772D01*
X0256805Y0089522D01*
X0256805Y0089021D01*
X0256555Y0088771D01*
X0255554Y0088771D01*
X0255304Y0089021D01*
X0255304Y0089522D01*
X0255554Y0089772D01*
X0255554Y0090244D02*
X0255304Y0090494D01*
X0255304Y0090995D01*
X0255554Y0091245D01*
X0255804Y0091245D01*
X0256805Y0090244D01*
X0256805Y0091245D01*
X0256805Y0085825D02*
X0255304Y0085825D01*
X0243937Y0101614D02*
X0242936Y0101614D01*
X0243436Y0101614D02*
X0243436Y0103116D01*
X0242936Y0102615D01*
X0242463Y0102865D02*
X0241463Y0101864D01*
X0241713Y0101614D01*
X0242213Y0101614D01*
X0242463Y0101864D01*
X0242463Y0102865D01*
X0242213Y0103116D01*
X0241713Y0103116D01*
X0241463Y0102865D01*
X0241463Y0101864D01*
X0240990Y0101614D02*
X0239989Y0101614D01*
X0240990Y0102615D01*
X0240990Y0102865D01*
X0240740Y0103116D01*
X0240239Y0103116D01*
X0239989Y0102865D01*
X0239517Y0102865D02*
X0239267Y0103116D01*
X0238766Y0103116D01*
X0238516Y0102865D01*
X0238516Y0101864D01*
X0238766Y0101614D01*
X0239267Y0101614D01*
X0239517Y0101864D01*
X0240205Y0105417D02*
X0240205Y0106919D01*
X0240956Y0106919D01*
X0241206Y0106668D01*
X0241206Y0106168D01*
X0240956Y0105918D01*
X0240205Y0105918D01*
X0240705Y0105918D02*
X0241206Y0105417D01*
X0241678Y0105417D02*
X0242679Y0105417D01*
X0242179Y0105417D02*
X0242179Y0106919D01*
X0241678Y0106418D01*
X0243152Y0106668D02*
X0243152Y0105668D01*
X0244152Y0106668D01*
X0244152Y0105668D01*
X0243902Y0105417D01*
X0243402Y0105417D01*
X0243152Y0105668D01*
X0243152Y0106668D02*
X0243402Y0106919D01*
X0243902Y0106919D01*
X0244152Y0106668D01*
X0244625Y0106168D02*
X0245626Y0106168D01*
X0245375Y0105417D02*
X0245375Y0106919D01*
X0244625Y0106168D01*
X0229645Y0108701D02*
X0228644Y0108701D01*
X0229145Y0108701D02*
X0229145Y0110202D01*
X0228644Y0109702D01*
X0228172Y0109952D02*
X0227171Y0108951D01*
X0227421Y0108701D01*
X0227922Y0108701D01*
X0228172Y0108951D01*
X0228172Y0109952D01*
X0227922Y0110202D01*
X0227421Y0110202D01*
X0227171Y0109952D01*
X0227171Y0108951D01*
X0226699Y0108951D02*
X0226449Y0108701D01*
X0225948Y0108701D01*
X0225698Y0108951D01*
X0225226Y0108951D02*
X0224975Y0108701D01*
X0224475Y0108701D01*
X0224225Y0108951D01*
X0224225Y0109952D01*
X0224475Y0110202D01*
X0224975Y0110202D01*
X0225226Y0109952D01*
X0225698Y0110202D02*
X0225698Y0109452D01*
X0226198Y0109702D01*
X0226449Y0109702D01*
X0226699Y0109452D01*
X0226699Y0108951D01*
X0226699Y0110202D02*
X0225698Y0110202D01*
X0185551Y0079834D02*
X0185551Y0079584D01*
X0185301Y0079333D01*
X0185551Y0079083D01*
X0185551Y0078833D01*
X0185301Y0078583D01*
X0184800Y0078583D01*
X0184550Y0078833D01*
X0184078Y0078833D02*
X0183827Y0078583D01*
X0183327Y0078583D01*
X0183077Y0078833D01*
X0184078Y0079834D01*
X0184078Y0078833D01*
X0184078Y0079834D02*
X0183827Y0080084D01*
X0183327Y0080084D01*
X0183077Y0079834D01*
X0183077Y0078833D01*
X0182604Y0078833D02*
X0182604Y0079083D01*
X0182354Y0079333D01*
X0181603Y0079333D01*
X0181603Y0078833D01*
X0181854Y0078583D01*
X0182354Y0078583D01*
X0182604Y0078833D01*
X0182104Y0079834D02*
X0181603Y0079333D01*
X0181131Y0078833D02*
X0180881Y0078583D01*
X0180380Y0078583D01*
X0180130Y0078833D01*
X0180130Y0079834D01*
X0180380Y0080084D01*
X0180881Y0080084D01*
X0181131Y0079834D01*
X0182104Y0079834D02*
X0182604Y0080084D01*
X0184550Y0079834D02*
X0184800Y0080084D01*
X0185301Y0080084D01*
X0185551Y0079834D01*
X0185301Y0079333D02*
X0185050Y0079333D01*
X0173691Y0075861D02*
X0173691Y0074360D01*
X0173191Y0074360D02*
X0174192Y0074360D01*
X0173191Y0075361D02*
X0173691Y0075861D01*
X0172719Y0075611D02*
X0171718Y0074610D01*
X0171968Y0074360D01*
X0172468Y0074360D01*
X0172719Y0074610D01*
X0172719Y0075611D01*
X0172468Y0075861D01*
X0171968Y0075861D01*
X0171718Y0075611D01*
X0171718Y0074610D01*
X0171245Y0074610D02*
X0171245Y0074860D01*
X0170995Y0075111D01*
X0170245Y0075111D01*
X0170245Y0074610D01*
X0170495Y0074360D01*
X0170995Y0074360D01*
X0171245Y0074610D01*
X0170745Y0075611D02*
X0170245Y0075111D01*
X0170745Y0075611D02*
X0171245Y0075861D01*
X0169772Y0074360D02*
X0168771Y0074360D01*
X0168771Y0075861D01*
X0169075Y0082126D02*
X0168825Y0082376D01*
X0169826Y0083377D01*
X0169826Y0082376D01*
X0169575Y0082126D01*
X0169075Y0082126D01*
X0168825Y0082376D02*
X0168825Y0083377D01*
X0169075Y0083627D01*
X0169575Y0083627D01*
X0169826Y0083377D01*
X0170298Y0082877D02*
X0171299Y0082877D01*
X0171049Y0083627D02*
X0170298Y0082877D01*
X0171049Y0083627D02*
X0171049Y0082126D01*
X0168352Y0082126D02*
X0167351Y0082126D01*
X0167852Y0082126D02*
X0167852Y0083627D01*
X0167351Y0083127D01*
X0166879Y0083377D02*
X0166629Y0083627D01*
X0166128Y0083627D01*
X0165878Y0083377D01*
X0165878Y0082376D01*
X0166128Y0082126D01*
X0166629Y0082126D01*
X0166879Y0082376D01*
X0195051Y0071487D02*
X0195051Y0070487D01*
X0195302Y0070236D01*
X0195802Y0070236D01*
X0196052Y0070487D01*
X0196525Y0070487D02*
X0196775Y0070236D01*
X0197275Y0070236D01*
X0197526Y0070487D01*
X0197526Y0070737D01*
X0197275Y0070987D01*
X0196525Y0070987D01*
X0196525Y0070487D01*
X0196525Y0070987D02*
X0197025Y0071487D01*
X0197526Y0071738D01*
X0197998Y0071487D02*
X0197998Y0070487D01*
X0198999Y0071487D01*
X0198999Y0070487D01*
X0198749Y0070236D01*
X0198248Y0070236D01*
X0197998Y0070487D01*
X0197998Y0071487D02*
X0198248Y0071738D01*
X0198749Y0071738D01*
X0198999Y0071487D01*
X0199471Y0071487D02*
X0199721Y0071738D01*
X0200222Y0071738D01*
X0200472Y0071487D01*
X0200472Y0071237D01*
X0199471Y0070236D01*
X0200472Y0070236D01*
X0196052Y0071487D02*
X0195802Y0071738D01*
X0195302Y0071738D01*
X0195051Y0071487D01*
X0197966Y0057314D02*
X0197716Y0057064D01*
X0197716Y0056063D01*
X0197966Y0055813D01*
X0198467Y0055813D01*
X0198717Y0056063D01*
X0199189Y0055813D02*
X0200190Y0055813D01*
X0199690Y0055813D02*
X0199690Y0057314D01*
X0199189Y0056814D01*
X0198717Y0057064D02*
X0198467Y0057314D01*
X0197966Y0057314D01*
X0200663Y0057064D02*
X0200663Y0056063D01*
X0201663Y0057064D01*
X0201663Y0056063D01*
X0201413Y0055813D01*
X0200913Y0055813D01*
X0200663Y0056063D01*
X0200663Y0057064D02*
X0200913Y0057314D01*
X0201413Y0057314D01*
X0201663Y0057064D01*
X0202136Y0056563D02*
X0202887Y0056563D01*
X0203137Y0056313D01*
X0203137Y0056063D01*
X0202887Y0055813D01*
X0202386Y0055813D01*
X0202136Y0056063D01*
X0202136Y0056563D01*
X0202636Y0057064D01*
X0203137Y0057314D01*
X0223910Y0068406D02*
X0224660Y0068406D01*
X0224911Y0068656D01*
X0224911Y0069657D01*
X0224660Y0069907D01*
X0223910Y0069907D01*
X0223910Y0068406D01*
X0225383Y0068406D02*
X0226384Y0069406D01*
X0226384Y0069657D01*
X0226134Y0069907D01*
X0225633Y0069907D01*
X0225383Y0069657D01*
X0225383Y0068406D02*
X0226384Y0068406D01*
X0226856Y0068656D02*
X0227857Y0069657D01*
X0227857Y0068656D01*
X0227607Y0068406D01*
X0227106Y0068406D01*
X0226856Y0068656D01*
X0226856Y0069657D01*
X0227106Y0069907D01*
X0227607Y0069907D01*
X0227857Y0069657D01*
X0228329Y0069406D02*
X0228830Y0069907D01*
X0228830Y0068406D01*
X0229330Y0068406D02*
X0228329Y0068406D01*
X0245295Y0067590D02*
X0246296Y0067590D01*
X0245795Y0067590D02*
X0245795Y0066088D01*
X0246768Y0066839D02*
X0247769Y0066839D01*
X0247519Y0067590D02*
X0246768Y0066839D01*
X0247519Y0066088D02*
X0247519Y0067590D01*
X0252551Y0053420D02*
X0253301Y0053420D01*
X0253552Y0053170D01*
X0253552Y0052670D01*
X0253301Y0052419D01*
X0252551Y0052419D01*
X0252551Y0051919D02*
X0252551Y0053420D01*
X0253051Y0052419D02*
X0253552Y0051919D01*
X0254024Y0052169D02*
X0254274Y0051919D01*
X0254775Y0051919D01*
X0255025Y0052169D01*
X0255025Y0052419D01*
X0254775Y0052670D01*
X0254524Y0052670D01*
X0254775Y0052670D02*
X0255025Y0052920D01*
X0255025Y0053170D01*
X0254775Y0053420D01*
X0254274Y0053420D01*
X0254024Y0053170D01*
X0255497Y0053170D02*
X0255748Y0053420D01*
X0256248Y0053420D01*
X0256498Y0053170D01*
X0255497Y0052169D01*
X0255748Y0051919D01*
X0256248Y0051919D01*
X0256498Y0052169D01*
X0256498Y0053170D01*
X0256971Y0053170D02*
X0257221Y0053420D01*
X0257721Y0053420D01*
X0257971Y0053170D01*
X0257971Y0052920D01*
X0257721Y0052670D01*
X0257971Y0052419D01*
X0257971Y0052169D01*
X0257721Y0051919D01*
X0257221Y0051919D01*
X0256971Y0052169D01*
X0257471Y0052670D02*
X0257721Y0052670D01*
X0255497Y0052169D02*
X0255497Y0053170D01*
X0240216Y0053166D02*
X0239966Y0052916D01*
X0240216Y0052666D01*
X0240216Y0052416D01*
X0239966Y0052165D01*
X0239466Y0052165D01*
X0239215Y0052416D01*
X0239716Y0052916D02*
X0239966Y0052916D01*
X0240216Y0053166D02*
X0240216Y0053417D01*
X0239966Y0053667D01*
X0239466Y0053667D01*
X0239215Y0053417D01*
X0238743Y0053667D02*
X0237742Y0053667D01*
X0238242Y0053667D02*
X0238242Y0052165D01*
D12*
X0221711Y0069049D02*
X0220961Y0068299D01*
X0221711Y0069049D02*
X0221711Y0070550D01*
X0220961Y0071301D01*
X0219459Y0071301D01*
X0218709Y0070550D01*
X0218709Y0069800D01*
X0219459Y0068299D01*
X0217208Y0068299D01*
X0217208Y0071301D01*
X0229595Y0071688D02*
X0229595Y0078381D01*
X0234713Y0078381D01*
X0234713Y0071688D01*
X0229595Y0071688D01*
X0229792Y0076215D02*
X0234517Y0076215D01*
X0234517Y0076609D01*
X0229792Y0076609D01*
X0201643Y0077475D02*
X0196524Y0077475D01*
X0196524Y0084168D01*
X0201643Y0084168D01*
X0201643Y0077475D01*
X0201446Y0082003D02*
X0196721Y0082003D01*
X0196721Y0082397D02*
X0201446Y0082397D01*
X0201446Y0082003D01*
X0178682Y0056204D02*
X0164682Y0056204D01*
X0164682Y0050204D01*
X0178682Y0050204D01*
X0178682Y0056204D01*
X0120993Y0059444D02*
X0120993Y0047633D01*
X0102883Y0047633D01*
X0102883Y0059444D01*
X0120993Y0059444D01*
X0118828Y0059247D02*
X0118828Y0047830D01*
X0114635Y0074798D02*
X0108335Y0074798D01*
X0108335Y0085979D02*
X0114635Y0085979D01*
X0199208Y0109800D02*
X0203711Y0109800D01*
X0203711Y0108299D02*
X0203711Y0111301D01*
X0200709Y0108299D02*
X0199208Y0109800D01*
D13*
X0205461Y0107652D02*
X0205461Y0112652D01*
X0207961Y0115152D01*
X0212961Y0115152D01*
X0215461Y0112652D01*
X0215461Y0107652D01*
X0212961Y0105152D01*
X0215461Y0102652D01*
X0215461Y0097652D01*
X0212961Y0095152D01*
X0215461Y0092652D01*
X0215461Y0087652D01*
X0212961Y0085152D01*
X0215461Y0082652D01*
X0215461Y0077652D01*
X0212961Y0075152D01*
X0215461Y0072652D01*
X0215461Y0067652D01*
X0212961Y0065152D01*
X0207961Y0065152D01*
X0205461Y0067652D01*
X0205461Y0072652D01*
X0207961Y0075152D01*
X0205461Y0077652D01*
X0205461Y0082652D01*
X0207961Y0085152D01*
X0205461Y0087652D01*
X0205461Y0092652D01*
X0207961Y0095152D01*
X0205461Y0097652D01*
X0205461Y0102652D01*
X0207961Y0105152D01*
X0205461Y0107652D01*
X0193906Y0097278D02*
X0188906Y0097278D01*
X0186406Y0094778D01*
X0186406Y0089778D01*
X0188906Y0087278D01*
X0193906Y0087278D01*
X0196406Y0089778D01*
X0196406Y0094778D01*
X0193906Y0097278D01*
X0143146Y0052089D02*
X0139950Y0052089D01*
X0139950Y0049893D01*
X0139950Y0043089D02*
X0139950Y0040893D01*
X0143146Y0040893D01*
X0164076Y0042755D02*
X0164076Y0036605D01*
X0175276Y0036605D02*
X0175276Y0042755D01*
X0100568Y0070141D02*
X0100568Y0078341D01*
X0100568Y0088341D01*
X0100568Y0096541D01*
X0100566Y0096617D01*
X0100560Y0096693D01*
X0100551Y0096768D01*
X0100537Y0096843D01*
X0100520Y0096917D01*
X0100499Y0096990D01*
X0100475Y0097062D01*
X0100446Y0097133D01*
X0100415Y0097202D01*
X0100380Y0097269D01*
X0100341Y0097334D01*
X0100299Y0097398D01*
X0100254Y0097459D01*
X0100206Y0097518D01*
X0100155Y0097574D01*
X0100101Y0097628D01*
X0100045Y0097679D01*
X0099986Y0097727D01*
X0099925Y0097772D01*
X0099861Y0097814D01*
X0099796Y0097853D01*
X0099729Y0097888D01*
X0099660Y0097919D01*
X0099589Y0097948D01*
X0099517Y0097972D01*
X0099444Y0097993D01*
X0099370Y0098010D01*
X0099295Y0098024D01*
X0099220Y0098033D01*
X0099144Y0098039D01*
X0099068Y0098041D01*
X0031068Y0098041D01*
X0030992Y0098039D01*
X0030916Y0098033D01*
X0030841Y0098024D01*
X0030766Y0098010D01*
X0030692Y0097993D01*
X0030619Y0097972D01*
X0030547Y0097948D01*
X0030476Y0097919D01*
X0030407Y0097888D01*
X0030340Y0097853D01*
X0030275Y0097814D01*
X0030211Y0097772D01*
X0030150Y0097727D01*
X0030091Y0097679D01*
X0030035Y0097628D01*
X0029981Y0097574D01*
X0029930Y0097518D01*
X0029882Y0097459D01*
X0029837Y0097398D01*
X0029795Y0097334D01*
X0029756Y0097269D01*
X0029721Y0097202D01*
X0029690Y0097133D01*
X0029661Y0097062D01*
X0029637Y0096990D01*
X0029616Y0096917D01*
X0029599Y0096843D01*
X0029585Y0096768D01*
X0029576Y0096693D01*
X0029570Y0096617D01*
X0029568Y0096541D01*
X0029568Y0070141D01*
X0029570Y0070065D01*
X0029576Y0069989D01*
X0029585Y0069914D01*
X0029599Y0069839D01*
X0029616Y0069765D01*
X0029637Y0069692D01*
X0029661Y0069620D01*
X0029690Y0069549D01*
X0029721Y0069480D01*
X0029756Y0069413D01*
X0029795Y0069348D01*
X0029837Y0069284D01*
X0029882Y0069223D01*
X0029930Y0069164D01*
X0029981Y0069108D01*
X0030035Y0069054D01*
X0030091Y0069003D01*
X0030150Y0068955D01*
X0030211Y0068910D01*
X0030275Y0068868D01*
X0030340Y0068829D01*
X0030407Y0068794D01*
X0030476Y0068763D01*
X0030547Y0068734D01*
X0030619Y0068710D01*
X0030692Y0068689D01*
X0030766Y0068672D01*
X0030841Y0068658D01*
X0030916Y0068649D01*
X0030992Y0068643D01*
X0031068Y0068641D01*
X0099068Y0068641D01*
X0099144Y0068643D01*
X0099220Y0068649D01*
X0099295Y0068658D01*
X0099370Y0068672D01*
X0099444Y0068689D01*
X0099517Y0068710D01*
X0099589Y0068734D01*
X0099660Y0068763D01*
X0099729Y0068794D01*
X0099796Y0068829D01*
X0099861Y0068868D01*
X0099925Y0068910D01*
X0099986Y0068955D01*
X0100045Y0069003D01*
X0100101Y0069054D01*
X0100155Y0069108D01*
X0100206Y0069164D01*
X0100254Y0069223D01*
X0100299Y0069284D01*
X0100341Y0069348D01*
X0100380Y0069413D01*
X0100415Y0069480D01*
X0100446Y0069549D01*
X0100475Y0069620D01*
X0100499Y0069692D01*
X0100520Y0069765D01*
X0100537Y0069839D01*
X0100551Y0069914D01*
X0100560Y0069989D01*
X0100566Y0070065D01*
X0100568Y0070141D01*
X0100568Y0078341D02*
X0100428Y0078343D01*
X0100288Y0078349D01*
X0100148Y0078359D01*
X0100008Y0078372D01*
X0099869Y0078390D01*
X0099730Y0078412D01*
X0099593Y0078437D01*
X0099455Y0078466D01*
X0099319Y0078499D01*
X0099184Y0078536D01*
X0099050Y0078577D01*
X0098917Y0078622D01*
X0098785Y0078670D01*
X0098655Y0078722D01*
X0098526Y0078777D01*
X0098399Y0078836D01*
X0098273Y0078899D01*
X0098149Y0078965D01*
X0098028Y0079034D01*
X0097908Y0079107D01*
X0097790Y0079184D01*
X0097675Y0079263D01*
X0097561Y0079346D01*
X0097451Y0079432D01*
X0097342Y0079521D01*
X0097236Y0079613D01*
X0097133Y0079708D01*
X0097032Y0079805D01*
X0096935Y0079906D01*
X0096840Y0080009D01*
X0096748Y0080115D01*
X0096659Y0080224D01*
X0096573Y0080334D01*
X0096490Y0080448D01*
X0096411Y0080563D01*
X0096334Y0080681D01*
X0096261Y0080801D01*
X0096192Y0080922D01*
X0096126Y0081046D01*
X0096063Y0081172D01*
X0096004Y0081299D01*
X0095949Y0081428D01*
X0095897Y0081558D01*
X0095849Y0081690D01*
X0095804Y0081823D01*
X0095763Y0081957D01*
X0095726Y0082092D01*
X0095693Y0082228D01*
X0095664Y0082366D01*
X0095639Y0082503D01*
X0095617Y0082642D01*
X0095599Y0082781D01*
X0095586Y0082921D01*
X0095576Y0083061D01*
X0095570Y0083201D01*
X0095568Y0083341D01*
X0095570Y0083481D01*
X0095576Y0083621D01*
X0095586Y0083761D01*
X0095599Y0083901D01*
X0095617Y0084040D01*
X0095639Y0084179D01*
X0095664Y0084316D01*
X0095693Y0084454D01*
X0095726Y0084590D01*
X0095763Y0084725D01*
X0095804Y0084859D01*
X0095849Y0084992D01*
X0095897Y0085124D01*
X0095949Y0085254D01*
X0096004Y0085383D01*
X0096063Y0085510D01*
X0096126Y0085636D01*
X0096192Y0085760D01*
X0096261Y0085881D01*
X0096334Y0086001D01*
X0096411Y0086119D01*
X0096490Y0086234D01*
X0096573Y0086348D01*
X0096659Y0086458D01*
X0096748Y0086567D01*
X0096840Y0086673D01*
X0096935Y0086776D01*
X0097032Y0086877D01*
X0097133Y0086974D01*
X0097236Y0087069D01*
X0097342Y0087161D01*
X0097451Y0087250D01*
X0097561Y0087336D01*
X0097675Y0087419D01*
X0097790Y0087498D01*
X0097908Y0087575D01*
X0098028Y0087648D01*
X0098149Y0087717D01*
X0098273Y0087783D01*
X0098399Y0087846D01*
X0098526Y0087905D01*
X0098655Y0087960D01*
X0098785Y0088012D01*
X0098917Y0088060D01*
X0099050Y0088105D01*
X0099184Y0088146D01*
X0099319Y0088183D01*
X0099455Y0088216D01*
X0099593Y0088245D01*
X0099730Y0088270D01*
X0099869Y0088292D01*
X0100008Y0088310D01*
X0100148Y0088323D01*
X0100288Y0088333D01*
X0100428Y0088339D01*
X0100568Y0088341D01*
X0025465Y0097389D02*
X0025465Y0073389D01*
X0025463Y0073229D01*
X0025457Y0073070D01*
X0025447Y0072911D01*
X0025434Y0072752D01*
X0025416Y0072593D01*
X0025395Y0072435D01*
X0025369Y0072278D01*
X0025340Y0072121D01*
X0025307Y0071965D01*
X0025270Y0071810D01*
X0025230Y0071655D01*
X0025185Y0071502D01*
X0025137Y0071350D01*
X0025085Y0071199D01*
X0025029Y0071050D01*
X0024970Y0070902D01*
X0024907Y0070755D01*
X0024841Y0070610D01*
X0024771Y0070467D01*
X0024697Y0070325D01*
X0024621Y0070185D01*
X0024540Y0070047D01*
X0024457Y0069912D01*
X0024370Y0069778D01*
X0024279Y0069646D01*
X0024186Y0069517D01*
X0024089Y0069390D01*
X0023990Y0069265D01*
X0023887Y0069143D01*
X0023781Y0069024D01*
X0023673Y0068907D01*
X0023561Y0068793D01*
X0023447Y0068681D01*
X0023330Y0068573D01*
X0023211Y0068467D01*
X0023089Y0068364D01*
X0022964Y0068265D01*
X0022837Y0068168D01*
X0022708Y0068075D01*
X0022576Y0067984D01*
X0022442Y0067897D01*
X0022307Y0067814D01*
X0022169Y0067733D01*
X0022029Y0067657D01*
X0021887Y0067583D01*
X0021744Y0067513D01*
X0021599Y0067447D01*
X0021452Y0067384D01*
X0021304Y0067325D01*
X0021155Y0067269D01*
X0021004Y0067217D01*
X0020852Y0067169D01*
X0020699Y0067124D01*
X0020544Y0067084D01*
X0020389Y0067047D01*
X0020233Y0067014D01*
X0020076Y0066985D01*
X0019919Y0066959D01*
X0019761Y0066938D01*
X0019602Y0066920D01*
X0019443Y0066907D01*
X0019284Y0066897D01*
X0019125Y0066891D01*
X0018965Y0066889D01*
X0018805Y0066891D01*
X0018646Y0066897D01*
X0018487Y0066907D01*
X0018328Y0066920D01*
X0018169Y0066938D01*
X0018011Y0066959D01*
X0017854Y0066985D01*
X0017697Y0067014D01*
X0017541Y0067047D01*
X0017386Y0067084D01*
X0017231Y0067124D01*
X0017078Y0067169D01*
X0016926Y0067217D01*
X0016775Y0067269D01*
X0016626Y0067325D01*
X0016478Y0067384D01*
X0016331Y0067447D01*
X0016186Y0067513D01*
X0016043Y0067583D01*
X0015901Y0067657D01*
X0015761Y0067733D01*
X0015623Y0067814D01*
X0015488Y0067897D01*
X0015354Y0067984D01*
X0015222Y0068075D01*
X0015093Y0068168D01*
X0014966Y0068265D01*
X0014841Y0068364D01*
X0014719Y0068467D01*
X0014600Y0068573D01*
X0014483Y0068681D01*
X0014369Y0068793D01*
X0014257Y0068907D01*
X0014149Y0069024D01*
X0014043Y0069143D01*
X0013940Y0069265D01*
X0013841Y0069390D01*
X0013744Y0069517D01*
X0013651Y0069646D01*
X0013560Y0069778D01*
X0013473Y0069912D01*
X0013390Y0070047D01*
X0013309Y0070185D01*
X0013233Y0070325D01*
X0013159Y0070467D01*
X0013089Y0070610D01*
X0013023Y0070755D01*
X0012960Y0070902D01*
X0012901Y0071050D01*
X0012845Y0071199D01*
X0012793Y0071350D01*
X0012745Y0071502D01*
X0012700Y0071655D01*
X0012660Y0071810D01*
X0012623Y0071965D01*
X0012590Y0072121D01*
X0012561Y0072278D01*
X0012535Y0072435D01*
X0012514Y0072593D01*
X0012496Y0072752D01*
X0012483Y0072911D01*
X0012473Y0073070D01*
X0012467Y0073229D01*
X0012465Y0073389D01*
X0012465Y0097389D01*
X0012467Y0097549D01*
X0012473Y0097708D01*
X0012483Y0097867D01*
X0012496Y0098026D01*
X0012514Y0098185D01*
X0012535Y0098343D01*
X0012561Y0098500D01*
X0012590Y0098657D01*
X0012623Y0098813D01*
X0012660Y0098968D01*
X0012700Y0099123D01*
X0012745Y0099276D01*
X0012793Y0099428D01*
X0012845Y0099579D01*
X0012901Y0099728D01*
X0012960Y0099876D01*
X0013023Y0100023D01*
X0013089Y0100168D01*
X0013159Y0100311D01*
X0013233Y0100453D01*
X0013309Y0100593D01*
X0013390Y0100731D01*
X0013473Y0100866D01*
X0013560Y0101000D01*
X0013651Y0101132D01*
X0013744Y0101261D01*
X0013841Y0101388D01*
X0013940Y0101513D01*
X0014043Y0101635D01*
X0014149Y0101754D01*
X0014257Y0101871D01*
X0014369Y0101985D01*
X0014483Y0102097D01*
X0014600Y0102205D01*
X0014719Y0102311D01*
X0014841Y0102414D01*
X0014966Y0102513D01*
X0015093Y0102610D01*
X0015222Y0102703D01*
X0015354Y0102794D01*
X0015488Y0102881D01*
X0015623Y0102964D01*
X0015761Y0103045D01*
X0015901Y0103121D01*
X0016043Y0103195D01*
X0016186Y0103265D01*
X0016331Y0103331D01*
X0016478Y0103394D01*
X0016626Y0103453D01*
X0016775Y0103509D01*
X0016926Y0103561D01*
X0017078Y0103609D01*
X0017231Y0103654D01*
X0017386Y0103694D01*
X0017541Y0103731D01*
X0017697Y0103764D01*
X0017854Y0103793D01*
X0018011Y0103819D01*
X0018169Y0103840D01*
X0018328Y0103858D01*
X0018487Y0103871D01*
X0018646Y0103881D01*
X0018805Y0103887D01*
X0018965Y0103889D01*
X0019125Y0103887D01*
X0019284Y0103881D01*
X0019443Y0103871D01*
X0019602Y0103858D01*
X0019761Y0103840D01*
X0019919Y0103819D01*
X0020076Y0103793D01*
X0020233Y0103764D01*
X0020389Y0103731D01*
X0020544Y0103694D01*
X0020699Y0103654D01*
X0020852Y0103609D01*
X0021004Y0103561D01*
X0021155Y0103509D01*
X0021304Y0103453D01*
X0021452Y0103394D01*
X0021599Y0103331D01*
X0021744Y0103265D01*
X0021887Y0103195D01*
X0022029Y0103121D01*
X0022169Y0103045D01*
X0022307Y0102964D01*
X0022442Y0102881D01*
X0022576Y0102794D01*
X0022708Y0102703D01*
X0022837Y0102610D01*
X0022964Y0102513D01*
X0023089Y0102414D01*
X0023211Y0102311D01*
X0023330Y0102205D01*
X0023447Y0102097D01*
X0023561Y0101985D01*
X0023673Y0101871D01*
X0023781Y0101754D01*
X0023887Y0101635D01*
X0023990Y0101513D01*
X0024089Y0101388D01*
X0024186Y0101261D01*
X0024279Y0101132D01*
X0024370Y0101000D01*
X0024457Y0100866D01*
X0024540Y0100731D01*
X0024621Y0100593D01*
X0024697Y0100453D01*
X0024771Y0100311D01*
X0024841Y0100168D01*
X0024907Y0100023D01*
X0024970Y0099876D01*
X0025029Y0099728D01*
X0025085Y0099579D01*
X0025137Y0099428D01*
X0025185Y0099276D01*
X0025230Y0099123D01*
X0025270Y0098968D01*
X0025307Y0098813D01*
X0025340Y0098657D01*
X0025369Y0098500D01*
X0025395Y0098343D01*
X0025416Y0098185D01*
X0025434Y0098026D01*
X0025447Y0097867D01*
X0025457Y0097708D01*
X0025463Y0097549D01*
X0025465Y0097389D01*
X0018965Y0090389D02*
X0018965Y0087889D01*
X0021965Y0087889D01*
X0021965Y0086389D02*
X0021965Y0084389D01*
X0015965Y0084389D01*
X0015965Y0086389D01*
X0021965Y0086389D01*
X0018965Y0087889D02*
X0015965Y0087889D01*
X0015965Y0082889D02*
X0018965Y0082889D01*
X0018965Y0080389D01*
X0018965Y0082889D02*
X0021965Y0082889D01*
D14*
X0174202Y0041649D03*
D15*
X0177052Y0041752D02*
X0177052Y0042920D01*
X0177986Y0042920D02*
X0177986Y0041752D01*
X0177752Y0041519D01*
X0177285Y0041519D01*
X0177052Y0041752D01*
X0178525Y0041519D02*
X0179459Y0041519D01*
X0178992Y0041519D02*
X0178992Y0042920D01*
X0178525Y0042453D01*
X0249537Y0068875D02*
X0249537Y0069975D01*
X0249904Y0070342D01*
X0250638Y0070342D01*
X0251005Y0069975D01*
X0251005Y0068875D01*
X0251739Y0068875D02*
X0249537Y0068875D01*
X0249537Y0071084D02*
X0251739Y0071084D01*
X0251005Y0071818D01*
X0251739Y0072552D01*
X0249537Y0072552D01*
X0249537Y0073294D02*
X0249537Y0074395D01*
X0249904Y0074762D01*
X0250638Y0074762D01*
X0251005Y0074395D01*
X0251005Y0073294D01*
X0251005Y0074028D02*
X0251739Y0074762D01*
X0251739Y0073294D02*
X0249537Y0073294D01*
X0249419Y0093363D02*
X0250153Y0094097D01*
X0249419Y0094831D01*
X0251621Y0094831D01*
X0251621Y0095573D02*
X0250153Y0095573D01*
X0249419Y0096307D01*
X0250153Y0097040D01*
X0251621Y0097040D01*
X0251621Y0097782D02*
X0251621Y0098516D01*
X0251621Y0098149D02*
X0249419Y0098149D01*
X0249419Y0097782D02*
X0249419Y0098516D01*
X0249419Y0099256D02*
X0251621Y0100724D01*
X0249419Y0100724D01*
X0249419Y0099256D02*
X0251621Y0099256D01*
X0250520Y0097040D02*
X0250520Y0095573D01*
X0251621Y0093363D02*
X0249419Y0093363D01*
X0100568Y0096641D02*
X0029568Y0096641D01*
X0008759Y0088369D02*
X0008759Y0087434D01*
X0008759Y0087901D02*
X0007358Y0087901D01*
X0007825Y0087434D01*
X0007591Y0086895D02*
X0008526Y0086895D01*
X0008759Y0086662D01*
X0008759Y0086195D01*
X0008526Y0085961D01*
X0007591Y0085961D01*
X0007358Y0086195D01*
X0007358Y0086662D01*
X0007591Y0086895D01*
X0008292Y0086428D02*
X0008759Y0086895D01*
X0027246Y0065976D02*
X0027246Y0064809D01*
X0027480Y0064575D01*
X0027947Y0064575D01*
X0028181Y0064809D01*
X0028181Y0065976D01*
X0028720Y0065276D02*
X0029654Y0065276D01*
X0029420Y0065976D02*
X0028720Y0065276D01*
X0029420Y0065976D02*
X0029420Y0064575D01*
D16*
X0033139Y0049275D02*
X0037863Y0049275D01*
X0035501Y0045337D01*
X0033139Y0049275D01*
X0121957Y0083853D02*
X0162115Y0083853D01*
X0162115Y0104326D02*
X0121957Y0104326D01*
X0121957Y0083853D01*
D17*
X0255028Y0073538D03*
X0254556Y0100034D03*
D18*
X0097568Y0098291D03*
X0092568Y0098291D03*
X0087568Y0098291D03*
X0082568Y0098291D03*
X0077568Y0098291D03*
X0072568Y0098291D03*
X0067568Y0098291D03*
X0062568Y0098291D03*
X0057568Y0098291D03*
X0052568Y0098291D03*
X0047568Y0098291D03*
X0042568Y0098291D03*
X0037568Y0098291D03*
X0032568Y0098291D03*
X0032568Y0068391D03*
X0037568Y0068391D03*
X0042568Y0068391D03*
X0047568Y0068391D03*
X0052568Y0068391D03*
X0057568Y0068391D03*
X0062568Y0068391D03*
X0067568Y0068391D03*
X0072568Y0068391D03*
X0077568Y0068391D03*
X0082568Y0068391D03*
X0087568Y0068391D03*
X0092568Y0068391D03*
X0097568Y0068391D03*
D19*
X0027465Y0073389D02*
X0027465Y0097389D01*
X0027462Y0097596D01*
X0027455Y0097803D01*
X0027442Y0098009D01*
X0027425Y0098216D01*
X0027402Y0098421D01*
X0027374Y0098627D01*
X0027342Y0098831D01*
X0027304Y0099035D01*
X0027262Y0099237D01*
X0027214Y0099439D01*
X0027162Y0099639D01*
X0027105Y0099838D01*
X0027043Y0100035D01*
X0026976Y0100231D01*
X0026904Y0100425D01*
X0026828Y0100618D01*
X0026747Y0100808D01*
X0026661Y0100997D01*
X0026571Y0101183D01*
X0026477Y0101367D01*
X0026377Y0101549D01*
X0026274Y0101728D01*
X0026166Y0101905D01*
X0026054Y0102079D01*
X0025938Y0102250D01*
X0025817Y0102419D01*
X0025693Y0102584D01*
X0025564Y0102746D01*
X0025432Y0102905D01*
X0025296Y0103061D01*
X0025156Y0103214D01*
X0025012Y0103363D01*
X0024865Y0103508D01*
X0024714Y0103650D01*
X0024560Y0103788D01*
X0024402Y0103923D01*
X0024242Y0104053D01*
X0024078Y0104179D01*
X0023911Y0104302D01*
X0023741Y0104420D01*
X0023568Y0104535D01*
X0023393Y0104645D01*
X0023215Y0104750D01*
X0023034Y0104852D01*
X0022852Y0104948D01*
X0022666Y0105041D01*
X0022479Y0105129D01*
X0022289Y0105212D01*
X0022098Y0105291D01*
X0021905Y0105365D01*
X0021709Y0105434D01*
X0021513Y0105498D01*
X0021315Y0105558D01*
X0021115Y0105613D01*
X0020914Y0105663D01*
X0020712Y0105708D01*
X0020509Y0105748D01*
X0020305Y0105783D01*
X0020100Y0105813D01*
X0019895Y0105838D01*
X0019689Y0105858D01*
X0019482Y0105873D01*
X0019275Y0105883D01*
X0019068Y0105888D01*
X0018862Y0105888D01*
X0018655Y0105883D01*
X0018448Y0105873D01*
X0018241Y0105858D01*
X0018035Y0105838D01*
X0017830Y0105813D01*
X0017625Y0105783D01*
X0017421Y0105748D01*
X0017218Y0105708D01*
X0017016Y0105663D01*
X0016815Y0105613D01*
X0016615Y0105558D01*
X0016417Y0105498D01*
X0016221Y0105434D01*
X0016025Y0105365D01*
X0015832Y0105291D01*
X0015641Y0105212D01*
X0015451Y0105129D01*
X0015264Y0105041D01*
X0015078Y0104948D01*
X0014896Y0104852D01*
X0014715Y0104750D01*
X0014537Y0104645D01*
X0014362Y0104535D01*
X0014189Y0104420D01*
X0014019Y0104302D01*
X0013852Y0104179D01*
X0013688Y0104053D01*
X0013528Y0103923D01*
X0013370Y0103788D01*
X0013216Y0103650D01*
X0013065Y0103508D01*
X0012918Y0103363D01*
X0012774Y0103214D01*
X0012634Y0103061D01*
X0012498Y0102905D01*
X0012366Y0102746D01*
X0012237Y0102584D01*
X0012113Y0102419D01*
X0011992Y0102250D01*
X0011876Y0102079D01*
X0011764Y0101905D01*
X0011656Y0101728D01*
X0011553Y0101549D01*
X0011453Y0101367D01*
X0011359Y0101183D01*
X0011269Y0100997D01*
X0011183Y0100808D01*
X0011102Y0100618D01*
X0011026Y0100425D01*
X0010954Y0100231D01*
X0010887Y0100035D01*
X0010825Y0099838D01*
X0010768Y0099639D01*
X0010716Y0099439D01*
X0010668Y0099237D01*
X0010626Y0099035D01*
X0010588Y0098831D01*
X0010556Y0098627D01*
X0010528Y0098421D01*
X0010505Y0098216D01*
X0010488Y0098009D01*
X0010475Y0097803D01*
X0010468Y0097596D01*
X0010465Y0097389D01*
X0010465Y0073389D01*
X0010468Y0073182D01*
X0010475Y0072975D01*
X0010488Y0072769D01*
X0010505Y0072562D01*
X0010528Y0072357D01*
X0010556Y0072151D01*
X0010588Y0071947D01*
X0010626Y0071743D01*
X0010668Y0071541D01*
X0010716Y0071339D01*
X0010768Y0071139D01*
X0010825Y0070940D01*
X0010887Y0070743D01*
X0010954Y0070547D01*
X0011026Y0070353D01*
X0011102Y0070160D01*
X0011183Y0069970D01*
X0011269Y0069781D01*
X0011359Y0069595D01*
X0011453Y0069411D01*
X0011553Y0069229D01*
X0011656Y0069050D01*
X0011764Y0068873D01*
X0011876Y0068699D01*
X0011992Y0068528D01*
X0012113Y0068359D01*
X0012237Y0068194D01*
X0012366Y0068032D01*
X0012498Y0067873D01*
X0012634Y0067717D01*
X0012774Y0067564D01*
X0012918Y0067415D01*
X0013065Y0067270D01*
X0013216Y0067128D01*
X0013370Y0066990D01*
X0013528Y0066855D01*
X0013688Y0066725D01*
X0013852Y0066599D01*
X0014019Y0066476D01*
X0014189Y0066358D01*
X0014362Y0066243D01*
X0014537Y0066133D01*
X0014715Y0066028D01*
X0014896Y0065926D01*
X0015078Y0065830D01*
X0015264Y0065737D01*
X0015451Y0065649D01*
X0015641Y0065566D01*
X0015832Y0065487D01*
X0016025Y0065413D01*
X0016221Y0065344D01*
X0016417Y0065280D01*
X0016615Y0065220D01*
X0016815Y0065165D01*
X0017016Y0065115D01*
X0017218Y0065070D01*
X0017421Y0065030D01*
X0017625Y0064995D01*
X0017830Y0064965D01*
X0018035Y0064940D01*
X0018241Y0064920D01*
X0018448Y0064905D01*
X0018655Y0064895D01*
X0018862Y0064890D01*
X0019068Y0064890D01*
X0019275Y0064895D01*
X0019482Y0064905D01*
X0019689Y0064920D01*
X0019895Y0064940D01*
X0020100Y0064965D01*
X0020305Y0064995D01*
X0020509Y0065030D01*
X0020712Y0065070D01*
X0020914Y0065115D01*
X0021115Y0065165D01*
X0021315Y0065220D01*
X0021513Y0065280D01*
X0021709Y0065344D01*
X0021905Y0065413D01*
X0022098Y0065487D01*
X0022289Y0065566D01*
X0022479Y0065649D01*
X0022666Y0065737D01*
X0022852Y0065830D01*
X0023034Y0065926D01*
X0023215Y0066028D01*
X0023393Y0066133D01*
X0023568Y0066243D01*
X0023741Y0066358D01*
X0023911Y0066476D01*
X0024078Y0066599D01*
X0024242Y0066725D01*
X0024402Y0066855D01*
X0024560Y0066990D01*
X0024714Y0067128D01*
X0024865Y0067270D01*
X0025012Y0067415D01*
X0025156Y0067564D01*
X0025296Y0067717D01*
X0025432Y0067873D01*
X0025564Y0068032D01*
X0025693Y0068194D01*
X0025817Y0068359D01*
X0025938Y0068528D01*
X0026054Y0068699D01*
X0026166Y0068873D01*
X0026274Y0069050D01*
X0026377Y0069229D01*
X0026477Y0069411D01*
X0026571Y0069595D01*
X0026661Y0069781D01*
X0026747Y0069970D01*
X0026828Y0070160D01*
X0026904Y0070353D01*
X0026976Y0070547D01*
X0027043Y0070743D01*
X0027105Y0070940D01*
X0027162Y0071139D01*
X0027214Y0071339D01*
X0027262Y0071541D01*
X0027304Y0071743D01*
X0027342Y0071947D01*
X0027374Y0072151D01*
X0027402Y0072357D01*
X0027425Y0072562D01*
X0027442Y0072769D01*
X0027455Y0072975D01*
X0027462Y0073182D01*
X0027465Y0073389D01*
D20*
X0116564Y0080389D02*
X0116603Y0080389D01*
D21*
X0114083Y0075389D02*
X0108926Y0075389D01*
X0108926Y0085428D01*
X0114083Y0085428D01*
X0114083Y0075389D01*
D22*
X0035501Y0044606D03*
D23*
X0012135Y0039011D02*
X0012137Y0039158D01*
X0012143Y0039304D01*
X0012153Y0039450D01*
X0012167Y0039596D01*
X0012185Y0039742D01*
X0012206Y0039887D01*
X0012232Y0040031D01*
X0012262Y0040175D01*
X0012295Y0040317D01*
X0012332Y0040459D01*
X0012373Y0040600D01*
X0012418Y0040739D01*
X0012467Y0040878D01*
X0012519Y0041015D01*
X0012576Y0041150D01*
X0012635Y0041284D01*
X0012699Y0041416D01*
X0012766Y0041546D01*
X0012836Y0041675D01*
X0012910Y0041802D01*
X0012987Y0041926D01*
X0013068Y0042049D01*
X0013152Y0042169D01*
X0013239Y0042287D01*
X0013329Y0042402D01*
X0013422Y0042515D01*
X0013519Y0042626D01*
X0013618Y0042734D01*
X0013720Y0042839D01*
X0013825Y0042941D01*
X0013933Y0043040D01*
X0014044Y0043137D01*
X0014157Y0043230D01*
X0014272Y0043320D01*
X0014390Y0043407D01*
X0014510Y0043491D01*
X0014633Y0043572D01*
X0014757Y0043649D01*
X0014884Y0043723D01*
X0015013Y0043793D01*
X0015143Y0043860D01*
X0015275Y0043924D01*
X0015409Y0043983D01*
X0015544Y0044040D01*
X0015681Y0044092D01*
X0015820Y0044141D01*
X0015959Y0044186D01*
X0016100Y0044227D01*
X0016242Y0044264D01*
X0016384Y0044297D01*
X0016528Y0044327D01*
X0016672Y0044353D01*
X0016817Y0044374D01*
X0016963Y0044392D01*
X0017109Y0044406D01*
X0017255Y0044416D01*
X0017401Y0044422D01*
X0017548Y0044424D01*
X0017695Y0044422D01*
X0017841Y0044416D01*
X0017987Y0044406D01*
X0018133Y0044392D01*
X0018279Y0044374D01*
X0018424Y0044353D01*
X0018568Y0044327D01*
X0018712Y0044297D01*
X0018854Y0044264D01*
X0018996Y0044227D01*
X0019137Y0044186D01*
X0019276Y0044141D01*
X0019415Y0044092D01*
X0019552Y0044040D01*
X0019687Y0043983D01*
X0019821Y0043924D01*
X0019953Y0043860D01*
X0020083Y0043793D01*
X0020212Y0043723D01*
X0020339Y0043649D01*
X0020463Y0043572D01*
X0020586Y0043491D01*
X0020706Y0043407D01*
X0020824Y0043320D01*
X0020939Y0043230D01*
X0021052Y0043137D01*
X0021163Y0043040D01*
X0021271Y0042941D01*
X0021376Y0042839D01*
X0021478Y0042734D01*
X0021577Y0042626D01*
X0021674Y0042515D01*
X0021767Y0042402D01*
X0021857Y0042287D01*
X0021944Y0042169D01*
X0022028Y0042049D01*
X0022109Y0041926D01*
X0022186Y0041802D01*
X0022260Y0041675D01*
X0022330Y0041546D01*
X0022397Y0041416D01*
X0022461Y0041284D01*
X0022520Y0041150D01*
X0022577Y0041015D01*
X0022629Y0040878D01*
X0022678Y0040739D01*
X0022723Y0040600D01*
X0022764Y0040459D01*
X0022801Y0040317D01*
X0022834Y0040175D01*
X0022864Y0040031D01*
X0022890Y0039887D01*
X0022911Y0039742D01*
X0022929Y0039596D01*
X0022943Y0039450D01*
X0022953Y0039304D01*
X0022959Y0039158D01*
X0022961Y0039011D01*
X0022959Y0038864D01*
X0022953Y0038718D01*
X0022943Y0038572D01*
X0022929Y0038426D01*
X0022911Y0038280D01*
X0022890Y0038135D01*
X0022864Y0037991D01*
X0022834Y0037847D01*
X0022801Y0037705D01*
X0022764Y0037563D01*
X0022723Y0037422D01*
X0022678Y0037283D01*
X0022629Y0037144D01*
X0022577Y0037007D01*
X0022520Y0036872D01*
X0022461Y0036738D01*
X0022397Y0036606D01*
X0022330Y0036476D01*
X0022260Y0036347D01*
X0022186Y0036220D01*
X0022109Y0036096D01*
X0022028Y0035973D01*
X0021944Y0035853D01*
X0021857Y0035735D01*
X0021767Y0035620D01*
X0021674Y0035507D01*
X0021577Y0035396D01*
X0021478Y0035288D01*
X0021376Y0035183D01*
X0021271Y0035081D01*
X0021163Y0034982D01*
X0021052Y0034885D01*
X0020939Y0034792D01*
X0020824Y0034702D01*
X0020706Y0034615D01*
X0020586Y0034531D01*
X0020463Y0034450D01*
X0020339Y0034373D01*
X0020212Y0034299D01*
X0020083Y0034229D01*
X0019953Y0034162D01*
X0019821Y0034098D01*
X0019687Y0034039D01*
X0019552Y0033982D01*
X0019415Y0033930D01*
X0019276Y0033881D01*
X0019137Y0033836D01*
X0018996Y0033795D01*
X0018854Y0033758D01*
X0018712Y0033725D01*
X0018568Y0033695D01*
X0018424Y0033669D01*
X0018279Y0033648D01*
X0018133Y0033630D01*
X0017987Y0033616D01*
X0017841Y0033606D01*
X0017695Y0033600D01*
X0017548Y0033598D01*
X0017401Y0033600D01*
X0017255Y0033606D01*
X0017109Y0033616D01*
X0016963Y0033630D01*
X0016817Y0033648D01*
X0016672Y0033669D01*
X0016528Y0033695D01*
X0016384Y0033725D01*
X0016242Y0033758D01*
X0016100Y0033795D01*
X0015959Y0033836D01*
X0015820Y0033881D01*
X0015681Y0033930D01*
X0015544Y0033982D01*
X0015409Y0034039D01*
X0015275Y0034098D01*
X0015143Y0034162D01*
X0015013Y0034229D01*
X0014884Y0034299D01*
X0014757Y0034373D01*
X0014633Y0034450D01*
X0014510Y0034531D01*
X0014390Y0034615D01*
X0014272Y0034702D01*
X0014157Y0034792D01*
X0014044Y0034885D01*
X0013933Y0034982D01*
X0013825Y0035081D01*
X0013720Y0035183D01*
X0013618Y0035288D01*
X0013519Y0035396D01*
X0013422Y0035507D01*
X0013329Y0035620D01*
X0013239Y0035735D01*
X0013152Y0035853D01*
X0013068Y0035973D01*
X0012987Y0036096D01*
X0012910Y0036220D01*
X0012836Y0036347D01*
X0012766Y0036476D01*
X0012699Y0036606D01*
X0012635Y0036738D01*
X0012576Y0036872D01*
X0012519Y0037007D01*
X0012467Y0037144D01*
X0012418Y0037283D01*
X0012373Y0037422D01*
X0012332Y0037563D01*
X0012295Y0037705D01*
X0012262Y0037847D01*
X0012232Y0037991D01*
X0012206Y0038135D01*
X0012185Y0038280D01*
X0012167Y0038426D01*
X0012153Y0038572D01*
X0012143Y0038718D01*
X0012137Y0038864D01*
X0012135Y0039011D01*
X0109674Y0034483D02*
X0109676Y0034641D01*
X0109682Y0034799D01*
X0109692Y0034957D01*
X0109706Y0035115D01*
X0109724Y0035272D01*
X0109745Y0035429D01*
X0109771Y0035585D01*
X0109801Y0035741D01*
X0109834Y0035896D01*
X0109872Y0036049D01*
X0109913Y0036202D01*
X0109958Y0036354D01*
X0110007Y0036505D01*
X0110060Y0036654D01*
X0110116Y0036802D01*
X0110176Y0036948D01*
X0110240Y0037093D01*
X0110308Y0037236D01*
X0110379Y0037378D01*
X0110453Y0037518D01*
X0110531Y0037655D01*
X0110613Y0037791D01*
X0110697Y0037925D01*
X0110786Y0038056D01*
X0110877Y0038185D01*
X0110972Y0038312D01*
X0111069Y0038437D01*
X0111170Y0038559D01*
X0111274Y0038678D01*
X0111381Y0038795D01*
X0111491Y0038909D01*
X0111604Y0039020D01*
X0111719Y0039129D01*
X0111837Y0039234D01*
X0111958Y0039336D01*
X0112081Y0039436D01*
X0112207Y0039532D01*
X0112335Y0039625D01*
X0112465Y0039715D01*
X0112598Y0039801D01*
X0112733Y0039885D01*
X0112869Y0039964D01*
X0113008Y0040041D01*
X0113149Y0040113D01*
X0113291Y0040183D01*
X0113435Y0040248D01*
X0113581Y0040310D01*
X0113728Y0040368D01*
X0113877Y0040423D01*
X0114027Y0040474D01*
X0114178Y0040521D01*
X0114330Y0040564D01*
X0114483Y0040603D01*
X0114638Y0040639D01*
X0114793Y0040670D01*
X0114949Y0040698D01*
X0115105Y0040722D01*
X0115262Y0040742D01*
X0115420Y0040758D01*
X0115577Y0040770D01*
X0115736Y0040778D01*
X0115894Y0040782D01*
X0116052Y0040782D01*
X0116210Y0040778D01*
X0116369Y0040770D01*
X0116526Y0040758D01*
X0116684Y0040742D01*
X0116841Y0040722D01*
X0116997Y0040698D01*
X0117153Y0040670D01*
X0117308Y0040639D01*
X0117463Y0040603D01*
X0117616Y0040564D01*
X0117768Y0040521D01*
X0117919Y0040474D01*
X0118069Y0040423D01*
X0118218Y0040368D01*
X0118365Y0040310D01*
X0118511Y0040248D01*
X0118655Y0040183D01*
X0118797Y0040113D01*
X0118938Y0040041D01*
X0119077Y0039964D01*
X0119213Y0039885D01*
X0119348Y0039801D01*
X0119481Y0039715D01*
X0119611Y0039625D01*
X0119739Y0039532D01*
X0119865Y0039436D01*
X0119988Y0039336D01*
X0120109Y0039234D01*
X0120227Y0039129D01*
X0120342Y0039020D01*
X0120455Y0038909D01*
X0120565Y0038795D01*
X0120672Y0038678D01*
X0120776Y0038559D01*
X0120877Y0038437D01*
X0120974Y0038312D01*
X0121069Y0038185D01*
X0121160Y0038056D01*
X0121249Y0037925D01*
X0121333Y0037791D01*
X0121415Y0037655D01*
X0121493Y0037518D01*
X0121567Y0037378D01*
X0121638Y0037236D01*
X0121706Y0037093D01*
X0121770Y0036948D01*
X0121830Y0036802D01*
X0121886Y0036654D01*
X0121939Y0036505D01*
X0121988Y0036354D01*
X0122033Y0036202D01*
X0122074Y0036049D01*
X0122112Y0035896D01*
X0122145Y0035741D01*
X0122175Y0035585D01*
X0122201Y0035429D01*
X0122222Y0035272D01*
X0122240Y0035115D01*
X0122254Y0034957D01*
X0122264Y0034799D01*
X0122270Y0034641D01*
X0122272Y0034483D01*
X0122270Y0034325D01*
X0122264Y0034167D01*
X0122254Y0034009D01*
X0122240Y0033851D01*
X0122222Y0033694D01*
X0122201Y0033537D01*
X0122175Y0033381D01*
X0122145Y0033225D01*
X0122112Y0033070D01*
X0122074Y0032917D01*
X0122033Y0032764D01*
X0121988Y0032612D01*
X0121939Y0032461D01*
X0121886Y0032312D01*
X0121830Y0032164D01*
X0121770Y0032018D01*
X0121706Y0031873D01*
X0121638Y0031730D01*
X0121567Y0031588D01*
X0121493Y0031448D01*
X0121415Y0031311D01*
X0121333Y0031175D01*
X0121249Y0031041D01*
X0121160Y0030910D01*
X0121069Y0030781D01*
X0120974Y0030654D01*
X0120877Y0030529D01*
X0120776Y0030407D01*
X0120672Y0030288D01*
X0120565Y0030171D01*
X0120455Y0030057D01*
X0120342Y0029946D01*
X0120227Y0029837D01*
X0120109Y0029732D01*
X0119988Y0029630D01*
X0119865Y0029530D01*
X0119739Y0029434D01*
X0119611Y0029341D01*
X0119481Y0029251D01*
X0119348Y0029165D01*
X0119213Y0029081D01*
X0119077Y0029002D01*
X0118938Y0028925D01*
X0118797Y0028853D01*
X0118655Y0028783D01*
X0118511Y0028718D01*
X0118365Y0028656D01*
X0118218Y0028598D01*
X0118069Y0028543D01*
X0117919Y0028492D01*
X0117768Y0028445D01*
X0117616Y0028402D01*
X0117463Y0028363D01*
X0117308Y0028327D01*
X0117153Y0028296D01*
X0116997Y0028268D01*
X0116841Y0028244D01*
X0116684Y0028224D01*
X0116526Y0028208D01*
X0116369Y0028196D01*
X0116210Y0028188D01*
X0116052Y0028184D01*
X0115894Y0028184D01*
X0115736Y0028188D01*
X0115577Y0028196D01*
X0115420Y0028208D01*
X0115262Y0028224D01*
X0115105Y0028244D01*
X0114949Y0028268D01*
X0114793Y0028296D01*
X0114638Y0028327D01*
X0114483Y0028363D01*
X0114330Y0028402D01*
X0114178Y0028445D01*
X0114027Y0028492D01*
X0113877Y0028543D01*
X0113728Y0028598D01*
X0113581Y0028656D01*
X0113435Y0028718D01*
X0113291Y0028783D01*
X0113149Y0028853D01*
X0113008Y0028925D01*
X0112869Y0029002D01*
X0112733Y0029081D01*
X0112598Y0029165D01*
X0112465Y0029251D01*
X0112335Y0029341D01*
X0112207Y0029434D01*
X0112081Y0029530D01*
X0111958Y0029630D01*
X0111837Y0029732D01*
X0111719Y0029837D01*
X0111604Y0029946D01*
X0111491Y0030057D01*
X0111381Y0030171D01*
X0111274Y0030288D01*
X0111170Y0030407D01*
X0111069Y0030529D01*
X0110972Y0030654D01*
X0110877Y0030781D01*
X0110786Y0030910D01*
X0110697Y0031041D01*
X0110613Y0031175D01*
X0110531Y0031311D01*
X0110453Y0031448D01*
X0110379Y0031588D01*
X0110308Y0031730D01*
X0110240Y0031873D01*
X0110176Y0032018D01*
X0110116Y0032164D01*
X0110060Y0032312D01*
X0110007Y0032461D01*
X0109958Y0032612D01*
X0109913Y0032764D01*
X0109872Y0032917D01*
X0109834Y0033070D01*
X0109801Y0033225D01*
X0109771Y0033381D01*
X0109745Y0033537D01*
X0109724Y0033694D01*
X0109706Y0033851D01*
X0109692Y0034009D01*
X0109682Y0034167D01*
X0109676Y0034325D01*
X0109674Y0034483D01*
X0214989Y0034483D02*
X0214991Y0034641D01*
X0214997Y0034799D01*
X0215007Y0034957D01*
X0215021Y0035115D01*
X0215039Y0035272D01*
X0215060Y0035429D01*
X0215086Y0035585D01*
X0215116Y0035741D01*
X0215149Y0035896D01*
X0215187Y0036049D01*
X0215228Y0036202D01*
X0215273Y0036354D01*
X0215322Y0036505D01*
X0215375Y0036654D01*
X0215431Y0036802D01*
X0215491Y0036948D01*
X0215555Y0037093D01*
X0215623Y0037236D01*
X0215694Y0037378D01*
X0215768Y0037518D01*
X0215846Y0037655D01*
X0215928Y0037791D01*
X0216012Y0037925D01*
X0216101Y0038056D01*
X0216192Y0038185D01*
X0216287Y0038312D01*
X0216384Y0038437D01*
X0216485Y0038559D01*
X0216589Y0038678D01*
X0216696Y0038795D01*
X0216806Y0038909D01*
X0216919Y0039020D01*
X0217034Y0039129D01*
X0217152Y0039234D01*
X0217273Y0039336D01*
X0217396Y0039436D01*
X0217522Y0039532D01*
X0217650Y0039625D01*
X0217780Y0039715D01*
X0217913Y0039801D01*
X0218048Y0039885D01*
X0218184Y0039964D01*
X0218323Y0040041D01*
X0218464Y0040113D01*
X0218606Y0040183D01*
X0218750Y0040248D01*
X0218896Y0040310D01*
X0219043Y0040368D01*
X0219192Y0040423D01*
X0219342Y0040474D01*
X0219493Y0040521D01*
X0219645Y0040564D01*
X0219798Y0040603D01*
X0219953Y0040639D01*
X0220108Y0040670D01*
X0220264Y0040698D01*
X0220420Y0040722D01*
X0220577Y0040742D01*
X0220735Y0040758D01*
X0220892Y0040770D01*
X0221051Y0040778D01*
X0221209Y0040782D01*
X0221367Y0040782D01*
X0221525Y0040778D01*
X0221684Y0040770D01*
X0221841Y0040758D01*
X0221999Y0040742D01*
X0222156Y0040722D01*
X0222312Y0040698D01*
X0222468Y0040670D01*
X0222623Y0040639D01*
X0222778Y0040603D01*
X0222931Y0040564D01*
X0223083Y0040521D01*
X0223234Y0040474D01*
X0223384Y0040423D01*
X0223533Y0040368D01*
X0223680Y0040310D01*
X0223826Y0040248D01*
X0223970Y0040183D01*
X0224112Y0040113D01*
X0224253Y0040041D01*
X0224392Y0039964D01*
X0224528Y0039885D01*
X0224663Y0039801D01*
X0224796Y0039715D01*
X0224926Y0039625D01*
X0225054Y0039532D01*
X0225180Y0039436D01*
X0225303Y0039336D01*
X0225424Y0039234D01*
X0225542Y0039129D01*
X0225657Y0039020D01*
X0225770Y0038909D01*
X0225880Y0038795D01*
X0225987Y0038678D01*
X0226091Y0038559D01*
X0226192Y0038437D01*
X0226289Y0038312D01*
X0226384Y0038185D01*
X0226475Y0038056D01*
X0226564Y0037925D01*
X0226648Y0037791D01*
X0226730Y0037655D01*
X0226808Y0037518D01*
X0226882Y0037378D01*
X0226953Y0037236D01*
X0227021Y0037093D01*
X0227085Y0036948D01*
X0227145Y0036802D01*
X0227201Y0036654D01*
X0227254Y0036505D01*
X0227303Y0036354D01*
X0227348Y0036202D01*
X0227389Y0036049D01*
X0227427Y0035896D01*
X0227460Y0035741D01*
X0227490Y0035585D01*
X0227516Y0035429D01*
X0227537Y0035272D01*
X0227555Y0035115D01*
X0227569Y0034957D01*
X0227579Y0034799D01*
X0227585Y0034641D01*
X0227587Y0034483D01*
X0227585Y0034325D01*
X0227579Y0034167D01*
X0227569Y0034009D01*
X0227555Y0033851D01*
X0227537Y0033694D01*
X0227516Y0033537D01*
X0227490Y0033381D01*
X0227460Y0033225D01*
X0227427Y0033070D01*
X0227389Y0032917D01*
X0227348Y0032764D01*
X0227303Y0032612D01*
X0227254Y0032461D01*
X0227201Y0032312D01*
X0227145Y0032164D01*
X0227085Y0032018D01*
X0227021Y0031873D01*
X0226953Y0031730D01*
X0226882Y0031588D01*
X0226808Y0031448D01*
X0226730Y0031311D01*
X0226648Y0031175D01*
X0226564Y0031041D01*
X0226475Y0030910D01*
X0226384Y0030781D01*
X0226289Y0030654D01*
X0226192Y0030529D01*
X0226091Y0030407D01*
X0225987Y0030288D01*
X0225880Y0030171D01*
X0225770Y0030057D01*
X0225657Y0029946D01*
X0225542Y0029837D01*
X0225424Y0029732D01*
X0225303Y0029630D01*
X0225180Y0029530D01*
X0225054Y0029434D01*
X0224926Y0029341D01*
X0224796Y0029251D01*
X0224663Y0029165D01*
X0224528Y0029081D01*
X0224392Y0029002D01*
X0224253Y0028925D01*
X0224112Y0028853D01*
X0223970Y0028783D01*
X0223826Y0028718D01*
X0223680Y0028656D01*
X0223533Y0028598D01*
X0223384Y0028543D01*
X0223234Y0028492D01*
X0223083Y0028445D01*
X0222931Y0028402D01*
X0222778Y0028363D01*
X0222623Y0028327D01*
X0222468Y0028296D01*
X0222312Y0028268D01*
X0222156Y0028244D01*
X0221999Y0028224D01*
X0221841Y0028208D01*
X0221684Y0028196D01*
X0221525Y0028188D01*
X0221367Y0028184D01*
X0221209Y0028184D01*
X0221051Y0028188D01*
X0220892Y0028196D01*
X0220735Y0028208D01*
X0220577Y0028224D01*
X0220420Y0028244D01*
X0220264Y0028268D01*
X0220108Y0028296D01*
X0219953Y0028327D01*
X0219798Y0028363D01*
X0219645Y0028402D01*
X0219493Y0028445D01*
X0219342Y0028492D01*
X0219192Y0028543D01*
X0219043Y0028598D01*
X0218896Y0028656D01*
X0218750Y0028718D01*
X0218606Y0028783D01*
X0218464Y0028853D01*
X0218323Y0028925D01*
X0218184Y0029002D01*
X0218048Y0029081D01*
X0217913Y0029165D01*
X0217780Y0029251D01*
X0217650Y0029341D01*
X0217522Y0029434D01*
X0217396Y0029530D01*
X0217273Y0029630D01*
X0217152Y0029732D01*
X0217034Y0029837D01*
X0216919Y0029946D01*
X0216806Y0030057D01*
X0216696Y0030171D01*
X0216589Y0030288D01*
X0216485Y0030407D01*
X0216384Y0030529D01*
X0216287Y0030654D01*
X0216192Y0030781D01*
X0216101Y0030910D01*
X0216012Y0031041D01*
X0215928Y0031175D01*
X0215846Y0031311D01*
X0215768Y0031448D01*
X0215694Y0031588D01*
X0215623Y0031730D01*
X0215555Y0031873D01*
X0215491Y0032018D01*
X0215431Y0032164D01*
X0215375Y0032312D01*
X0215322Y0032461D01*
X0215273Y0032612D01*
X0215228Y0032764D01*
X0215187Y0032917D01*
X0215149Y0033070D01*
X0215116Y0033225D01*
X0215086Y0033381D01*
X0215060Y0033537D01*
X0215039Y0033694D01*
X0215021Y0033851D01*
X0215007Y0034009D01*
X0214997Y0034167D01*
X0214991Y0034325D01*
X0214989Y0034483D01*
X0240481Y0039011D02*
X0240483Y0039158D01*
X0240489Y0039304D01*
X0240499Y0039450D01*
X0240513Y0039596D01*
X0240531Y0039742D01*
X0240552Y0039887D01*
X0240578Y0040031D01*
X0240608Y0040175D01*
X0240641Y0040317D01*
X0240678Y0040459D01*
X0240719Y0040600D01*
X0240764Y0040739D01*
X0240813Y0040878D01*
X0240865Y0041015D01*
X0240922Y0041150D01*
X0240981Y0041284D01*
X0241045Y0041416D01*
X0241112Y0041546D01*
X0241182Y0041675D01*
X0241256Y0041802D01*
X0241333Y0041926D01*
X0241414Y0042049D01*
X0241498Y0042169D01*
X0241585Y0042287D01*
X0241675Y0042402D01*
X0241768Y0042515D01*
X0241865Y0042626D01*
X0241964Y0042734D01*
X0242066Y0042839D01*
X0242171Y0042941D01*
X0242279Y0043040D01*
X0242390Y0043137D01*
X0242503Y0043230D01*
X0242618Y0043320D01*
X0242736Y0043407D01*
X0242856Y0043491D01*
X0242979Y0043572D01*
X0243103Y0043649D01*
X0243230Y0043723D01*
X0243359Y0043793D01*
X0243489Y0043860D01*
X0243621Y0043924D01*
X0243755Y0043983D01*
X0243890Y0044040D01*
X0244027Y0044092D01*
X0244166Y0044141D01*
X0244305Y0044186D01*
X0244446Y0044227D01*
X0244588Y0044264D01*
X0244730Y0044297D01*
X0244874Y0044327D01*
X0245018Y0044353D01*
X0245163Y0044374D01*
X0245309Y0044392D01*
X0245455Y0044406D01*
X0245601Y0044416D01*
X0245747Y0044422D01*
X0245894Y0044424D01*
X0246041Y0044422D01*
X0246187Y0044416D01*
X0246333Y0044406D01*
X0246479Y0044392D01*
X0246625Y0044374D01*
X0246770Y0044353D01*
X0246914Y0044327D01*
X0247058Y0044297D01*
X0247200Y0044264D01*
X0247342Y0044227D01*
X0247483Y0044186D01*
X0247622Y0044141D01*
X0247761Y0044092D01*
X0247898Y0044040D01*
X0248033Y0043983D01*
X0248167Y0043924D01*
X0248299Y0043860D01*
X0248429Y0043793D01*
X0248558Y0043723D01*
X0248685Y0043649D01*
X0248809Y0043572D01*
X0248932Y0043491D01*
X0249052Y0043407D01*
X0249170Y0043320D01*
X0249285Y0043230D01*
X0249398Y0043137D01*
X0249509Y0043040D01*
X0249617Y0042941D01*
X0249722Y0042839D01*
X0249824Y0042734D01*
X0249923Y0042626D01*
X0250020Y0042515D01*
X0250113Y0042402D01*
X0250203Y0042287D01*
X0250290Y0042169D01*
X0250374Y0042049D01*
X0250455Y0041926D01*
X0250532Y0041802D01*
X0250606Y0041675D01*
X0250676Y0041546D01*
X0250743Y0041416D01*
X0250807Y0041284D01*
X0250866Y0041150D01*
X0250923Y0041015D01*
X0250975Y0040878D01*
X0251024Y0040739D01*
X0251069Y0040600D01*
X0251110Y0040459D01*
X0251147Y0040317D01*
X0251180Y0040175D01*
X0251210Y0040031D01*
X0251236Y0039887D01*
X0251257Y0039742D01*
X0251275Y0039596D01*
X0251289Y0039450D01*
X0251299Y0039304D01*
X0251305Y0039158D01*
X0251307Y0039011D01*
X0251305Y0038864D01*
X0251299Y0038718D01*
X0251289Y0038572D01*
X0251275Y0038426D01*
X0251257Y0038280D01*
X0251236Y0038135D01*
X0251210Y0037991D01*
X0251180Y0037847D01*
X0251147Y0037705D01*
X0251110Y0037563D01*
X0251069Y0037422D01*
X0251024Y0037283D01*
X0250975Y0037144D01*
X0250923Y0037007D01*
X0250866Y0036872D01*
X0250807Y0036738D01*
X0250743Y0036606D01*
X0250676Y0036476D01*
X0250606Y0036347D01*
X0250532Y0036220D01*
X0250455Y0036096D01*
X0250374Y0035973D01*
X0250290Y0035853D01*
X0250203Y0035735D01*
X0250113Y0035620D01*
X0250020Y0035507D01*
X0249923Y0035396D01*
X0249824Y0035288D01*
X0249722Y0035183D01*
X0249617Y0035081D01*
X0249509Y0034982D01*
X0249398Y0034885D01*
X0249285Y0034792D01*
X0249170Y0034702D01*
X0249052Y0034615D01*
X0248932Y0034531D01*
X0248809Y0034450D01*
X0248685Y0034373D01*
X0248558Y0034299D01*
X0248429Y0034229D01*
X0248299Y0034162D01*
X0248167Y0034098D01*
X0248033Y0034039D01*
X0247898Y0033982D01*
X0247761Y0033930D01*
X0247622Y0033881D01*
X0247483Y0033836D01*
X0247342Y0033795D01*
X0247200Y0033758D01*
X0247058Y0033725D01*
X0246914Y0033695D01*
X0246770Y0033669D01*
X0246625Y0033648D01*
X0246479Y0033630D01*
X0246333Y0033616D01*
X0246187Y0033606D01*
X0246041Y0033600D01*
X0245894Y0033598D01*
X0245747Y0033600D01*
X0245601Y0033606D01*
X0245455Y0033616D01*
X0245309Y0033630D01*
X0245163Y0033648D01*
X0245018Y0033669D01*
X0244874Y0033695D01*
X0244730Y0033725D01*
X0244588Y0033758D01*
X0244446Y0033795D01*
X0244305Y0033836D01*
X0244166Y0033881D01*
X0244027Y0033930D01*
X0243890Y0033982D01*
X0243755Y0034039D01*
X0243621Y0034098D01*
X0243489Y0034162D01*
X0243359Y0034229D01*
X0243230Y0034299D01*
X0243103Y0034373D01*
X0242979Y0034450D01*
X0242856Y0034531D01*
X0242736Y0034615D01*
X0242618Y0034702D01*
X0242503Y0034792D01*
X0242390Y0034885D01*
X0242279Y0034982D01*
X0242171Y0035081D01*
X0242066Y0035183D01*
X0241964Y0035288D01*
X0241865Y0035396D01*
X0241768Y0035507D01*
X0241675Y0035620D01*
X0241585Y0035735D01*
X0241498Y0035853D01*
X0241414Y0035973D01*
X0241333Y0036096D01*
X0241256Y0036220D01*
X0241182Y0036347D01*
X0241112Y0036476D01*
X0241045Y0036606D01*
X0240981Y0036738D01*
X0240922Y0036872D01*
X0240865Y0037007D01*
X0240813Y0037144D01*
X0240764Y0037283D01*
X0240719Y0037422D01*
X0240678Y0037563D01*
X0240641Y0037705D01*
X0240608Y0037847D01*
X0240578Y0037991D01*
X0240552Y0038135D01*
X0240531Y0038280D01*
X0240513Y0038426D01*
X0240499Y0038572D01*
X0240489Y0038718D01*
X0240483Y0038864D01*
X0240481Y0039011D01*
X0240481Y0129562D02*
X0240483Y0129709D01*
X0240489Y0129855D01*
X0240499Y0130001D01*
X0240513Y0130147D01*
X0240531Y0130293D01*
X0240552Y0130438D01*
X0240578Y0130582D01*
X0240608Y0130726D01*
X0240641Y0130868D01*
X0240678Y0131010D01*
X0240719Y0131151D01*
X0240764Y0131290D01*
X0240813Y0131429D01*
X0240865Y0131566D01*
X0240922Y0131701D01*
X0240981Y0131835D01*
X0241045Y0131967D01*
X0241112Y0132097D01*
X0241182Y0132226D01*
X0241256Y0132353D01*
X0241333Y0132477D01*
X0241414Y0132600D01*
X0241498Y0132720D01*
X0241585Y0132838D01*
X0241675Y0132953D01*
X0241768Y0133066D01*
X0241865Y0133177D01*
X0241964Y0133285D01*
X0242066Y0133390D01*
X0242171Y0133492D01*
X0242279Y0133591D01*
X0242390Y0133688D01*
X0242503Y0133781D01*
X0242618Y0133871D01*
X0242736Y0133958D01*
X0242856Y0134042D01*
X0242979Y0134123D01*
X0243103Y0134200D01*
X0243230Y0134274D01*
X0243359Y0134344D01*
X0243489Y0134411D01*
X0243621Y0134475D01*
X0243755Y0134534D01*
X0243890Y0134591D01*
X0244027Y0134643D01*
X0244166Y0134692D01*
X0244305Y0134737D01*
X0244446Y0134778D01*
X0244588Y0134815D01*
X0244730Y0134848D01*
X0244874Y0134878D01*
X0245018Y0134904D01*
X0245163Y0134925D01*
X0245309Y0134943D01*
X0245455Y0134957D01*
X0245601Y0134967D01*
X0245747Y0134973D01*
X0245894Y0134975D01*
X0246041Y0134973D01*
X0246187Y0134967D01*
X0246333Y0134957D01*
X0246479Y0134943D01*
X0246625Y0134925D01*
X0246770Y0134904D01*
X0246914Y0134878D01*
X0247058Y0134848D01*
X0247200Y0134815D01*
X0247342Y0134778D01*
X0247483Y0134737D01*
X0247622Y0134692D01*
X0247761Y0134643D01*
X0247898Y0134591D01*
X0248033Y0134534D01*
X0248167Y0134475D01*
X0248299Y0134411D01*
X0248429Y0134344D01*
X0248558Y0134274D01*
X0248685Y0134200D01*
X0248809Y0134123D01*
X0248932Y0134042D01*
X0249052Y0133958D01*
X0249170Y0133871D01*
X0249285Y0133781D01*
X0249398Y0133688D01*
X0249509Y0133591D01*
X0249617Y0133492D01*
X0249722Y0133390D01*
X0249824Y0133285D01*
X0249923Y0133177D01*
X0250020Y0133066D01*
X0250113Y0132953D01*
X0250203Y0132838D01*
X0250290Y0132720D01*
X0250374Y0132600D01*
X0250455Y0132477D01*
X0250532Y0132353D01*
X0250606Y0132226D01*
X0250676Y0132097D01*
X0250743Y0131967D01*
X0250807Y0131835D01*
X0250866Y0131701D01*
X0250923Y0131566D01*
X0250975Y0131429D01*
X0251024Y0131290D01*
X0251069Y0131151D01*
X0251110Y0131010D01*
X0251147Y0130868D01*
X0251180Y0130726D01*
X0251210Y0130582D01*
X0251236Y0130438D01*
X0251257Y0130293D01*
X0251275Y0130147D01*
X0251289Y0130001D01*
X0251299Y0129855D01*
X0251305Y0129709D01*
X0251307Y0129562D01*
X0251305Y0129415D01*
X0251299Y0129269D01*
X0251289Y0129123D01*
X0251275Y0128977D01*
X0251257Y0128831D01*
X0251236Y0128686D01*
X0251210Y0128542D01*
X0251180Y0128398D01*
X0251147Y0128256D01*
X0251110Y0128114D01*
X0251069Y0127973D01*
X0251024Y0127834D01*
X0250975Y0127695D01*
X0250923Y0127558D01*
X0250866Y0127423D01*
X0250807Y0127289D01*
X0250743Y0127157D01*
X0250676Y0127027D01*
X0250606Y0126898D01*
X0250532Y0126771D01*
X0250455Y0126647D01*
X0250374Y0126524D01*
X0250290Y0126404D01*
X0250203Y0126286D01*
X0250113Y0126171D01*
X0250020Y0126058D01*
X0249923Y0125947D01*
X0249824Y0125839D01*
X0249722Y0125734D01*
X0249617Y0125632D01*
X0249509Y0125533D01*
X0249398Y0125436D01*
X0249285Y0125343D01*
X0249170Y0125253D01*
X0249052Y0125166D01*
X0248932Y0125082D01*
X0248809Y0125001D01*
X0248685Y0124924D01*
X0248558Y0124850D01*
X0248429Y0124780D01*
X0248299Y0124713D01*
X0248167Y0124649D01*
X0248033Y0124590D01*
X0247898Y0124533D01*
X0247761Y0124481D01*
X0247622Y0124432D01*
X0247483Y0124387D01*
X0247342Y0124346D01*
X0247200Y0124309D01*
X0247058Y0124276D01*
X0246914Y0124246D01*
X0246770Y0124220D01*
X0246625Y0124199D01*
X0246479Y0124181D01*
X0246333Y0124167D01*
X0246187Y0124157D01*
X0246041Y0124151D01*
X0245894Y0124149D01*
X0245747Y0124151D01*
X0245601Y0124157D01*
X0245455Y0124167D01*
X0245309Y0124181D01*
X0245163Y0124199D01*
X0245018Y0124220D01*
X0244874Y0124246D01*
X0244730Y0124276D01*
X0244588Y0124309D01*
X0244446Y0124346D01*
X0244305Y0124387D01*
X0244166Y0124432D01*
X0244027Y0124481D01*
X0243890Y0124533D01*
X0243755Y0124590D01*
X0243621Y0124649D01*
X0243489Y0124713D01*
X0243359Y0124780D01*
X0243230Y0124850D01*
X0243103Y0124924D01*
X0242979Y0125001D01*
X0242856Y0125082D01*
X0242736Y0125166D01*
X0242618Y0125253D01*
X0242503Y0125343D01*
X0242390Y0125436D01*
X0242279Y0125533D01*
X0242171Y0125632D01*
X0242066Y0125734D01*
X0241964Y0125839D01*
X0241865Y0125947D01*
X0241768Y0126058D01*
X0241675Y0126171D01*
X0241585Y0126286D01*
X0241498Y0126404D01*
X0241414Y0126524D01*
X0241333Y0126647D01*
X0241256Y0126771D01*
X0241182Y0126898D01*
X0241112Y0127027D01*
X0241045Y0127157D01*
X0240981Y0127289D01*
X0240922Y0127423D01*
X0240865Y0127558D01*
X0240813Y0127695D01*
X0240764Y0127834D01*
X0240719Y0127973D01*
X0240678Y0128114D01*
X0240641Y0128256D01*
X0240608Y0128398D01*
X0240578Y0128542D01*
X0240552Y0128686D01*
X0240531Y0128831D01*
X0240513Y0128977D01*
X0240499Y0129123D01*
X0240489Y0129269D01*
X0240483Y0129415D01*
X0240481Y0129562D01*
X0012135Y0129562D02*
X0012137Y0129709D01*
X0012143Y0129855D01*
X0012153Y0130001D01*
X0012167Y0130147D01*
X0012185Y0130293D01*
X0012206Y0130438D01*
X0012232Y0130582D01*
X0012262Y0130726D01*
X0012295Y0130868D01*
X0012332Y0131010D01*
X0012373Y0131151D01*
X0012418Y0131290D01*
X0012467Y0131429D01*
X0012519Y0131566D01*
X0012576Y0131701D01*
X0012635Y0131835D01*
X0012699Y0131967D01*
X0012766Y0132097D01*
X0012836Y0132226D01*
X0012910Y0132353D01*
X0012987Y0132477D01*
X0013068Y0132600D01*
X0013152Y0132720D01*
X0013239Y0132838D01*
X0013329Y0132953D01*
X0013422Y0133066D01*
X0013519Y0133177D01*
X0013618Y0133285D01*
X0013720Y0133390D01*
X0013825Y0133492D01*
X0013933Y0133591D01*
X0014044Y0133688D01*
X0014157Y0133781D01*
X0014272Y0133871D01*
X0014390Y0133958D01*
X0014510Y0134042D01*
X0014633Y0134123D01*
X0014757Y0134200D01*
X0014884Y0134274D01*
X0015013Y0134344D01*
X0015143Y0134411D01*
X0015275Y0134475D01*
X0015409Y0134534D01*
X0015544Y0134591D01*
X0015681Y0134643D01*
X0015820Y0134692D01*
X0015959Y0134737D01*
X0016100Y0134778D01*
X0016242Y0134815D01*
X0016384Y0134848D01*
X0016528Y0134878D01*
X0016672Y0134904D01*
X0016817Y0134925D01*
X0016963Y0134943D01*
X0017109Y0134957D01*
X0017255Y0134967D01*
X0017401Y0134973D01*
X0017548Y0134975D01*
X0017695Y0134973D01*
X0017841Y0134967D01*
X0017987Y0134957D01*
X0018133Y0134943D01*
X0018279Y0134925D01*
X0018424Y0134904D01*
X0018568Y0134878D01*
X0018712Y0134848D01*
X0018854Y0134815D01*
X0018996Y0134778D01*
X0019137Y0134737D01*
X0019276Y0134692D01*
X0019415Y0134643D01*
X0019552Y0134591D01*
X0019687Y0134534D01*
X0019821Y0134475D01*
X0019953Y0134411D01*
X0020083Y0134344D01*
X0020212Y0134274D01*
X0020339Y0134200D01*
X0020463Y0134123D01*
X0020586Y0134042D01*
X0020706Y0133958D01*
X0020824Y0133871D01*
X0020939Y0133781D01*
X0021052Y0133688D01*
X0021163Y0133591D01*
X0021271Y0133492D01*
X0021376Y0133390D01*
X0021478Y0133285D01*
X0021577Y0133177D01*
X0021674Y0133066D01*
X0021767Y0132953D01*
X0021857Y0132838D01*
X0021944Y0132720D01*
X0022028Y0132600D01*
X0022109Y0132477D01*
X0022186Y0132353D01*
X0022260Y0132226D01*
X0022330Y0132097D01*
X0022397Y0131967D01*
X0022461Y0131835D01*
X0022520Y0131701D01*
X0022577Y0131566D01*
X0022629Y0131429D01*
X0022678Y0131290D01*
X0022723Y0131151D01*
X0022764Y0131010D01*
X0022801Y0130868D01*
X0022834Y0130726D01*
X0022864Y0130582D01*
X0022890Y0130438D01*
X0022911Y0130293D01*
X0022929Y0130147D01*
X0022943Y0130001D01*
X0022953Y0129855D01*
X0022959Y0129709D01*
X0022961Y0129562D01*
X0022959Y0129415D01*
X0022953Y0129269D01*
X0022943Y0129123D01*
X0022929Y0128977D01*
X0022911Y0128831D01*
X0022890Y0128686D01*
X0022864Y0128542D01*
X0022834Y0128398D01*
X0022801Y0128256D01*
X0022764Y0128114D01*
X0022723Y0127973D01*
X0022678Y0127834D01*
X0022629Y0127695D01*
X0022577Y0127558D01*
X0022520Y0127423D01*
X0022461Y0127289D01*
X0022397Y0127157D01*
X0022330Y0127027D01*
X0022260Y0126898D01*
X0022186Y0126771D01*
X0022109Y0126647D01*
X0022028Y0126524D01*
X0021944Y0126404D01*
X0021857Y0126286D01*
X0021767Y0126171D01*
X0021674Y0126058D01*
X0021577Y0125947D01*
X0021478Y0125839D01*
X0021376Y0125734D01*
X0021271Y0125632D01*
X0021163Y0125533D01*
X0021052Y0125436D01*
X0020939Y0125343D01*
X0020824Y0125253D01*
X0020706Y0125166D01*
X0020586Y0125082D01*
X0020463Y0125001D01*
X0020339Y0124924D01*
X0020212Y0124850D01*
X0020083Y0124780D01*
X0019953Y0124713D01*
X0019821Y0124649D01*
X0019687Y0124590D01*
X0019552Y0124533D01*
X0019415Y0124481D01*
X0019276Y0124432D01*
X0019137Y0124387D01*
X0018996Y0124346D01*
X0018854Y0124309D01*
X0018712Y0124276D01*
X0018568Y0124246D01*
X0018424Y0124220D01*
X0018279Y0124199D01*
X0018133Y0124181D01*
X0017987Y0124167D01*
X0017841Y0124157D01*
X0017695Y0124151D01*
X0017548Y0124149D01*
X0017401Y0124151D01*
X0017255Y0124157D01*
X0017109Y0124167D01*
X0016963Y0124181D01*
X0016817Y0124199D01*
X0016672Y0124220D01*
X0016528Y0124246D01*
X0016384Y0124276D01*
X0016242Y0124309D01*
X0016100Y0124346D01*
X0015959Y0124387D01*
X0015820Y0124432D01*
X0015681Y0124481D01*
X0015544Y0124533D01*
X0015409Y0124590D01*
X0015275Y0124649D01*
X0015143Y0124713D01*
X0015013Y0124780D01*
X0014884Y0124850D01*
X0014757Y0124924D01*
X0014633Y0125001D01*
X0014510Y0125082D01*
X0014390Y0125166D01*
X0014272Y0125253D01*
X0014157Y0125343D01*
X0014044Y0125436D01*
X0013933Y0125533D01*
X0013825Y0125632D01*
X0013720Y0125734D01*
X0013618Y0125839D01*
X0013519Y0125947D01*
X0013422Y0126058D01*
X0013329Y0126171D01*
X0013239Y0126286D01*
X0013152Y0126404D01*
X0013068Y0126524D01*
X0012987Y0126647D01*
X0012910Y0126771D01*
X0012836Y0126898D01*
X0012766Y0127027D01*
X0012699Y0127157D01*
X0012635Y0127289D01*
X0012576Y0127423D01*
X0012519Y0127558D01*
X0012467Y0127695D01*
X0012418Y0127834D01*
X0012373Y0127973D01*
X0012332Y0128114D01*
X0012295Y0128256D01*
X0012262Y0128398D01*
X0012232Y0128542D01*
X0012206Y0128686D01*
X0012185Y0128831D01*
X0012167Y0128977D01*
X0012153Y0129123D01*
X0012143Y0129269D01*
X0012137Y0129415D01*
X0012135Y0129562D01*
M02*
