G75*
%MOIN*%
%OFA0B0*%
%FSLAX25Y25*%
%IPPOS*%
%LPD*%
%AMOC8*
5,1,8,0,0,1.08239X$1,22.5*
%
%ADD10C,0.01200*%
%ADD11C,0.06000*%
%ADD12C,0.04800*%
%ADD13C,0.00000*%
%ADD14C,0.04724*%
%ADD15OC8,0.07600*%
%ADD16R,0.07000X0.07000*%
%ADD17C,0.07000*%
%ADD18R,0.04724X0.04724*%
%ADD19C,0.01600*%
%ADD20OC8,0.03762*%
%ADD21C,0.04000*%
%ADD22C,0.03200*%
%ADD23R,0.03762X0.03762*%
D10*
X0015580Y0025231D02*
X0247863Y0025231D01*
X0248148Y0025234D01*
X0248434Y0025245D01*
X0248719Y0025262D01*
X0249003Y0025286D01*
X0249287Y0025317D01*
X0249570Y0025355D01*
X0249851Y0025400D01*
X0250132Y0025451D01*
X0250412Y0025509D01*
X0250690Y0025574D01*
X0250966Y0025646D01*
X0251240Y0025724D01*
X0251513Y0025809D01*
X0251783Y0025901D01*
X0252051Y0025999D01*
X0252317Y0026103D01*
X0252580Y0026214D01*
X0252840Y0026331D01*
X0253098Y0026454D01*
X0253352Y0026584D01*
X0253603Y0026720D01*
X0253851Y0026861D01*
X0254095Y0027009D01*
X0254336Y0027162D01*
X0254572Y0027322D01*
X0254805Y0027487D01*
X0255034Y0027657D01*
X0255259Y0027833D01*
X0255479Y0028015D01*
X0255695Y0028201D01*
X0255906Y0028393D01*
X0256113Y0028590D01*
X0256315Y0028792D01*
X0256512Y0028999D01*
X0256704Y0029210D01*
X0256890Y0029426D01*
X0257072Y0029646D01*
X0257248Y0029871D01*
X0257418Y0030100D01*
X0257583Y0030333D01*
X0257743Y0030569D01*
X0257896Y0030810D01*
X0258044Y0031054D01*
X0258185Y0031302D01*
X0258321Y0031553D01*
X0258451Y0031807D01*
X0258574Y0032065D01*
X0258691Y0032325D01*
X0258802Y0032588D01*
X0258906Y0032854D01*
X0259004Y0033122D01*
X0259096Y0033392D01*
X0259181Y0033665D01*
X0259259Y0033939D01*
X0259331Y0034215D01*
X0259396Y0034493D01*
X0259454Y0034773D01*
X0259505Y0035054D01*
X0259550Y0035335D01*
X0259588Y0035618D01*
X0259619Y0035902D01*
X0259643Y0036186D01*
X0259660Y0036471D01*
X0259671Y0036757D01*
X0259674Y0037042D01*
X0259674Y0131530D01*
X0259671Y0131815D01*
X0259660Y0132101D01*
X0259643Y0132386D01*
X0259619Y0132670D01*
X0259588Y0132954D01*
X0259550Y0133237D01*
X0259505Y0133518D01*
X0259454Y0133799D01*
X0259396Y0134079D01*
X0259331Y0134357D01*
X0259259Y0134633D01*
X0259181Y0134907D01*
X0259096Y0135180D01*
X0259004Y0135450D01*
X0258906Y0135718D01*
X0258802Y0135984D01*
X0258691Y0136247D01*
X0258574Y0136507D01*
X0258451Y0136765D01*
X0258321Y0137019D01*
X0258185Y0137270D01*
X0258044Y0137518D01*
X0257896Y0137762D01*
X0257743Y0138003D01*
X0257583Y0138239D01*
X0257418Y0138472D01*
X0257248Y0138701D01*
X0257072Y0138926D01*
X0256890Y0139146D01*
X0256704Y0139362D01*
X0256512Y0139573D01*
X0256315Y0139780D01*
X0256113Y0139982D01*
X0255906Y0140179D01*
X0255695Y0140371D01*
X0255479Y0140557D01*
X0255259Y0140739D01*
X0255034Y0140915D01*
X0254805Y0141085D01*
X0254572Y0141250D01*
X0254336Y0141410D01*
X0254095Y0141563D01*
X0253851Y0141711D01*
X0253603Y0141852D01*
X0253352Y0141988D01*
X0253098Y0142118D01*
X0252840Y0142241D01*
X0252580Y0142358D01*
X0252317Y0142469D01*
X0252051Y0142573D01*
X0251783Y0142671D01*
X0251513Y0142763D01*
X0251240Y0142848D01*
X0250966Y0142926D01*
X0250690Y0142998D01*
X0250412Y0143063D01*
X0250132Y0143121D01*
X0249851Y0143172D01*
X0249570Y0143217D01*
X0249287Y0143255D01*
X0249003Y0143286D01*
X0248719Y0143310D01*
X0248434Y0143327D01*
X0248148Y0143338D01*
X0247863Y0143341D01*
X0015580Y0143341D01*
X0015295Y0143338D01*
X0015009Y0143327D01*
X0014724Y0143310D01*
X0014440Y0143286D01*
X0014156Y0143255D01*
X0013873Y0143217D01*
X0013592Y0143172D01*
X0013311Y0143121D01*
X0013031Y0143063D01*
X0012753Y0142998D01*
X0012477Y0142926D01*
X0012203Y0142848D01*
X0011930Y0142763D01*
X0011660Y0142671D01*
X0011392Y0142573D01*
X0011126Y0142469D01*
X0010863Y0142358D01*
X0010603Y0142241D01*
X0010345Y0142118D01*
X0010091Y0141988D01*
X0009840Y0141852D01*
X0009592Y0141711D01*
X0009348Y0141563D01*
X0009107Y0141410D01*
X0008871Y0141250D01*
X0008638Y0141085D01*
X0008409Y0140915D01*
X0008184Y0140739D01*
X0007964Y0140557D01*
X0007748Y0140371D01*
X0007537Y0140179D01*
X0007330Y0139982D01*
X0007128Y0139780D01*
X0006931Y0139573D01*
X0006739Y0139362D01*
X0006553Y0139146D01*
X0006371Y0138926D01*
X0006195Y0138701D01*
X0006025Y0138472D01*
X0005860Y0138239D01*
X0005700Y0138003D01*
X0005547Y0137762D01*
X0005399Y0137518D01*
X0005258Y0137270D01*
X0005122Y0137019D01*
X0004992Y0136765D01*
X0004869Y0136507D01*
X0004752Y0136247D01*
X0004641Y0135984D01*
X0004537Y0135718D01*
X0004439Y0135450D01*
X0004347Y0135180D01*
X0004262Y0134907D01*
X0004184Y0134633D01*
X0004112Y0134357D01*
X0004047Y0134079D01*
X0003989Y0133799D01*
X0003938Y0133518D01*
X0003893Y0133237D01*
X0003855Y0132954D01*
X0003824Y0132670D01*
X0003800Y0132386D01*
X0003783Y0132101D01*
X0003772Y0131815D01*
X0003769Y0131530D01*
X0003769Y0037042D01*
X0003772Y0036757D01*
X0003783Y0036471D01*
X0003800Y0036186D01*
X0003824Y0035902D01*
X0003855Y0035618D01*
X0003893Y0035335D01*
X0003938Y0035054D01*
X0003989Y0034773D01*
X0004047Y0034493D01*
X0004112Y0034215D01*
X0004184Y0033939D01*
X0004262Y0033665D01*
X0004347Y0033392D01*
X0004439Y0033122D01*
X0004537Y0032854D01*
X0004641Y0032588D01*
X0004752Y0032325D01*
X0004869Y0032065D01*
X0004992Y0031807D01*
X0005122Y0031553D01*
X0005258Y0031302D01*
X0005399Y0031054D01*
X0005547Y0030810D01*
X0005700Y0030569D01*
X0005860Y0030333D01*
X0006025Y0030100D01*
X0006195Y0029871D01*
X0006371Y0029646D01*
X0006553Y0029426D01*
X0006739Y0029210D01*
X0006931Y0028999D01*
X0007128Y0028792D01*
X0007330Y0028590D01*
X0007537Y0028393D01*
X0007748Y0028201D01*
X0007964Y0028015D01*
X0008184Y0027833D01*
X0008409Y0027657D01*
X0008638Y0027487D01*
X0008871Y0027322D01*
X0009107Y0027162D01*
X0009348Y0027009D01*
X0009592Y0026861D01*
X0009840Y0026720D01*
X0010091Y0026584D01*
X0010345Y0026454D01*
X0010603Y0026331D01*
X0010863Y0026214D01*
X0011126Y0026103D01*
X0011392Y0025999D01*
X0011660Y0025901D01*
X0011930Y0025809D01*
X0012203Y0025724D01*
X0012477Y0025646D01*
X0012753Y0025574D01*
X0013031Y0025509D01*
X0013311Y0025451D01*
X0013592Y0025400D01*
X0013873Y0025355D01*
X0014156Y0025317D01*
X0014440Y0025286D01*
X0014724Y0025262D01*
X0015009Y0025245D01*
X0015295Y0025234D01*
X0015580Y0025231D01*
X0055540Y0048853D02*
X0068690Y0035704D01*
X0068690Y0035487D01*
X0055540Y0048853D02*
X0055540Y0114404D01*
X0061643Y0120507D01*
X0061643Y0128578D01*
X0062627Y0129562D01*
X0201013Y0129562D01*
X0201603Y0128971D01*
X0201603Y0121294D01*
X0204950Y0117948D01*
X0213020Y0117948D01*
X0189556Y0094129D02*
X0167154Y0094129D01*
X0165186Y0092160D01*
X0147469Y0092160D01*
X0143532Y0088223D01*
X0137627Y0088223D01*
X0136249Y0081727D02*
X0161052Y0081727D01*
X0169320Y0089995D01*
X0175422Y0089995D01*
X0197076Y0068341D01*
X0201406Y0068341D01*
X0208887Y0060861D01*
X0220894Y0065979D02*
X0227391Y0059483D01*
X0220894Y0065979D02*
X0220894Y0081727D01*
X0249438Y0081727D01*
X0250028Y0081137D01*
X0240776Y0088223D02*
X0238020Y0085467D01*
X0204556Y0085467D01*
X0203965Y0084877D01*
X0183690Y0084877D01*
X0180540Y0088026D01*
X0180540Y0091176D01*
X0179556Y0092160D01*
X0167745Y0092160D01*
X0165383Y0089798D01*
X0150422Y0089798D01*
X0148454Y0087830D01*
X0136249Y0081727D02*
X0128375Y0073853D01*
X0133690Y0072475D02*
X0133690Y0071688D01*
X0127391Y0065389D01*
X0114005Y0065389D01*
X0138808Y0054759D02*
X0142745Y0050822D01*
X0155343Y0050822D01*
X0162036Y0044129D01*
X0083690Y0088814D02*
X0082706Y0089798D01*
X0062233Y0089798D01*
X0086446Y0115586D02*
X0102194Y0099837D01*
X0119123Y0099837D01*
X0119910Y0092160D02*
X0121879Y0092160D01*
X0131721Y0102003D01*
X0135658Y0102003D01*
X0086446Y0115586D02*
X0086446Y0115782D01*
X0189556Y0094129D02*
X0191406Y0092278D01*
D11*
X0207461Y0090152D02*
X0213461Y0090152D01*
X0213461Y0100152D02*
X0207461Y0100152D01*
X0207461Y0110152D02*
X0213461Y0110152D01*
X0213461Y0080152D02*
X0207461Y0080152D01*
X0207461Y0070152D02*
X0213461Y0070152D01*
X0088690Y0038487D02*
X0088690Y0032487D01*
X0078690Y0032487D02*
X0078690Y0038487D01*
X0068690Y0038487D02*
X0068690Y0032487D01*
D12*
X0018965Y0075889D03*
X0018965Y0094889D03*
D13*
X0012135Y0129562D02*
X0012137Y0129709D01*
X0012143Y0129855D01*
X0012153Y0130001D01*
X0012167Y0130147D01*
X0012185Y0130293D01*
X0012206Y0130438D01*
X0012232Y0130582D01*
X0012262Y0130726D01*
X0012295Y0130868D01*
X0012332Y0131010D01*
X0012373Y0131151D01*
X0012418Y0131290D01*
X0012467Y0131429D01*
X0012519Y0131566D01*
X0012576Y0131701D01*
X0012635Y0131835D01*
X0012699Y0131967D01*
X0012766Y0132097D01*
X0012836Y0132226D01*
X0012910Y0132353D01*
X0012987Y0132477D01*
X0013068Y0132600D01*
X0013152Y0132720D01*
X0013239Y0132838D01*
X0013329Y0132953D01*
X0013422Y0133066D01*
X0013519Y0133177D01*
X0013618Y0133285D01*
X0013720Y0133390D01*
X0013825Y0133492D01*
X0013933Y0133591D01*
X0014044Y0133688D01*
X0014157Y0133781D01*
X0014272Y0133871D01*
X0014390Y0133958D01*
X0014510Y0134042D01*
X0014633Y0134123D01*
X0014757Y0134200D01*
X0014884Y0134274D01*
X0015013Y0134344D01*
X0015143Y0134411D01*
X0015275Y0134475D01*
X0015409Y0134534D01*
X0015544Y0134591D01*
X0015681Y0134643D01*
X0015820Y0134692D01*
X0015959Y0134737D01*
X0016100Y0134778D01*
X0016242Y0134815D01*
X0016384Y0134848D01*
X0016528Y0134878D01*
X0016672Y0134904D01*
X0016817Y0134925D01*
X0016963Y0134943D01*
X0017109Y0134957D01*
X0017255Y0134967D01*
X0017401Y0134973D01*
X0017548Y0134975D01*
X0017695Y0134973D01*
X0017841Y0134967D01*
X0017987Y0134957D01*
X0018133Y0134943D01*
X0018279Y0134925D01*
X0018424Y0134904D01*
X0018568Y0134878D01*
X0018712Y0134848D01*
X0018854Y0134815D01*
X0018996Y0134778D01*
X0019137Y0134737D01*
X0019276Y0134692D01*
X0019415Y0134643D01*
X0019552Y0134591D01*
X0019687Y0134534D01*
X0019821Y0134475D01*
X0019953Y0134411D01*
X0020083Y0134344D01*
X0020212Y0134274D01*
X0020339Y0134200D01*
X0020463Y0134123D01*
X0020586Y0134042D01*
X0020706Y0133958D01*
X0020824Y0133871D01*
X0020939Y0133781D01*
X0021052Y0133688D01*
X0021163Y0133591D01*
X0021271Y0133492D01*
X0021376Y0133390D01*
X0021478Y0133285D01*
X0021577Y0133177D01*
X0021674Y0133066D01*
X0021767Y0132953D01*
X0021857Y0132838D01*
X0021944Y0132720D01*
X0022028Y0132600D01*
X0022109Y0132477D01*
X0022186Y0132353D01*
X0022260Y0132226D01*
X0022330Y0132097D01*
X0022397Y0131967D01*
X0022461Y0131835D01*
X0022520Y0131701D01*
X0022577Y0131566D01*
X0022629Y0131429D01*
X0022678Y0131290D01*
X0022723Y0131151D01*
X0022764Y0131010D01*
X0022801Y0130868D01*
X0022834Y0130726D01*
X0022864Y0130582D01*
X0022890Y0130438D01*
X0022911Y0130293D01*
X0022929Y0130147D01*
X0022943Y0130001D01*
X0022953Y0129855D01*
X0022959Y0129709D01*
X0022961Y0129562D01*
X0022959Y0129415D01*
X0022953Y0129269D01*
X0022943Y0129123D01*
X0022929Y0128977D01*
X0022911Y0128831D01*
X0022890Y0128686D01*
X0022864Y0128542D01*
X0022834Y0128398D01*
X0022801Y0128256D01*
X0022764Y0128114D01*
X0022723Y0127973D01*
X0022678Y0127834D01*
X0022629Y0127695D01*
X0022577Y0127558D01*
X0022520Y0127423D01*
X0022461Y0127289D01*
X0022397Y0127157D01*
X0022330Y0127027D01*
X0022260Y0126898D01*
X0022186Y0126771D01*
X0022109Y0126647D01*
X0022028Y0126524D01*
X0021944Y0126404D01*
X0021857Y0126286D01*
X0021767Y0126171D01*
X0021674Y0126058D01*
X0021577Y0125947D01*
X0021478Y0125839D01*
X0021376Y0125734D01*
X0021271Y0125632D01*
X0021163Y0125533D01*
X0021052Y0125436D01*
X0020939Y0125343D01*
X0020824Y0125253D01*
X0020706Y0125166D01*
X0020586Y0125082D01*
X0020463Y0125001D01*
X0020339Y0124924D01*
X0020212Y0124850D01*
X0020083Y0124780D01*
X0019953Y0124713D01*
X0019821Y0124649D01*
X0019687Y0124590D01*
X0019552Y0124533D01*
X0019415Y0124481D01*
X0019276Y0124432D01*
X0019137Y0124387D01*
X0018996Y0124346D01*
X0018854Y0124309D01*
X0018712Y0124276D01*
X0018568Y0124246D01*
X0018424Y0124220D01*
X0018279Y0124199D01*
X0018133Y0124181D01*
X0017987Y0124167D01*
X0017841Y0124157D01*
X0017695Y0124151D01*
X0017548Y0124149D01*
X0017401Y0124151D01*
X0017255Y0124157D01*
X0017109Y0124167D01*
X0016963Y0124181D01*
X0016817Y0124199D01*
X0016672Y0124220D01*
X0016528Y0124246D01*
X0016384Y0124276D01*
X0016242Y0124309D01*
X0016100Y0124346D01*
X0015959Y0124387D01*
X0015820Y0124432D01*
X0015681Y0124481D01*
X0015544Y0124533D01*
X0015409Y0124590D01*
X0015275Y0124649D01*
X0015143Y0124713D01*
X0015013Y0124780D01*
X0014884Y0124850D01*
X0014757Y0124924D01*
X0014633Y0125001D01*
X0014510Y0125082D01*
X0014390Y0125166D01*
X0014272Y0125253D01*
X0014157Y0125343D01*
X0014044Y0125436D01*
X0013933Y0125533D01*
X0013825Y0125632D01*
X0013720Y0125734D01*
X0013618Y0125839D01*
X0013519Y0125947D01*
X0013422Y0126058D01*
X0013329Y0126171D01*
X0013239Y0126286D01*
X0013152Y0126404D01*
X0013068Y0126524D01*
X0012987Y0126647D01*
X0012910Y0126771D01*
X0012836Y0126898D01*
X0012766Y0127027D01*
X0012699Y0127157D01*
X0012635Y0127289D01*
X0012576Y0127423D01*
X0012519Y0127558D01*
X0012467Y0127695D01*
X0012418Y0127834D01*
X0012373Y0127973D01*
X0012332Y0128114D01*
X0012295Y0128256D01*
X0012262Y0128398D01*
X0012232Y0128542D01*
X0012206Y0128686D01*
X0012185Y0128831D01*
X0012167Y0128977D01*
X0012153Y0129123D01*
X0012143Y0129269D01*
X0012137Y0129415D01*
X0012135Y0129562D01*
X0012135Y0039011D02*
X0012137Y0039158D01*
X0012143Y0039304D01*
X0012153Y0039450D01*
X0012167Y0039596D01*
X0012185Y0039742D01*
X0012206Y0039887D01*
X0012232Y0040031D01*
X0012262Y0040175D01*
X0012295Y0040317D01*
X0012332Y0040459D01*
X0012373Y0040600D01*
X0012418Y0040739D01*
X0012467Y0040878D01*
X0012519Y0041015D01*
X0012576Y0041150D01*
X0012635Y0041284D01*
X0012699Y0041416D01*
X0012766Y0041546D01*
X0012836Y0041675D01*
X0012910Y0041802D01*
X0012987Y0041926D01*
X0013068Y0042049D01*
X0013152Y0042169D01*
X0013239Y0042287D01*
X0013329Y0042402D01*
X0013422Y0042515D01*
X0013519Y0042626D01*
X0013618Y0042734D01*
X0013720Y0042839D01*
X0013825Y0042941D01*
X0013933Y0043040D01*
X0014044Y0043137D01*
X0014157Y0043230D01*
X0014272Y0043320D01*
X0014390Y0043407D01*
X0014510Y0043491D01*
X0014633Y0043572D01*
X0014757Y0043649D01*
X0014884Y0043723D01*
X0015013Y0043793D01*
X0015143Y0043860D01*
X0015275Y0043924D01*
X0015409Y0043983D01*
X0015544Y0044040D01*
X0015681Y0044092D01*
X0015820Y0044141D01*
X0015959Y0044186D01*
X0016100Y0044227D01*
X0016242Y0044264D01*
X0016384Y0044297D01*
X0016528Y0044327D01*
X0016672Y0044353D01*
X0016817Y0044374D01*
X0016963Y0044392D01*
X0017109Y0044406D01*
X0017255Y0044416D01*
X0017401Y0044422D01*
X0017548Y0044424D01*
X0017695Y0044422D01*
X0017841Y0044416D01*
X0017987Y0044406D01*
X0018133Y0044392D01*
X0018279Y0044374D01*
X0018424Y0044353D01*
X0018568Y0044327D01*
X0018712Y0044297D01*
X0018854Y0044264D01*
X0018996Y0044227D01*
X0019137Y0044186D01*
X0019276Y0044141D01*
X0019415Y0044092D01*
X0019552Y0044040D01*
X0019687Y0043983D01*
X0019821Y0043924D01*
X0019953Y0043860D01*
X0020083Y0043793D01*
X0020212Y0043723D01*
X0020339Y0043649D01*
X0020463Y0043572D01*
X0020586Y0043491D01*
X0020706Y0043407D01*
X0020824Y0043320D01*
X0020939Y0043230D01*
X0021052Y0043137D01*
X0021163Y0043040D01*
X0021271Y0042941D01*
X0021376Y0042839D01*
X0021478Y0042734D01*
X0021577Y0042626D01*
X0021674Y0042515D01*
X0021767Y0042402D01*
X0021857Y0042287D01*
X0021944Y0042169D01*
X0022028Y0042049D01*
X0022109Y0041926D01*
X0022186Y0041802D01*
X0022260Y0041675D01*
X0022330Y0041546D01*
X0022397Y0041416D01*
X0022461Y0041284D01*
X0022520Y0041150D01*
X0022577Y0041015D01*
X0022629Y0040878D01*
X0022678Y0040739D01*
X0022723Y0040600D01*
X0022764Y0040459D01*
X0022801Y0040317D01*
X0022834Y0040175D01*
X0022864Y0040031D01*
X0022890Y0039887D01*
X0022911Y0039742D01*
X0022929Y0039596D01*
X0022943Y0039450D01*
X0022953Y0039304D01*
X0022959Y0039158D01*
X0022961Y0039011D01*
X0022959Y0038864D01*
X0022953Y0038718D01*
X0022943Y0038572D01*
X0022929Y0038426D01*
X0022911Y0038280D01*
X0022890Y0038135D01*
X0022864Y0037991D01*
X0022834Y0037847D01*
X0022801Y0037705D01*
X0022764Y0037563D01*
X0022723Y0037422D01*
X0022678Y0037283D01*
X0022629Y0037144D01*
X0022577Y0037007D01*
X0022520Y0036872D01*
X0022461Y0036738D01*
X0022397Y0036606D01*
X0022330Y0036476D01*
X0022260Y0036347D01*
X0022186Y0036220D01*
X0022109Y0036096D01*
X0022028Y0035973D01*
X0021944Y0035853D01*
X0021857Y0035735D01*
X0021767Y0035620D01*
X0021674Y0035507D01*
X0021577Y0035396D01*
X0021478Y0035288D01*
X0021376Y0035183D01*
X0021271Y0035081D01*
X0021163Y0034982D01*
X0021052Y0034885D01*
X0020939Y0034792D01*
X0020824Y0034702D01*
X0020706Y0034615D01*
X0020586Y0034531D01*
X0020463Y0034450D01*
X0020339Y0034373D01*
X0020212Y0034299D01*
X0020083Y0034229D01*
X0019953Y0034162D01*
X0019821Y0034098D01*
X0019687Y0034039D01*
X0019552Y0033982D01*
X0019415Y0033930D01*
X0019276Y0033881D01*
X0019137Y0033836D01*
X0018996Y0033795D01*
X0018854Y0033758D01*
X0018712Y0033725D01*
X0018568Y0033695D01*
X0018424Y0033669D01*
X0018279Y0033648D01*
X0018133Y0033630D01*
X0017987Y0033616D01*
X0017841Y0033606D01*
X0017695Y0033600D01*
X0017548Y0033598D01*
X0017401Y0033600D01*
X0017255Y0033606D01*
X0017109Y0033616D01*
X0016963Y0033630D01*
X0016817Y0033648D01*
X0016672Y0033669D01*
X0016528Y0033695D01*
X0016384Y0033725D01*
X0016242Y0033758D01*
X0016100Y0033795D01*
X0015959Y0033836D01*
X0015820Y0033881D01*
X0015681Y0033930D01*
X0015544Y0033982D01*
X0015409Y0034039D01*
X0015275Y0034098D01*
X0015143Y0034162D01*
X0015013Y0034229D01*
X0014884Y0034299D01*
X0014757Y0034373D01*
X0014633Y0034450D01*
X0014510Y0034531D01*
X0014390Y0034615D01*
X0014272Y0034702D01*
X0014157Y0034792D01*
X0014044Y0034885D01*
X0013933Y0034982D01*
X0013825Y0035081D01*
X0013720Y0035183D01*
X0013618Y0035288D01*
X0013519Y0035396D01*
X0013422Y0035507D01*
X0013329Y0035620D01*
X0013239Y0035735D01*
X0013152Y0035853D01*
X0013068Y0035973D01*
X0012987Y0036096D01*
X0012910Y0036220D01*
X0012836Y0036347D01*
X0012766Y0036476D01*
X0012699Y0036606D01*
X0012635Y0036738D01*
X0012576Y0036872D01*
X0012519Y0037007D01*
X0012467Y0037144D01*
X0012418Y0037283D01*
X0012373Y0037422D01*
X0012332Y0037563D01*
X0012295Y0037705D01*
X0012262Y0037847D01*
X0012232Y0037991D01*
X0012206Y0038135D01*
X0012185Y0038280D01*
X0012167Y0038426D01*
X0012153Y0038572D01*
X0012143Y0038718D01*
X0012137Y0038864D01*
X0012135Y0039011D01*
X0109674Y0034483D02*
X0109676Y0034641D01*
X0109682Y0034799D01*
X0109692Y0034957D01*
X0109706Y0035115D01*
X0109724Y0035272D01*
X0109745Y0035429D01*
X0109771Y0035585D01*
X0109801Y0035741D01*
X0109834Y0035896D01*
X0109872Y0036049D01*
X0109913Y0036202D01*
X0109958Y0036354D01*
X0110007Y0036505D01*
X0110060Y0036654D01*
X0110116Y0036802D01*
X0110176Y0036948D01*
X0110240Y0037093D01*
X0110308Y0037236D01*
X0110379Y0037378D01*
X0110453Y0037518D01*
X0110531Y0037655D01*
X0110613Y0037791D01*
X0110697Y0037925D01*
X0110786Y0038056D01*
X0110877Y0038185D01*
X0110972Y0038312D01*
X0111069Y0038437D01*
X0111170Y0038559D01*
X0111274Y0038678D01*
X0111381Y0038795D01*
X0111491Y0038909D01*
X0111604Y0039020D01*
X0111719Y0039129D01*
X0111837Y0039234D01*
X0111958Y0039336D01*
X0112081Y0039436D01*
X0112207Y0039532D01*
X0112335Y0039625D01*
X0112465Y0039715D01*
X0112598Y0039801D01*
X0112733Y0039885D01*
X0112869Y0039964D01*
X0113008Y0040041D01*
X0113149Y0040113D01*
X0113291Y0040183D01*
X0113435Y0040248D01*
X0113581Y0040310D01*
X0113728Y0040368D01*
X0113877Y0040423D01*
X0114027Y0040474D01*
X0114178Y0040521D01*
X0114330Y0040564D01*
X0114483Y0040603D01*
X0114638Y0040639D01*
X0114793Y0040670D01*
X0114949Y0040698D01*
X0115105Y0040722D01*
X0115262Y0040742D01*
X0115420Y0040758D01*
X0115577Y0040770D01*
X0115736Y0040778D01*
X0115894Y0040782D01*
X0116052Y0040782D01*
X0116210Y0040778D01*
X0116369Y0040770D01*
X0116526Y0040758D01*
X0116684Y0040742D01*
X0116841Y0040722D01*
X0116997Y0040698D01*
X0117153Y0040670D01*
X0117308Y0040639D01*
X0117463Y0040603D01*
X0117616Y0040564D01*
X0117768Y0040521D01*
X0117919Y0040474D01*
X0118069Y0040423D01*
X0118218Y0040368D01*
X0118365Y0040310D01*
X0118511Y0040248D01*
X0118655Y0040183D01*
X0118797Y0040113D01*
X0118938Y0040041D01*
X0119077Y0039964D01*
X0119213Y0039885D01*
X0119348Y0039801D01*
X0119481Y0039715D01*
X0119611Y0039625D01*
X0119739Y0039532D01*
X0119865Y0039436D01*
X0119988Y0039336D01*
X0120109Y0039234D01*
X0120227Y0039129D01*
X0120342Y0039020D01*
X0120455Y0038909D01*
X0120565Y0038795D01*
X0120672Y0038678D01*
X0120776Y0038559D01*
X0120877Y0038437D01*
X0120974Y0038312D01*
X0121069Y0038185D01*
X0121160Y0038056D01*
X0121249Y0037925D01*
X0121333Y0037791D01*
X0121415Y0037655D01*
X0121493Y0037518D01*
X0121567Y0037378D01*
X0121638Y0037236D01*
X0121706Y0037093D01*
X0121770Y0036948D01*
X0121830Y0036802D01*
X0121886Y0036654D01*
X0121939Y0036505D01*
X0121988Y0036354D01*
X0122033Y0036202D01*
X0122074Y0036049D01*
X0122112Y0035896D01*
X0122145Y0035741D01*
X0122175Y0035585D01*
X0122201Y0035429D01*
X0122222Y0035272D01*
X0122240Y0035115D01*
X0122254Y0034957D01*
X0122264Y0034799D01*
X0122270Y0034641D01*
X0122272Y0034483D01*
X0122270Y0034325D01*
X0122264Y0034167D01*
X0122254Y0034009D01*
X0122240Y0033851D01*
X0122222Y0033694D01*
X0122201Y0033537D01*
X0122175Y0033381D01*
X0122145Y0033225D01*
X0122112Y0033070D01*
X0122074Y0032917D01*
X0122033Y0032764D01*
X0121988Y0032612D01*
X0121939Y0032461D01*
X0121886Y0032312D01*
X0121830Y0032164D01*
X0121770Y0032018D01*
X0121706Y0031873D01*
X0121638Y0031730D01*
X0121567Y0031588D01*
X0121493Y0031448D01*
X0121415Y0031311D01*
X0121333Y0031175D01*
X0121249Y0031041D01*
X0121160Y0030910D01*
X0121069Y0030781D01*
X0120974Y0030654D01*
X0120877Y0030529D01*
X0120776Y0030407D01*
X0120672Y0030288D01*
X0120565Y0030171D01*
X0120455Y0030057D01*
X0120342Y0029946D01*
X0120227Y0029837D01*
X0120109Y0029732D01*
X0119988Y0029630D01*
X0119865Y0029530D01*
X0119739Y0029434D01*
X0119611Y0029341D01*
X0119481Y0029251D01*
X0119348Y0029165D01*
X0119213Y0029081D01*
X0119077Y0029002D01*
X0118938Y0028925D01*
X0118797Y0028853D01*
X0118655Y0028783D01*
X0118511Y0028718D01*
X0118365Y0028656D01*
X0118218Y0028598D01*
X0118069Y0028543D01*
X0117919Y0028492D01*
X0117768Y0028445D01*
X0117616Y0028402D01*
X0117463Y0028363D01*
X0117308Y0028327D01*
X0117153Y0028296D01*
X0116997Y0028268D01*
X0116841Y0028244D01*
X0116684Y0028224D01*
X0116526Y0028208D01*
X0116369Y0028196D01*
X0116210Y0028188D01*
X0116052Y0028184D01*
X0115894Y0028184D01*
X0115736Y0028188D01*
X0115577Y0028196D01*
X0115420Y0028208D01*
X0115262Y0028224D01*
X0115105Y0028244D01*
X0114949Y0028268D01*
X0114793Y0028296D01*
X0114638Y0028327D01*
X0114483Y0028363D01*
X0114330Y0028402D01*
X0114178Y0028445D01*
X0114027Y0028492D01*
X0113877Y0028543D01*
X0113728Y0028598D01*
X0113581Y0028656D01*
X0113435Y0028718D01*
X0113291Y0028783D01*
X0113149Y0028853D01*
X0113008Y0028925D01*
X0112869Y0029002D01*
X0112733Y0029081D01*
X0112598Y0029165D01*
X0112465Y0029251D01*
X0112335Y0029341D01*
X0112207Y0029434D01*
X0112081Y0029530D01*
X0111958Y0029630D01*
X0111837Y0029732D01*
X0111719Y0029837D01*
X0111604Y0029946D01*
X0111491Y0030057D01*
X0111381Y0030171D01*
X0111274Y0030288D01*
X0111170Y0030407D01*
X0111069Y0030529D01*
X0110972Y0030654D01*
X0110877Y0030781D01*
X0110786Y0030910D01*
X0110697Y0031041D01*
X0110613Y0031175D01*
X0110531Y0031311D01*
X0110453Y0031448D01*
X0110379Y0031588D01*
X0110308Y0031730D01*
X0110240Y0031873D01*
X0110176Y0032018D01*
X0110116Y0032164D01*
X0110060Y0032312D01*
X0110007Y0032461D01*
X0109958Y0032612D01*
X0109913Y0032764D01*
X0109872Y0032917D01*
X0109834Y0033070D01*
X0109801Y0033225D01*
X0109771Y0033381D01*
X0109745Y0033537D01*
X0109724Y0033694D01*
X0109706Y0033851D01*
X0109692Y0034009D01*
X0109682Y0034167D01*
X0109676Y0034325D01*
X0109674Y0034483D01*
X0214989Y0034483D02*
X0214991Y0034641D01*
X0214997Y0034799D01*
X0215007Y0034957D01*
X0215021Y0035115D01*
X0215039Y0035272D01*
X0215060Y0035429D01*
X0215086Y0035585D01*
X0215116Y0035741D01*
X0215149Y0035896D01*
X0215187Y0036049D01*
X0215228Y0036202D01*
X0215273Y0036354D01*
X0215322Y0036505D01*
X0215375Y0036654D01*
X0215431Y0036802D01*
X0215491Y0036948D01*
X0215555Y0037093D01*
X0215623Y0037236D01*
X0215694Y0037378D01*
X0215768Y0037518D01*
X0215846Y0037655D01*
X0215928Y0037791D01*
X0216012Y0037925D01*
X0216101Y0038056D01*
X0216192Y0038185D01*
X0216287Y0038312D01*
X0216384Y0038437D01*
X0216485Y0038559D01*
X0216589Y0038678D01*
X0216696Y0038795D01*
X0216806Y0038909D01*
X0216919Y0039020D01*
X0217034Y0039129D01*
X0217152Y0039234D01*
X0217273Y0039336D01*
X0217396Y0039436D01*
X0217522Y0039532D01*
X0217650Y0039625D01*
X0217780Y0039715D01*
X0217913Y0039801D01*
X0218048Y0039885D01*
X0218184Y0039964D01*
X0218323Y0040041D01*
X0218464Y0040113D01*
X0218606Y0040183D01*
X0218750Y0040248D01*
X0218896Y0040310D01*
X0219043Y0040368D01*
X0219192Y0040423D01*
X0219342Y0040474D01*
X0219493Y0040521D01*
X0219645Y0040564D01*
X0219798Y0040603D01*
X0219953Y0040639D01*
X0220108Y0040670D01*
X0220264Y0040698D01*
X0220420Y0040722D01*
X0220577Y0040742D01*
X0220735Y0040758D01*
X0220892Y0040770D01*
X0221051Y0040778D01*
X0221209Y0040782D01*
X0221367Y0040782D01*
X0221525Y0040778D01*
X0221684Y0040770D01*
X0221841Y0040758D01*
X0221999Y0040742D01*
X0222156Y0040722D01*
X0222312Y0040698D01*
X0222468Y0040670D01*
X0222623Y0040639D01*
X0222778Y0040603D01*
X0222931Y0040564D01*
X0223083Y0040521D01*
X0223234Y0040474D01*
X0223384Y0040423D01*
X0223533Y0040368D01*
X0223680Y0040310D01*
X0223826Y0040248D01*
X0223970Y0040183D01*
X0224112Y0040113D01*
X0224253Y0040041D01*
X0224392Y0039964D01*
X0224528Y0039885D01*
X0224663Y0039801D01*
X0224796Y0039715D01*
X0224926Y0039625D01*
X0225054Y0039532D01*
X0225180Y0039436D01*
X0225303Y0039336D01*
X0225424Y0039234D01*
X0225542Y0039129D01*
X0225657Y0039020D01*
X0225770Y0038909D01*
X0225880Y0038795D01*
X0225987Y0038678D01*
X0226091Y0038559D01*
X0226192Y0038437D01*
X0226289Y0038312D01*
X0226384Y0038185D01*
X0226475Y0038056D01*
X0226564Y0037925D01*
X0226648Y0037791D01*
X0226730Y0037655D01*
X0226808Y0037518D01*
X0226882Y0037378D01*
X0226953Y0037236D01*
X0227021Y0037093D01*
X0227085Y0036948D01*
X0227145Y0036802D01*
X0227201Y0036654D01*
X0227254Y0036505D01*
X0227303Y0036354D01*
X0227348Y0036202D01*
X0227389Y0036049D01*
X0227427Y0035896D01*
X0227460Y0035741D01*
X0227490Y0035585D01*
X0227516Y0035429D01*
X0227537Y0035272D01*
X0227555Y0035115D01*
X0227569Y0034957D01*
X0227579Y0034799D01*
X0227585Y0034641D01*
X0227587Y0034483D01*
X0227585Y0034325D01*
X0227579Y0034167D01*
X0227569Y0034009D01*
X0227555Y0033851D01*
X0227537Y0033694D01*
X0227516Y0033537D01*
X0227490Y0033381D01*
X0227460Y0033225D01*
X0227427Y0033070D01*
X0227389Y0032917D01*
X0227348Y0032764D01*
X0227303Y0032612D01*
X0227254Y0032461D01*
X0227201Y0032312D01*
X0227145Y0032164D01*
X0227085Y0032018D01*
X0227021Y0031873D01*
X0226953Y0031730D01*
X0226882Y0031588D01*
X0226808Y0031448D01*
X0226730Y0031311D01*
X0226648Y0031175D01*
X0226564Y0031041D01*
X0226475Y0030910D01*
X0226384Y0030781D01*
X0226289Y0030654D01*
X0226192Y0030529D01*
X0226091Y0030407D01*
X0225987Y0030288D01*
X0225880Y0030171D01*
X0225770Y0030057D01*
X0225657Y0029946D01*
X0225542Y0029837D01*
X0225424Y0029732D01*
X0225303Y0029630D01*
X0225180Y0029530D01*
X0225054Y0029434D01*
X0224926Y0029341D01*
X0224796Y0029251D01*
X0224663Y0029165D01*
X0224528Y0029081D01*
X0224392Y0029002D01*
X0224253Y0028925D01*
X0224112Y0028853D01*
X0223970Y0028783D01*
X0223826Y0028718D01*
X0223680Y0028656D01*
X0223533Y0028598D01*
X0223384Y0028543D01*
X0223234Y0028492D01*
X0223083Y0028445D01*
X0222931Y0028402D01*
X0222778Y0028363D01*
X0222623Y0028327D01*
X0222468Y0028296D01*
X0222312Y0028268D01*
X0222156Y0028244D01*
X0221999Y0028224D01*
X0221841Y0028208D01*
X0221684Y0028196D01*
X0221525Y0028188D01*
X0221367Y0028184D01*
X0221209Y0028184D01*
X0221051Y0028188D01*
X0220892Y0028196D01*
X0220735Y0028208D01*
X0220577Y0028224D01*
X0220420Y0028244D01*
X0220264Y0028268D01*
X0220108Y0028296D01*
X0219953Y0028327D01*
X0219798Y0028363D01*
X0219645Y0028402D01*
X0219493Y0028445D01*
X0219342Y0028492D01*
X0219192Y0028543D01*
X0219043Y0028598D01*
X0218896Y0028656D01*
X0218750Y0028718D01*
X0218606Y0028783D01*
X0218464Y0028853D01*
X0218323Y0028925D01*
X0218184Y0029002D01*
X0218048Y0029081D01*
X0217913Y0029165D01*
X0217780Y0029251D01*
X0217650Y0029341D01*
X0217522Y0029434D01*
X0217396Y0029530D01*
X0217273Y0029630D01*
X0217152Y0029732D01*
X0217034Y0029837D01*
X0216919Y0029946D01*
X0216806Y0030057D01*
X0216696Y0030171D01*
X0216589Y0030288D01*
X0216485Y0030407D01*
X0216384Y0030529D01*
X0216287Y0030654D01*
X0216192Y0030781D01*
X0216101Y0030910D01*
X0216012Y0031041D01*
X0215928Y0031175D01*
X0215846Y0031311D01*
X0215768Y0031448D01*
X0215694Y0031588D01*
X0215623Y0031730D01*
X0215555Y0031873D01*
X0215491Y0032018D01*
X0215431Y0032164D01*
X0215375Y0032312D01*
X0215322Y0032461D01*
X0215273Y0032612D01*
X0215228Y0032764D01*
X0215187Y0032917D01*
X0215149Y0033070D01*
X0215116Y0033225D01*
X0215086Y0033381D01*
X0215060Y0033537D01*
X0215039Y0033694D01*
X0215021Y0033851D01*
X0215007Y0034009D01*
X0214997Y0034167D01*
X0214991Y0034325D01*
X0214989Y0034483D01*
X0240481Y0039011D02*
X0240483Y0039158D01*
X0240489Y0039304D01*
X0240499Y0039450D01*
X0240513Y0039596D01*
X0240531Y0039742D01*
X0240552Y0039887D01*
X0240578Y0040031D01*
X0240608Y0040175D01*
X0240641Y0040317D01*
X0240678Y0040459D01*
X0240719Y0040600D01*
X0240764Y0040739D01*
X0240813Y0040878D01*
X0240865Y0041015D01*
X0240922Y0041150D01*
X0240981Y0041284D01*
X0241045Y0041416D01*
X0241112Y0041546D01*
X0241182Y0041675D01*
X0241256Y0041802D01*
X0241333Y0041926D01*
X0241414Y0042049D01*
X0241498Y0042169D01*
X0241585Y0042287D01*
X0241675Y0042402D01*
X0241768Y0042515D01*
X0241865Y0042626D01*
X0241964Y0042734D01*
X0242066Y0042839D01*
X0242171Y0042941D01*
X0242279Y0043040D01*
X0242390Y0043137D01*
X0242503Y0043230D01*
X0242618Y0043320D01*
X0242736Y0043407D01*
X0242856Y0043491D01*
X0242979Y0043572D01*
X0243103Y0043649D01*
X0243230Y0043723D01*
X0243359Y0043793D01*
X0243489Y0043860D01*
X0243621Y0043924D01*
X0243755Y0043983D01*
X0243890Y0044040D01*
X0244027Y0044092D01*
X0244166Y0044141D01*
X0244305Y0044186D01*
X0244446Y0044227D01*
X0244588Y0044264D01*
X0244730Y0044297D01*
X0244874Y0044327D01*
X0245018Y0044353D01*
X0245163Y0044374D01*
X0245309Y0044392D01*
X0245455Y0044406D01*
X0245601Y0044416D01*
X0245747Y0044422D01*
X0245894Y0044424D01*
X0246041Y0044422D01*
X0246187Y0044416D01*
X0246333Y0044406D01*
X0246479Y0044392D01*
X0246625Y0044374D01*
X0246770Y0044353D01*
X0246914Y0044327D01*
X0247058Y0044297D01*
X0247200Y0044264D01*
X0247342Y0044227D01*
X0247483Y0044186D01*
X0247622Y0044141D01*
X0247761Y0044092D01*
X0247898Y0044040D01*
X0248033Y0043983D01*
X0248167Y0043924D01*
X0248299Y0043860D01*
X0248429Y0043793D01*
X0248558Y0043723D01*
X0248685Y0043649D01*
X0248809Y0043572D01*
X0248932Y0043491D01*
X0249052Y0043407D01*
X0249170Y0043320D01*
X0249285Y0043230D01*
X0249398Y0043137D01*
X0249509Y0043040D01*
X0249617Y0042941D01*
X0249722Y0042839D01*
X0249824Y0042734D01*
X0249923Y0042626D01*
X0250020Y0042515D01*
X0250113Y0042402D01*
X0250203Y0042287D01*
X0250290Y0042169D01*
X0250374Y0042049D01*
X0250455Y0041926D01*
X0250532Y0041802D01*
X0250606Y0041675D01*
X0250676Y0041546D01*
X0250743Y0041416D01*
X0250807Y0041284D01*
X0250866Y0041150D01*
X0250923Y0041015D01*
X0250975Y0040878D01*
X0251024Y0040739D01*
X0251069Y0040600D01*
X0251110Y0040459D01*
X0251147Y0040317D01*
X0251180Y0040175D01*
X0251210Y0040031D01*
X0251236Y0039887D01*
X0251257Y0039742D01*
X0251275Y0039596D01*
X0251289Y0039450D01*
X0251299Y0039304D01*
X0251305Y0039158D01*
X0251307Y0039011D01*
X0251305Y0038864D01*
X0251299Y0038718D01*
X0251289Y0038572D01*
X0251275Y0038426D01*
X0251257Y0038280D01*
X0251236Y0038135D01*
X0251210Y0037991D01*
X0251180Y0037847D01*
X0251147Y0037705D01*
X0251110Y0037563D01*
X0251069Y0037422D01*
X0251024Y0037283D01*
X0250975Y0037144D01*
X0250923Y0037007D01*
X0250866Y0036872D01*
X0250807Y0036738D01*
X0250743Y0036606D01*
X0250676Y0036476D01*
X0250606Y0036347D01*
X0250532Y0036220D01*
X0250455Y0036096D01*
X0250374Y0035973D01*
X0250290Y0035853D01*
X0250203Y0035735D01*
X0250113Y0035620D01*
X0250020Y0035507D01*
X0249923Y0035396D01*
X0249824Y0035288D01*
X0249722Y0035183D01*
X0249617Y0035081D01*
X0249509Y0034982D01*
X0249398Y0034885D01*
X0249285Y0034792D01*
X0249170Y0034702D01*
X0249052Y0034615D01*
X0248932Y0034531D01*
X0248809Y0034450D01*
X0248685Y0034373D01*
X0248558Y0034299D01*
X0248429Y0034229D01*
X0248299Y0034162D01*
X0248167Y0034098D01*
X0248033Y0034039D01*
X0247898Y0033982D01*
X0247761Y0033930D01*
X0247622Y0033881D01*
X0247483Y0033836D01*
X0247342Y0033795D01*
X0247200Y0033758D01*
X0247058Y0033725D01*
X0246914Y0033695D01*
X0246770Y0033669D01*
X0246625Y0033648D01*
X0246479Y0033630D01*
X0246333Y0033616D01*
X0246187Y0033606D01*
X0246041Y0033600D01*
X0245894Y0033598D01*
X0245747Y0033600D01*
X0245601Y0033606D01*
X0245455Y0033616D01*
X0245309Y0033630D01*
X0245163Y0033648D01*
X0245018Y0033669D01*
X0244874Y0033695D01*
X0244730Y0033725D01*
X0244588Y0033758D01*
X0244446Y0033795D01*
X0244305Y0033836D01*
X0244166Y0033881D01*
X0244027Y0033930D01*
X0243890Y0033982D01*
X0243755Y0034039D01*
X0243621Y0034098D01*
X0243489Y0034162D01*
X0243359Y0034229D01*
X0243230Y0034299D01*
X0243103Y0034373D01*
X0242979Y0034450D01*
X0242856Y0034531D01*
X0242736Y0034615D01*
X0242618Y0034702D01*
X0242503Y0034792D01*
X0242390Y0034885D01*
X0242279Y0034982D01*
X0242171Y0035081D01*
X0242066Y0035183D01*
X0241964Y0035288D01*
X0241865Y0035396D01*
X0241768Y0035507D01*
X0241675Y0035620D01*
X0241585Y0035735D01*
X0241498Y0035853D01*
X0241414Y0035973D01*
X0241333Y0036096D01*
X0241256Y0036220D01*
X0241182Y0036347D01*
X0241112Y0036476D01*
X0241045Y0036606D01*
X0240981Y0036738D01*
X0240922Y0036872D01*
X0240865Y0037007D01*
X0240813Y0037144D01*
X0240764Y0037283D01*
X0240719Y0037422D01*
X0240678Y0037563D01*
X0240641Y0037705D01*
X0240608Y0037847D01*
X0240578Y0037991D01*
X0240552Y0038135D01*
X0240531Y0038280D01*
X0240513Y0038426D01*
X0240499Y0038572D01*
X0240489Y0038718D01*
X0240483Y0038864D01*
X0240481Y0039011D01*
X0240481Y0129562D02*
X0240483Y0129709D01*
X0240489Y0129855D01*
X0240499Y0130001D01*
X0240513Y0130147D01*
X0240531Y0130293D01*
X0240552Y0130438D01*
X0240578Y0130582D01*
X0240608Y0130726D01*
X0240641Y0130868D01*
X0240678Y0131010D01*
X0240719Y0131151D01*
X0240764Y0131290D01*
X0240813Y0131429D01*
X0240865Y0131566D01*
X0240922Y0131701D01*
X0240981Y0131835D01*
X0241045Y0131967D01*
X0241112Y0132097D01*
X0241182Y0132226D01*
X0241256Y0132353D01*
X0241333Y0132477D01*
X0241414Y0132600D01*
X0241498Y0132720D01*
X0241585Y0132838D01*
X0241675Y0132953D01*
X0241768Y0133066D01*
X0241865Y0133177D01*
X0241964Y0133285D01*
X0242066Y0133390D01*
X0242171Y0133492D01*
X0242279Y0133591D01*
X0242390Y0133688D01*
X0242503Y0133781D01*
X0242618Y0133871D01*
X0242736Y0133958D01*
X0242856Y0134042D01*
X0242979Y0134123D01*
X0243103Y0134200D01*
X0243230Y0134274D01*
X0243359Y0134344D01*
X0243489Y0134411D01*
X0243621Y0134475D01*
X0243755Y0134534D01*
X0243890Y0134591D01*
X0244027Y0134643D01*
X0244166Y0134692D01*
X0244305Y0134737D01*
X0244446Y0134778D01*
X0244588Y0134815D01*
X0244730Y0134848D01*
X0244874Y0134878D01*
X0245018Y0134904D01*
X0245163Y0134925D01*
X0245309Y0134943D01*
X0245455Y0134957D01*
X0245601Y0134967D01*
X0245747Y0134973D01*
X0245894Y0134975D01*
X0246041Y0134973D01*
X0246187Y0134967D01*
X0246333Y0134957D01*
X0246479Y0134943D01*
X0246625Y0134925D01*
X0246770Y0134904D01*
X0246914Y0134878D01*
X0247058Y0134848D01*
X0247200Y0134815D01*
X0247342Y0134778D01*
X0247483Y0134737D01*
X0247622Y0134692D01*
X0247761Y0134643D01*
X0247898Y0134591D01*
X0248033Y0134534D01*
X0248167Y0134475D01*
X0248299Y0134411D01*
X0248429Y0134344D01*
X0248558Y0134274D01*
X0248685Y0134200D01*
X0248809Y0134123D01*
X0248932Y0134042D01*
X0249052Y0133958D01*
X0249170Y0133871D01*
X0249285Y0133781D01*
X0249398Y0133688D01*
X0249509Y0133591D01*
X0249617Y0133492D01*
X0249722Y0133390D01*
X0249824Y0133285D01*
X0249923Y0133177D01*
X0250020Y0133066D01*
X0250113Y0132953D01*
X0250203Y0132838D01*
X0250290Y0132720D01*
X0250374Y0132600D01*
X0250455Y0132477D01*
X0250532Y0132353D01*
X0250606Y0132226D01*
X0250676Y0132097D01*
X0250743Y0131967D01*
X0250807Y0131835D01*
X0250866Y0131701D01*
X0250923Y0131566D01*
X0250975Y0131429D01*
X0251024Y0131290D01*
X0251069Y0131151D01*
X0251110Y0131010D01*
X0251147Y0130868D01*
X0251180Y0130726D01*
X0251210Y0130582D01*
X0251236Y0130438D01*
X0251257Y0130293D01*
X0251275Y0130147D01*
X0251289Y0130001D01*
X0251299Y0129855D01*
X0251305Y0129709D01*
X0251307Y0129562D01*
X0251305Y0129415D01*
X0251299Y0129269D01*
X0251289Y0129123D01*
X0251275Y0128977D01*
X0251257Y0128831D01*
X0251236Y0128686D01*
X0251210Y0128542D01*
X0251180Y0128398D01*
X0251147Y0128256D01*
X0251110Y0128114D01*
X0251069Y0127973D01*
X0251024Y0127834D01*
X0250975Y0127695D01*
X0250923Y0127558D01*
X0250866Y0127423D01*
X0250807Y0127289D01*
X0250743Y0127157D01*
X0250676Y0127027D01*
X0250606Y0126898D01*
X0250532Y0126771D01*
X0250455Y0126647D01*
X0250374Y0126524D01*
X0250290Y0126404D01*
X0250203Y0126286D01*
X0250113Y0126171D01*
X0250020Y0126058D01*
X0249923Y0125947D01*
X0249824Y0125839D01*
X0249722Y0125734D01*
X0249617Y0125632D01*
X0249509Y0125533D01*
X0249398Y0125436D01*
X0249285Y0125343D01*
X0249170Y0125253D01*
X0249052Y0125166D01*
X0248932Y0125082D01*
X0248809Y0125001D01*
X0248685Y0124924D01*
X0248558Y0124850D01*
X0248429Y0124780D01*
X0248299Y0124713D01*
X0248167Y0124649D01*
X0248033Y0124590D01*
X0247898Y0124533D01*
X0247761Y0124481D01*
X0247622Y0124432D01*
X0247483Y0124387D01*
X0247342Y0124346D01*
X0247200Y0124309D01*
X0247058Y0124276D01*
X0246914Y0124246D01*
X0246770Y0124220D01*
X0246625Y0124199D01*
X0246479Y0124181D01*
X0246333Y0124167D01*
X0246187Y0124157D01*
X0246041Y0124151D01*
X0245894Y0124149D01*
X0245747Y0124151D01*
X0245601Y0124157D01*
X0245455Y0124167D01*
X0245309Y0124181D01*
X0245163Y0124199D01*
X0245018Y0124220D01*
X0244874Y0124246D01*
X0244730Y0124276D01*
X0244588Y0124309D01*
X0244446Y0124346D01*
X0244305Y0124387D01*
X0244166Y0124432D01*
X0244027Y0124481D01*
X0243890Y0124533D01*
X0243755Y0124590D01*
X0243621Y0124649D01*
X0243489Y0124713D01*
X0243359Y0124780D01*
X0243230Y0124850D01*
X0243103Y0124924D01*
X0242979Y0125001D01*
X0242856Y0125082D01*
X0242736Y0125166D01*
X0242618Y0125253D01*
X0242503Y0125343D01*
X0242390Y0125436D01*
X0242279Y0125533D01*
X0242171Y0125632D01*
X0242066Y0125734D01*
X0241964Y0125839D01*
X0241865Y0125947D01*
X0241768Y0126058D01*
X0241675Y0126171D01*
X0241585Y0126286D01*
X0241498Y0126404D01*
X0241414Y0126524D01*
X0241333Y0126647D01*
X0241256Y0126771D01*
X0241182Y0126898D01*
X0241112Y0127027D01*
X0241045Y0127157D01*
X0240981Y0127289D01*
X0240922Y0127423D01*
X0240865Y0127558D01*
X0240813Y0127695D01*
X0240764Y0127834D01*
X0240719Y0127973D01*
X0240678Y0128114D01*
X0240641Y0128256D01*
X0240608Y0128398D01*
X0240578Y0128542D01*
X0240552Y0128686D01*
X0240531Y0128831D01*
X0240513Y0128977D01*
X0240499Y0129123D01*
X0240489Y0129269D01*
X0240483Y0129415D01*
X0240481Y0129562D01*
D14*
X0200973Y0060664D03*
X0190973Y0060664D03*
X0180973Y0060664D03*
X0156485Y0060664D03*
X0146839Y0060664D03*
X0137194Y0060664D03*
X0046721Y0114562D03*
D15*
X0191406Y0092278D03*
D16*
X0226721Y0124562D03*
D17*
X0216721Y0124562D03*
X0206721Y0124562D03*
X0196721Y0124562D03*
X0186721Y0124562D03*
X0176721Y0124562D03*
X0166721Y0124562D03*
X0156721Y0124562D03*
X0146721Y0124562D03*
X0136721Y0124562D03*
X0126721Y0124562D03*
X0116721Y0124562D03*
X0106721Y0124562D03*
X0096721Y0124562D03*
X0086721Y0124562D03*
X0076721Y0124562D03*
X0066721Y0124562D03*
X0056721Y0124562D03*
X0046721Y0124562D03*
X0036721Y0124562D03*
X0036721Y0134562D03*
X0046721Y0134562D03*
X0056721Y0134562D03*
X0066721Y0134562D03*
X0076721Y0134562D03*
X0086721Y0134562D03*
X0096721Y0134562D03*
X0106721Y0134562D03*
X0116721Y0134562D03*
X0126721Y0134562D03*
X0136721Y0134562D03*
X0146721Y0134562D03*
X0156721Y0134562D03*
X0166721Y0134562D03*
X0176721Y0134562D03*
X0186721Y0134562D03*
X0196721Y0134562D03*
X0206721Y0134562D03*
X0216721Y0134562D03*
X0226721Y0134562D03*
D18*
X0036721Y0114562D03*
D19*
X0040483Y0115118D02*
X0042595Y0115118D01*
X0042559Y0114889D02*
X0042559Y0114562D01*
X0046721Y0114562D01*
X0046721Y0114562D01*
X0046721Y0118724D01*
X0046394Y0118724D01*
X0045747Y0118622D01*
X0045124Y0118419D01*
X0044540Y0118122D01*
X0044010Y0117737D01*
X0043547Y0117273D01*
X0043161Y0116743D01*
X0042864Y0116160D01*
X0042662Y0115537D01*
X0042559Y0114889D01*
X0042559Y0114562D02*
X0042559Y0114234D01*
X0042662Y0113587D01*
X0042864Y0112964D01*
X0043161Y0112380D01*
X0043547Y0111850D01*
X0044010Y0111387D01*
X0044540Y0111002D01*
X0045124Y0110705D01*
X0045747Y0110502D01*
X0046394Y0110400D01*
X0046721Y0110400D01*
X0046721Y0114562D01*
X0046721Y0114562D01*
X0042559Y0114562D01*
X0042684Y0113519D02*
X0040483Y0113519D01*
X0040483Y0111921D02*
X0043495Y0111921D01*
X0040483Y0111620D02*
X0040483Y0117504D01*
X0039663Y0118324D01*
X0033779Y0118324D01*
X0032959Y0117504D01*
X0032959Y0111620D01*
X0033779Y0110800D01*
X0039663Y0110800D01*
X0040483Y0111620D01*
X0046721Y0111921D02*
X0046721Y0111921D01*
X0046721Y0110400D02*
X0047049Y0110400D01*
X0047696Y0110502D01*
X0048319Y0110705D01*
X0048903Y0111002D01*
X0049433Y0111387D01*
X0049896Y0111850D01*
X0050281Y0112380D01*
X0050579Y0112964D01*
X0050781Y0113587D01*
X0050883Y0114234D01*
X0050883Y0114562D01*
X0050883Y0114889D01*
X0050781Y0115537D01*
X0050579Y0116160D01*
X0050281Y0116743D01*
X0049896Y0117273D01*
X0049433Y0117737D01*
X0048903Y0118122D01*
X0048319Y0118419D01*
X0047696Y0118622D01*
X0047049Y0118724D01*
X0046721Y0118724D01*
X0046721Y0114562D01*
X0046721Y0114562D01*
X0046721Y0110400D01*
X0049947Y0111921D02*
X0053540Y0111921D01*
X0053540Y0113519D02*
X0050759Y0113519D01*
X0050883Y0114562D02*
X0046721Y0114562D01*
X0050883Y0114562D01*
X0050847Y0115118D02*
X0053540Y0115118D01*
X0053540Y0115233D02*
X0053540Y0048025D01*
X0064290Y0037275D01*
X0064290Y0031612D01*
X0064960Y0029995D01*
X0066197Y0028757D01*
X0067708Y0028131D01*
X0015580Y0028131D01*
X0014416Y0028207D01*
X0012169Y0028809D01*
X0010155Y0029973D01*
X0008510Y0031618D01*
X0007347Y0033632D01*
X0006745Y0035879D01*
X0006668Y0037042D01*
X0006668Y0131530D01*
X0006745Y0132694D01*
X0007347Y0134941D01*
X0008510Y0136955D01*
X0010155Y0138600D01*
X0012169Y0139763D01*
X0014416Y0140365D01*
X0015580Y0140441D01*
X0247863Y0140441D01*
X0249026Y0140365D01*
X0251273Y0139763D01*
X0253288Y0138600D01*
X0254933Y0136955D01*
X0256096Y0134941D01*
X0256698Y0132694D01*
X0256774Y0131530D01*
X0256774Y0037042D01*
X0256698Y0035879D01*
X0256096Y0033632D01*
X0254933Y0031618D01*
X0253288Y0029973D01*
X0251273Y0028809D01*
X0249026Y0028207D01*
X0247863Y0028131D01*
X0227097Y0028131D01*
X0228578Y0029612D01*
X0229887Y0032773D01*
X0229887Y0036194D01*
X0228578Y0039354D01*
X0226159Y0041773D01*
X0222999Y0043082D01*
X0219578Y0043082D01*
X0216417Y0041773D01*
X0213998Y0039354D01*
X0212689Y0036194D01*
X0212689Y0032773D01*
X0213998Y0029612D01*
X0215479Y0028131D01*
X0168957Y0028131D01*
X0184311Y0043485D01*
X0193224Y0043485D01*
X0194474Y0044002D01*
X0196612Y0046140D01*
X0196730Y0046427D01*
X0197010Y0046707D01*
X0197010Y0047102D01*
X0197129Y0047390D01*
X0197129Y0048742D01*
X0197010Y0049029D01*
X0197010Y0049425D01*
X0196730Y0049705D01*
X0196612Y0049992D01*
X0195655Y0050948D01*
X0195368Y0051067D01*
X0195088Y0051347D01*
X0194692Y0051347D01*
X0194405Y0051466D01*
X0193053Y0051466D01*
X0192766Y0051347D01*
X0192370Y0051347D01*
X0192090Y0051067D01*
X0191803Y0050948D01*
X0191140Y0050285D01*
X0184177Y0050285D01*
X0185764Y0051871D01*
X0186230Y0051871D01*
X0188152Y0053793D01*
X0188152Y0056512D01*
X0186230Y0058434D01*
X0184497Y0058434D01*
X0184533Y0058483D01*
X0184830Y0059067D01*
X0185033Y0059690D01*
X0185135Y0060337D01*
X0185135Y0060664D01*
X0180973Y0060664D01*
X0180973Y0060664D01*
X0180973Y0056502D01*
X0180646Y0056502D01*
X0179999Y0056605D01*
X0179375Y0056807D01*
X0178792Y0057104D01*
X0178262Y0057490D01*
X0177798Y0057953D01*
X0177413Y0058483D01*
X0177116Y0059067D01*
X0176914Y0059690D01*
X0176835Y0060188D01*
X0176835Y0049164D01*
X0181590Y0053920D01*
X0181590Y0056512D01*
X0181633Y0056555D01*
X0181301Y0056502D01*
X0180973Y0056502D01*
X0180973Y0060664D01*
X0180973Y0060664D01*
X0185135Y0060664D01*
X0185135Y0060992D01*
X0185033Y0061639D01*
X0184830Y0062262D01*
X0184533Y0062846D01*
X0184148Y0063376D01*
X0183685Y0063839D01*
X0183155Y0064224D01*
X0182571Y0064522D01*
X0182432Y0064567D01*
X0193999Y0064567D01*
X0197211Y0061355D01*
X0197211Y0059916D01*
X0197784Y0058533D01*
X0198842Y0057475D01*
X0200225Y0056902D01*
X0201722Y0056902D01*
X0203104Y0057475D01*
X0204163Y0058533D01*
X0204735Y0059916D01*
X0204735Y0061413D01*
X0204190Y0062729D01*
X0206687Y0060233D01*
X0206687Y0059950D01*
X0207975Y0058661D01*
X0208172Y0058661D01*
X0212592Y0054241D01*
X0213881Y0052952D01*
X0245029Y0052952D01*
X0246110Y0051871D01*
X0248828Y0051871D01*
X0250750Y0053793D01*
X0250750Y0056512D01*
X0248828Y0058434D01*
X0246110Y0058434D01*
X0245029Y0057352D01*
X0229900Y0057352D01*
X0230672Y0058124D01*
X0230672Y0060842D01*
X0228750Y0062764D01*
X0226938Y0062764D01*
X0222894Y0066808D01*
X0222894Y0079087D01*
X0223535Y0079727D01*
X0246798Y0079727D01*
X0248669Y0077856D01*
X0251387Y0077856D01*
X0253309Y0079778D01*
X0253309Y0082496D01*
X0251387Y0084418D01*
X0248669Y0084418D01*
X0247979Y0083727D01*
X0239109Y0083727D01*
X0240324Y0084942D01*
X0242135Y0084942D01*
X0244057Y0086864D01*
X0244057Y0089582D01*
X0242135Y0091504D01*
X0239417Y0091504D01*
X0237495Y0089582D01*
X0237495Y0087771D01*
X0237192Y0087467D01*
X0216999Y0087467D01*
X0217192Y0087660D01*
X0217861Y0089277D01*
X0217861Y0091028D01*
X0217192Y0092645D01*
X0215954Y0093883D01*
X0214337Y0094552D01*
X0206586Y0094552D01*
X0204969Y0093883D01*
X0203731Y0092645D01*
X0203061Y0091028D01*
X0203061Y0089277D01*
X0203731Y0087660D01*
X0203924Y0087467D01*
X0203727Y0087467D01*
X0203137Y0086877D01*
X0184518Y0086877D01*
X0182540Y0088855D01*
X0182540Y0092005D01*
X0182416Y0092129D01*
X0186206Y0092129D01*
X0186206Y0090125D01*
X0189252Y0087078D01*
X0193560Y0087078D01*
X0196606Y0090125D01*
X0196606Y0094432D01*
X0193560Y0097478D01*
X0189252Y0097478D01*
X0187903Y0096129D01*
X0166326Y0096129D01*
X0165154Y0094957D01*
X0164357Y0094160D01*
X0163407Y0094160D01*
X0171709Y0102462D01*
X0173632Y0102462D01*
X0175554Y0104384D01*
X0175554Y0107102D01*
X0175176Y0107480D01*
X0186761Y0107480D01*
X0187646Y0106596D01*
X0190364Y0106596D01*
X0192286Y0108518D01*
X0192286Y0111236D01*
X0190364Y0113158D01*
X0187646Y0113158D01*
X0186368Y0111880D01*
X0170180Y0111880D01*
X0168891Y0110591D01*
X0158369Y0100069D01*
X0158050Y0100069D01*
X0158624Y0100644D01*
X0158624Y0103362D01*
X0156702Y0105284D01*
X0153984Y0105284D01*
X0152903Y0104203D01*
X0142621Y0104203D01*
X0138684Y0100266D01*
X0138561Y0100266D01*
X0138939Y0100644D01*
X0138939Y0103362D01*
X0137017Y0105284D01*
X0134299Y0105284D01*
X0133018Y0104003D01*
X0131911Y0104003D01*
X0132740Y0104832D01*
X0139522Y0111614D01*
X0146998Y0111614D01*
X0148079Y0110533D01*
X0150797Y0110533D01*
X0152719Y0112455D01*
X0152719Y0115173D01*
X0152341Y0115551D01*
X0154872Y0115551D01*
X0155953Y0114470D01*
X0158671Y0114470D01*
X0160593Y0116392D01*
X0160593Y0119110D01*
X0159354Y0120349D01*
X0159497Y0120408D01*
X0160875Y0121786D01*
X0161621Y0123587D01*
X0161621Y0125537D01*
X0160875Y0127338D01*
X0160651Y0127562D01*
X0162792Y0127562D01*
X0162567Y0127338D01*
X0161821Y0125537D01*
X0161821Y0123587D01*
X0162567Y0121786D01*
X0163946Y0120408D01*
X0165747Y0119662D01*
X0167696Y0119662D01*
X0169497Y0120408D01*
X0170875Y0121786D01*
X0171621Y0123587D01*
X0171621Y0125537D01*
X0170875Y0127338D01*
X0170651Y0127562D01*
X0172792Y0127562D01*
X0172567Y0127338D01*
X0171821Y0125537D01*
X0171821Y0123587D01*
X0172567Y0121786D01*
X0173946Y0120408D01*
X0175747Y0119662D01*
X0177696Y0119662D01*
X0179497Y0120408D01*
X0180875Y0121786D01*
X0181540Y0123392D01*
X0181552Y0123321D01*
X0181810Y0122527D01*
X0182188Y0121784D01*
X0182679Y0121109D01*
X0183269Y0120519D01*
X0183943Y0120029D01*
X0184687Y0119650D01*
X0185480Y0119392D01*
X0186304Y0119262D01*
X0186537Y0119262D01*
X0186537Y0124378D01*
X0186906Y0124378D01*
X0186906Y0119262D01*
X0187138Y0119262D01*
X0187962Y0119392D01*
X0188756Y0119650D01*
X0189499Y0120029D01*
X0190174Y0120519D01*
X0190764Y0121109D01*
X0191254Y0121784D01*
X0191633Y0122527D01*
X0191891Y0123321D01*
X0191902Y0123392D01*
X0192567Y0121786D01*
X0193946Y0120408D01*
X0195747Y0119662D01*
X0197696Y0119662D01*
X0199497Y0120408D01*
X0199603Y0120514D01*
X0199603Y0120466D01*
X0202950Y0117119D01*
X0204121Y0115948D01*
X0211909Y0115948D01*
X0212109Y0115748D01*
X0229235Y0115748D01*
X0235820Y0109162D01*
X0235820Y0107252D01*
X0234693Y0107252D01*
X0232771Y0105330D01*
X0232771Y0102612D01*
X0234693Y0100690D01*
X0237411Y0100690D01*
X0239333Y0102612D01*
X0239333Y0104141D01*
X0240220Y0105029D01*
X0240220Y0110985D01*
X0238932Y0112274D01*
X0231172Y0120033D01*
X0231621Y0120482D01*
X0231621Y0128642D01*
X0230801Y0129462D01*
X0222641Y0129462D01*
X0221821Y0128642D01*
X0221821Y0120482D01*
X0222156Y0120148D01*
X0218869Y0120148D01*
X0219497Y0120408D01*
X0220875Y0121786D01*
X0221621Y0123587D01*
X0221621Y0125537D01*
X0220875Y0127338D01*
X0219497Y0128716D01*
X0217696Y0129462D01*
X0215747Y0129462D01*
X0213946Y0128716D01*
X0212567Y0127338D01*
X0211821Y0125537D01*
X0211821Y0123587D01*
X0212567Y0121786D01*
X0213946Y0120408D01*
X0214574Y0120148D01*
X0212109Y0120148D01*
X0211909Y0119948D01*
X0208386Y0119948D01*
X0209497Y0120408D01*
X0210875Y0121786D01*
X0211621Y0123587D01*
X0211621Y0125537D01*
X0210875Y0127338D01*
X0209497Y0128716D01*
X0207891Y0129381D01*
X0207962Y0129392D01*
X0208756Y0129650D01*
X0209499Y0130029D01*
X0210174Y0130519D01*
X0210764Y0131109D01*
X0211254Y0131784D01*
X0211633Y0132527D01*
X0211891Y0133321D01*
X0211902Y0133392D01*
X0212567Y0131786D01*
X0213946Y0130408D01*
X0215747Y0129662D01*
X0217696Y0129662D01*
X0219497Y0130408D01*
X0220875Y0131786D01*
X0221621Y0133587D01*
X0221621Y0135537D01*
X0220875Y0137338D01*
X0219497Y0138716D01*
X0217696Y0139462D01*
X0215747Y0139462D01*
X0213946Y0138716D01*
X0212567Y0137338D01*
X0211902Y0135732D01*
X0211891Y0135803D01*
X0211633Y0136596D01*
X0211254Y0137340D01*
X0210764Y0138015D01*
X0210174Y0138605D01*
X0209499Y0139095D01*
X0208756Y0139474D01*
X0207962Y0139731D01*
X0207138Y0139862D01*
X0206906Y0139862D01*
X0206906Y0134746D01*
X0206537Y0134746D01*
X0206537Y0139862D01*
X0206304Y0139862D01*
X0205480Y0139731D01*
X0204687Y0139474D01*
X0203943Y0139095D01*
X0203269Y0138605D01*
X0202679Y0138015D01*
X0202188Y0137340D01*
X0201810Y0136596D01*
X0201552Y0135803D01*
X0201540Y0135732D01*
X0200875Y0137338D01*
X0199497Y0138716D01*
X0197696Y0139462D01*
X0195747Y0139462D01*
X0193946Y0138716D01*
X0192567Y0137338D01*
X0191821Y0135537D01*
X0191821Y0133587D01*
X0192567Y0131786D01*
X0192792Y0131562D01*
X0190651Y0131562D01*
X0190875Y0131786D01*
X0191621Y0133587D01*
X0191621Y0135537D01*
X0190875Y0137338D01*
X0189497Y0138716D01*
X0187696Y0139462D01*
X0185747Y0139462D01*
X0183946Y0138716D01*
X0182567Y0137338D01*
X0181821Y0135537D01*
X0181821Y0133587D01*
X0182567Y0131786D01*
X0182792Y0131562D01*
X0180651Y0131562D01*
X0180875Y0131786D01*
X0181621Y0133587D01*
X0181621Y0135537D01*
X0180875Y0137338D01*
X0179497Y0138716D01*
X0177696Y0139462D01*
X0175747Y0139462D01*
X0173946Y0138716D01*
X0172567Y0137338D01*
X0171902Y0135732D01*
X0171891Y0135803D01*
X0171633Y0136596D01*
X0171254Y0137340D01*
X0170764Y0138015D01*
X0170174Y0138605D01*
X0169499Y0139095D01*
X0168756Y0139474D01*
X0167962Y0139731D01*
X0167138Y0139862D01*
X0166906Y0139862D01*
X0166906Y0134746D01*
X0166537Y0134746D01*
X0166537Y0139862D01*
X0166304Y0139862D01*
X0165480Y0139731D01*
X0164687Y0139474D01*
X0163943Y0139095D01*
X0163269Y0138605D01*
X0162679Y0138015D01*
X0162188Y0137340D01*
X0161810Y0136596D01*
X0161552Y0135803D01*
X0161540Y0135732D01*
X0160875Y0137338D01*
X0159497Y0138716D01*
X0157696Y0139462D01*
X0155747Y0139462D01*
X0153946Y0138716D01*
X0152567Y0137338D01*
X0151821Y0135537D01*
X0151821Y0133587D01*
X0152567Y0131786D01*
X0152792Y0131562D01*
X0150651Y0131562D01*
X0150875Y0131786D01*
X0151621Y0133587D01*
X0151621Y0135537D01*
X0150875Y0137338D01*
X0149497Y0138716D01*
X0147696Y0139462D01*
X0145747Y0139462D01*
X0143946Y0138716D01*
X0142567Y0137338D01*
X0141902Y0135732D01*
X0141891Y0135803D01*
X0141633Y0136596D01*
X0141254Y0137340D01*
X0140764Y0138015D01*
X0140174Y0138605D01*
X0139499Y0139095D01*
X0138756Y0139474D01*
X0137962Y0139731D01*
X0137138Y0139862D01*
X0136906Y0139862D01*
X0136906Y0134746D01*
X0136537Y0134746D01*
X0136537Y0139862D01*
X0136304Y0139862D01*
X0135480Y0139731D01*
X0134687Y0139474D01*
X0133943Y0139095D01*
X0133269Y0138605D01*
X0132679Y0138015D01*
X0132188Y0137340D01*
X0131810Y0136596D01*
X0131552Y0135803D01*
X0131540Y0135732D01*
X0130875Y0137338D01*
X0129497Y0138716D01*
X0127696Y0139462D01*
X0125747Y0139462D01*
X0123946Y0138716D01*
X0122567Y0137338D01*
X0121821Y0135537D01*
X0121821Y0133587D01*
X0122567Y0131786D01*
X0122792Y0131562D01*
X0120651Y0131562D01*
X0120875Y0131786D01*
X0121621Y0133587D01*
X0121621Y0135537D01*
X0120875Y0137338D01*
X0119497Y0138716D01*
X0117696Y0139462D01*
X0115747Y0139462D01*
X0113946Y0138716D01*
X0112567Y0137338D01*
X0111821Y0135537D01*
X0111821Y0133587D01*
X0112567Y0131786D01*
X0112792Y0131562D01*
X0110651Y0131562D01*
X0110875Y0131786D01*
X0111621Y0133587D01*
X0111621Y0135537D01*
X0110875Y0137338D01*
X0109497Y0138716D01*
X0107696Y0139462D01*
X0105747Y0139462D01*
X0103946Y0138716D01*
X0102567Y0137338D01*
X0101821Y0135537D01*
X0101821Y0133587D01*
X0102567Y0131786D01*
X0102792Y0131562D01*
X0100651Y0131562D01*
X0100875Y0131786D01*
X0101621Y0133587D01*
X0101621Y0135537D01*
X0100875Y0137338D01*
X0099497Y0138716D01*
X0097696Y0139462D01*
X0095747Y0139462D01*
X0093946Y0138716D01*
X0092567Y0137338D01*
X0091902Y0135732D01*
X0091891Y0135803D01*
X0091633Y0136596D01*
X0091254Y0137340D01*
X0090764Y0138015D01*
X0090174Y0138605D01*
X0089499Y0139095D01*
X0088756Y0139474D01*
X0087962Y0139731D01*
X0087138Y0139862D01*
X0086906Y0139862D01*
X0086906Y0134746D01*
X0086537Y0134746D01*
X0086537Y0139862D01*
X0086304Y0139862D01*
X0085480Y0139731D01*
X0084687Y0139474D01*
X0083943Y0139095D01*
X0083269Y0138605D01*
X0082679Y0138015D01*
X0082188Y0137340D01*
X0081810Y0136596D01*
X0081552Y0135803D01*
X0081540Y0135732D01*
X0080875Y0137338D01*
X0079497Y0138716D01*
X0077696Y0139462D01*
X0075747Y0139462D01*
X0073946Y0138716D01*
X0072567Y0137338D01*
X0071902Y0135732D01*
X0071891Y0135803D01*
X0071633Y0136596D01*
X0071254Y0137340D01*
X0070764Y0138015D01*
X0070174Y0138605D01*
X0069499Y0139095D01*
X0068756Y0139474D01*
X0067962Y0139731D01*
X0067138Y0139862D01*
X0066906Y0139862D01*
X0066906Y0134746D01*
X0066537Y0134746D01*
X0066537Y0139862D01*
X0066304Y0139862D01*
X0065480Y0139731D01*
X0064687Y0139474D01*
X0063943Y0139095D01*
X0063269Y0138605D01*
X0062679Y0138015D01*
X0062188Y0137340D01*
X0061810Y0136596D01*
X0061552Y0135803D01*
X0061540Y0135732D01*
X0060875Y0137338D01*
X0059497Y0138716D01*
X0057696Y0139462D01*
X0055747Y0139462D01*
X0053946Y0138716D01*
X0052567Y0137338D01*
X0051821Y0135537D01*
X0051821Y0133587D01*
X0052567Y0131786D01*
X0053946Y0130408D01*
X0055747Y0129662D01*
X0057696Y0129662D01*
X0059497Y0130408D01*
X0060875Y0131786D01*
X0061540Y0133392D01*
X0061552Y0133321D01*
X0061810Y0132527D01*
X0062188Y0131784D01*
X0062350Y0131562D01*
X0061798Y0131562D01*
X0060627Y0130390D01*
X0059643Y0129406D01*
X0059643Y0128570D01*
X0059497Y0128716D01*
X0057696Y0129462D01*
X0055747Y0129462D01*
X0053946Y0128716D01*
X0052567Y0127338D01*
X0051821Y0125537D01*
X0051821Y0123587D01*
X0052567Y0121786D01*
X0053946Y0120408D01*
X0055747Y0119662D01*
X0057696Y0119662D01*
X0058162Y0119855D01*
X0053540Y0115233D01*
X0055024Y0116716D02*
X0050295Y0116716D01*
X0048524Y0118315D02*
X0056622Y0118315D01*
X0055140Y0119913D02*
X0048303Y0119913D01*
X0047696Y0119662D02*
X0049497Y0120408D01*
X0050875Y0121786D01*
X0051621Y0123587D01*
X0051621Y0125537D01*
X0050875Y0127338D01*
X0049497Y0128716D01*
X0047696Y0129462D01*
X0045747Y0129462D01*
X0043946Y0128716D01*
X0042567Y0127338D01*
X0041902Y0125732D01*
X0041891Y0125803D01*
X0041633Y0126596D01*
X0041254Y0127340D01*
X0040764Y0128015D01*
X0040174Y0128605D01*
X0039499Y0129095D01*
X0038756Y0129474D01*
X0037962Y0129731D01*
X0037891Y0129743D01*
X0039497Y0130408D01*
X0040875Y0131786D01*
X0041621Y0133587D01*
X0041621Y0135537D01*
X0040875Y0137338D01*
X0039497Y0138716D01*
X0037696Y0139462D01*
X0035747Y0139462D01*
X0033946Y0138716D01*
X0032567Y0137338D01*
X0031821Y0135537D01*
X0031821Y0133587D01*
X0032567Y0131786D01*
X0033946Y0130408D01*
X0035552Y0129743D01*
X0035480Y0129731D01*
X0034687Y0129474D01*
X0033943Y0129095D01*
X0033269Y0128605D01*
X0032679Y0128015D01*
X0032188Y0127340D01*
X0031810Y0126596D01*
X0031552Y0125803D01*
X0031421Y0124979D01*
X0031421Y0124746D01*
X0036537Y0124746D01*
X0036537Y0124378D01*
X0031421Y0124378D01*
X0031421Y0124145D01*
X0031552Y0123321D01*
X0031810Y0122527D01*
X0032188Y0121784D01*
X0032679Y0121109D01*
X0033269Y0120519D01*
X0033943Y0120029D01*
X0034687Y0119650D01*
X0035480Y0119392D01*
X0036304Y0119262D01*
X0036537Y0119262D01*
X0036537Y0124378D01*
X0036906Y0124378D01*
X0036906Y0119262D01*
X0037138Y0119262D01*
X0037962Y0119392D01*
X0038756Y0119650D01*
X0039499Y0120029D01*
X0040174Y0120519D01*
X0040764Y0121109D01*
X0041254Y0121784D01*
X0041633Y0122527D01*
X0041891Y0123321D01*
X0041902Y0123392D01*
X0042567Y0121786D01*
X0043946Y0120408D01*
X0045747Y0119662D01*
X0047696Y0119662D01*
X0046721Y0118315D02*
X0046721Y0118315D01*
X0046721Y0116716D02*
X0046721Y0116716D01*
X0044919Y0118315D02*
X0039673Y0118315D01*
X0039272Y0119913D02*
X0045140Y0119913D01*
X0042842Y0121512D02*
X0041056Y0121512D01*
X0041822Y0123110D02*
X0042019Y0123110D01*
X0042141Y0126307D02*
X0041727Y0126307D01*
X0040843Y0127906D02*
X0043136Y0127906D01*
X0043946Y0130408D02*
X0045747Y0129662D01*
X0047696Y0129662D01*
X0049497Y0130408D01*
X0050875Y0131786D01*
X0051621Y0133587D01*
X0051621Y0135537D01*
X0050875Y0137338D01*
X0049497Y0138716D01*
X0047696Y0139462D01*
X0045747Y0139462D01*
X0043946Y0138716D01*
X0042567Y0137338D01*
X0041821Y0135537D01*
X0041821Y0133587D01*
X0042567Y0131786D01*
X0043946Y0130408D01*
X0043251Y0131103D02*
X0040192Y0131103D01*
X0041254Y0132701D02*
X0042188Y0132701D01*
X0041821Y0134300D02*
X0041621Y0134300D01*
X0041471Y0135898D02*
X0041971Y0135898D01*
X0042727Y0137497D02*
X0040716Y0137497D01*
X0038580Y0139095D02*
X0044862Y0139095D01*
X0048580Y0139095D02*
X0054862Y0139095D01*
X0052727Y0137497D02*
X0050716Y0137497D01*
X0051471Y0135898D02*
X0051971Y0135898D01*
X0051821Y0134300D02*
X0051621Y0134300D01*
X0051254Y0132701D02*
X0052188Y0132701D01*
X0053251Y0131103D02*
X0050192Y0131103D01*
X0050307Y0127906D02*
X0053136Y0127906D01*
X0052141Y0126307D02*
X0051302Y0126307D01*
X0051621Y0124709D02*
X0051821Y0124709D01*
X0052019Y0123110D02*
X0051424Y0123110D01*
X0050601Y0121512D02*
X0052842Y0121512D01*
X0060680Y0116716D02*
X0083165Y0116716D01*
X0083165Y0117141D02*
X0083165Y0114423D01*
X0085087Y0112501D01*
X0086701Y0112501D01*
X0101094Y0098109D01*
X0099994Y0097009D01*
X0083566Y0080581D01*
X0069786Y0080581D01*
X0068498Y0079292D01*
X0064962Y0075756D01*
X0063433Y0075756D01*
X0061511Y0073834D01*
X0061511Y0071116D01*
X0063433Y0069194D01*
X0066151Y0069194D01*
X0068073Y0071116D01*
X0068073Y0072645D01*
X0071609Y0076181D01*
X0074306Y0076181D01*
X0074306Y0073478D01*
X0074994Y0072791D01*
X0074994Y0056603D01*
X0076282Y0055315D01*
X0080023Y0051575D01*
X0080255Y0051575D01*
X0079825Y0051397D01*
X0077069Y0048641D01*
X0076225Y0047797D01*
X0075769Y0046694D01*
X0075769Y0041788D01*
X0074960Y0040980D01*
X0074290Y0039362D01*
X0074290Y0031612D01*
X0074960Y0029995D01*
X0076197Y0028757D01*
X0077708Y0028131D01*
X0069671Y0028131D01*
X0071182Y0028757D01*
X0072420Y0029995D01*
X0073090Y0031612D01*
X0073090Y0039362D01*
X0072420Y0040980D01*
X0071182Y0042217D01*
X0069565Y0042887D01*
X0067815Y0042887D01*
X0066197Y0042217D01*
X0065601Y0041621D01*
X0057540Y0049682D01*
X0057540Y0113576D01*
X0062471Y0118507D01*
X0063643Y0119678D01*
X0063643Y0120711D01*
X0063946Y0120408D01*
X0065747Y0119662D01*
X0067696Y0119662D01*
X0069497Y0120408D01*
X0070875Y0121786D01*
X0071621Y0123587D01*
X0071621Y0125537D01*
X0070875Y0127338D01*
X0070651Y0127562D01*
X0072792Y0127562D01*
X0072567Y0127338D01*
X0071821Y0125537D01*
X0071821Y0123587D01*
X0072567Y0121786D01*
X0073946Y0120408D01*
X0075747Y0119662D01*
X0077696Y0119662D01*
X0079497Y0120408D01*
X0080875Y0121786D01*
X0081621Y0123587D01*
X0081621Y0125537D01*
X0080875Y0127338D01*
X0080651Y0127562D01*
X0082792Y0127562D01*
X0082567Y0127338D01*
X0081821Y0125537D01*
X0081821Y0123587D01*
X0082567Y0121786D01*
X0083946Y0120408D01*
X0085747Y0119662D01*
X0087696Y0119662D01*
X0089497Y0120408D01*
X0090875Y0121786D01*
X0091621Y0123587D01*
X0091621Y0125537D01*
X0090875Y0127338D01*
X0090651Y0127562D01*
X0092792Y0127562D01*
X0092567Y0127338D01*
X0091821Y0125537D01*
X0091821Y0123587D01*
X0092567Y0121786D01*
X0093946Y0120408D01*
X0095747Y0119662D01*
X0097696Y0119662D01*
X0099497Y0120408D01*
X0100875Y0121786D01*
X0101540Y0123392D01*
X0101552Y0123321D01*
X0101810Y0122527D01*
X0102188Y0121784D01*
X0102679Y0121109D01*
X0103269Y0120519D01*
X0103943Y0120029D01*
X0104687Y0119650D01*
X0105480Y0119392D01*
X0106304Y0119262D01*
X0106537Y0119262D01*
X0106537Y0124378D01*
X0106906Y0124378D01*
X0106906Y0119262D01*
X0107138Y0119262D01*
X0107962Y0119392D01*
X0108756Y0119650D01*
X0109499Y0120029D01*
X0110174Y0120519D01*
X0110764Y0121109D01*
X0111254Y0121784D01*
X0111633Y0122527D01*
X0111891Y0123321D01*
X0111902Y0123392D01*
X0112567Y0121786D01*
X0113946Y0120408D01*
X0115747Y0119662D01*
X0117696Y0119662D01*
X0119497Y0120408D01*
X0120875Y0121786D01*
X0121621Y0123587D01*
X0121621Y0125537D01*
X0120875Y0127338D01*
X0120651Y0127562D01*
X0122792Y0127562D01*
X0122567Y0127338D01*
X0121821Y0125537D01*
X0121821Y0123587D01*
X0122567Y0121786D01*
X0123946Y0120408D01*
X0125747Y0119662D01*
X0127696Y0119662D01*
X0129497Y0120408D01*
X0130875Y0121786D01*
X0131621Y0123587D01*
X0131621Y0125537D01*
X0130875Y0127338D01*
X0130651Y0127562D01*
X0132792Y0127562D01*
X0132567Y0127338D01*
X0131821Y0125537D01*
X0131821Y0123587D01*
X0132567Y0121786D01*
X0133125Y0121229D01*
X0131150Y0121229D01*
X0129228Y0119307D01*
X0129228Y0117778D01*
X0128054Y0116604D01*
X0126287Y0116604D01*
X0125206Y0117686D01*
X0122488Y0117686D01*
X0120566Y0115763D01*
X0120566Y0113045D01*
X0121535Y0112077D01*
X0121366Y0112077D01*
X0119891Y0113552D01*
X0117173Y0113552D01*
X0115251Y0111630D01*
X0115251Y0108911D01*
X0116220Y0107943D01*
X0104826Y0107943D01*
X0104529Y0107646D01*
X0103000Y0107646D01*
X0101078Y0105724D01*
X0101078Y0103782D01*
X0089727Y0115133D01*
X0089727Y0117141D01*
X0087805Y0119063D01*
X0085087Y0119063D01*
X0083165Y0117141D01*
X0084338Y0118315D02*
X0062279Y0118315D01*
X0063643Y0119913D02*
X0065140Y0119913D01*
X0068303Y0119913D02*
X0075140Y0119913D01*
X0072842Y0121512D02*
X0070601Y0121512D01*
X0071424Y0123110D02*
X0072019Y0123110D01*
X0071821Y0124709D02*
X0071621Y0124709D01*
X0071302Y0126307D02*
X0072141Y0126307D01*
X0080601Y0121512D02*
X0082842Y0121512D01*
X0082019Y0123110D02*
X0081424Y0123110D01*
X0081621Y0124709D02*
X0081821Y0124709D01*
X0082141Y0126307D02*
X0081302Y0126307D01*
X0091302Y0126307D02*
X0092141Y0126307D01*
X0091821Y0124709D02*
X0091621Y0124709D01*
X0091424Y0123110D02*
X0092019Y0123110D01*
X0092842Y0121512D02*
X0090601Y0121512D01*
X0088303Y0119913D02*
X0095140Y0119913D01*
X0098303Y0119913D02*
X0104170Y0119913D01*
X0106537Y0119913D02*
X0106906Y0119913D01*
X0106906Y0121512D02*
X0106537Y0121512D01*
X0106537Y0123110D02*
X0106906Y0123110D01*
X0111056Y0121512D02*
X0112842Y0121512D01*
X0112019Y0123110D02*
X0111822Y0123110D01*
X0109272Y0119913D02*
X0115140Y0119913D01*
X0118303Y0119913D02*
X0125140Y0119913D01*
X0122842Y0121512D02*
X0120601Y0121512D01*
X0121424Y0123110D02*
X0122019Y0123110D01*
X0121821Y0124709D02*
X0121621Y0124709D01*
X0121302Y0126307D02*
X0122141Y0126307D01*
X0130601Y0121512D02*
X0132842Y0121512D01*
X0132019Y0123110D02*
X0131424Y0123110D01*
X0131621Y0124709D02*
X0131821Y0124709D01*
X0132141Y0126307D02*
X0131302Y0126307D01*
X0129834Y0119913D02*
X0128303Y0119913D01*
X0129228Y0118315D02*
X0088553Y0118315D01*
X0089727Y0116716D02*
X0121519Y0116716D01*
X0120566Y0115118D02*
X0089742Y0115118D01*
X0091340Y0113519D02*
X0117141Y0113519D01*
X0115542Y0111921D02*
X0092939Y0111921D01*
X0094537Y0110322D02*
X0115251Y0110322D01*
X0115439Y0108724D02*
X0096136Y0108724D01*
X0097734Y0107125D02*
X0102479Y0107125D01*
X0101078Y0105527D02*
X0099333Y0105527D01*
X0100931Y0103928D02*
X0101078Y0103928D01*
X0104359Y0104365D02*
X0105737Y0105743D01*
X0130540Y0105743D01*
X0138611Y0113814D01*
X0149438Y0113814D01*
X0152719Y0113519D02*
X0204606Y0113519D01*
X0204969Y0113883D02*
X0203731Y0112645D01*
X0203061Y0111028D01*
X0203061Y0109277D01*
X0203731Y0107660D01*
X0204969Y0106422D01*
X0206586Y0105752D01*
X0214337Y0105752D01*
X0215954Y0106422D01*
X0217192Y0107660D01*
X0217861Y0109277D01*
X0217861Y0111028D01*
X0217192Y0112645D01*
X0215954Y0113883D01*
X0214337Y0114552D01*
X0206586Y0114552D01*
X0204969Y0113883D01*
X0203431Y0111921D02*
X0191601Y0111921D01*
X0192286Y0110322D02*
X0203061Y0110322D01*
X0203291Y0108724D02*
X0192286Y0108724D01*
X0190893Y0107125D02*
X0204266Y0107125D01*
X0205079Y0103928D02*
X0175098Y0103928D01*
X0175554Y0105527D02*
X0232967Y0105527D01*
X0232771Y0103928D02*
X0215844Y0103928D01*
X0215954Y0103883D02*
X0214337Y0104552D01*
X0206586Y0104552D01*
X0204969Y0103883D01*
X0203731Y0102645D01*
X0203061Y0101028D01*
X0203061Y0099277D01*
X0203731Y0097660D01*
X0204969Y0096422D01*
X0206586Y0095752D01*
X0214337Y0095752D01*
X0215954Y0096422D01*
X0217192Y0097660D01*
X0217861Y0099277D01*
X0217861Y0101028D01*
X0217192Y0102645D01*
X0215954Y0103883D01*
X0217322Y0102330D02*
X0233053Y0102330D01*
X0234652Y0100731D02*
X0217861Y0100731D01*
X0217802Y0099133D02*
X0256774Y0099133D01*
X0256774Y0100731D02*
X0237452Y0100731D01*
X0239051Y0102330D02*
X0256774Y0102330D01*
X0256774Y0103928D02*
X0239333Y0103928D01*
X0240220Y0105527D02*
X0256774Y0105527D01*
X0256774Y0107125D02*
X0240220Y0107125D01*
X0240220Y0108724D02*
X0256774Y0108724D01*
X0256774Y0110322D02*
X0240220Y0110322D01*
X0239285Y0111921D02*
X0256774Y0111921D01*
X0256774Y0113519D02*
X0237686Y0113519D01*
X0236088Y0115118D02*
X0256774Y0115118D01*
X0256774Y0116716D02*
X0234489Y0116716D01*
X0232891Y0118315D02*
X0256774Y0118315D01*
X0256774Y0119913D02*
X0231292Y0119913D01*
X0231621Y0121512D02*
X0256774Y0121512D01*
X0256774Y0123110D02*
X0250351Y0123110D01*
X0250264Y0123023D02*
X0252434Y0125193D01*
X0253608Y0128028D01*
X0253608Y0131096D01*
X0252434Y0133931D01*
X0250264Y0136101D01*
X0247429Y0137275D01*
X0244360Y0137275D01*
X0241525Y0136101D01*
X0239355Y0133931D01*
X0238181Y0131096D01*
X0238181Y0128028D01*
X0239355Y0125193D01*
X0241525Y0123023D01*
X0244360Y0121849D01*
X0247429Y0121849D01*
X0250264Y0123023D01*
X0251950Y0124709D02*
X0256774Y0124709D01*
X0256774Y0126307D02*
X0252895Y0126307D01*
X0253557Y0127906D02*
X0256774Y0127906D01*
X0256774Y0129504D02*
X0253608Y0129504D01*
X0253605Y0131103D02*
X0256774Y0131103D01*
X0256696Y0132701D02*
X0252943Y0132701D01*
X0252065Y0134300D02*
X0256267Y0134300D01*
X0255543Y0135898D02*
X0250466Y0135898D01*
X0252429Y0139095D02*
X0228580Y0139095D01*
X0227696Y0139462D02*
X0229497Y0138716D01*
X0230875Y0137338D01*
X0231621Y0135537D01*
X0231621Y0133587D01*
X0230875Y0131786D01*
X0229497Y0130408D01*
X0227696Y0129662D01*
X0225747Y0129662D01*
X0223946Y0130408D01*
X0222567Y0131786D01*
X0221821Y0133587D01*
X0221821Y0135537D01*
X0222567Y0137338D01*
X0223946Y0138716D01*
X0225747Y0139462D01*
X0227696Y0139462D01*
X0224862Y0139095D02*
X0218580Y0139095D01*
X0220716Y0137497D02*
X0222727Y0137497D01*
X0221971Y0135898D02*
X0221471Y0135898D01*
X0221621Y0134300D02*
X0221821Y0134300D01*
X0222188Y0132701D02*
X0221254Y0132701D01*
X0220192Y0131103D02*
X0223251Y0131103D01*
X0221821Y0127906D02*
X0220307Y0127906D01*
X0221302Y0126307D02*
X0221821Y0126307D01*
X0221821Y0124709D02*
X0221621Y0124709D01*
X0221424Y0123110D02*
X0221821Y0123110D01*
X0221821Y0121512D02*
X0220601Y0121512D01*
X0212842Y0121512D02*
X0210601Y0121512D01*
X0211424Y0123110D02*
X0212019Y0123110D01*
X0211821Y0124709D02*
X0211621Y0124709D01*
X0211302Y0126307D02*
X0212141Y0126307D01*
X0213136Y0127906D02*
X0210307Y0127906D01*
X0208307Y0129504D02*
X0238181Y0129504D01*
X0238231Y0127906D02*
X0231621Y0127906D01*
X0231621Y0126307D02*
X0238894Y0126307D01*
X0239839Y0124709D02*
X0231621Y0124709D01*
X0231621Y0123110D02*
X0241438Y0123110D01*
X0230146Y0117948D02*
X0238020Y0110074D01*
X0238020Y0105940D01*
X0236052Y0103971D01*
X0234566Y0107125D02*
X0216657Y0107125D01*
X0217632Y0108724D02*
X0235820Y0108724D01*
X0234661Y0110322D02*
X0217861Y0110322D01*
X0217491Y0111921D02*
X0233062Y0111921D01*
X0231464Y0113519D02*
X0216317Y0113519D01*
X0213020Y0117948D02*
X0230146Y0117948D01*
X0229865Y0115118D02*
X0159319Y0115118D01*
X0160593Y0116716D02*
X0203353Y0116716D01*
X0201754Y0118315D02*
X0160593Y0118315D01*
X0159789Y0119913D02*
X0165140Y0119913D01*
X0162842Y0121512D02*
X0160601Y0121512D01*
X0161424Y0123110D02*
X0162019Y0123110D01*
X0161821Y0124709D02*
X0161621Y0124709D01*
X0161302Y0126307D02*
X0162141Y0126307D01*
X0171302Y0126307D02*
X0172141Y0126307D01*
X0171821Y0124709D02*
X0171621Y0124709D01*
X0171424Y0123110D02*
X0172019Y0123110D01*
X0172842Y0121512D02*
X0170601Y0121512D01*
X0168303Y0119913D02*
X0175140Y0119913D01*
X0178303Y0119913D02*
X0184170Y0119913D01*
X0186537Y0119913D02*
X0186906Y0119913D01*
X0186906Y0121512D02*
X0186537Y0121512D01*
X0186537Y0123110D02*
X0186906Y0123110D01*
X0191056Y0121512D02*
X0192842Y0121512D01*
X0192019Y0123110D02*
X0191822Y0123110D01*
X0189272Y0119913D02*
X0195140Y0119913D01*
X0198303Y0119913D02*
X0200156Y0119913D01*
X0186408Y0111921D02*
X0152185Y0111921D01*
X0152719Y0115118D02*
X0155305Y0115118D01*
X0157312Y0117751D02*
X0137627Y0117751D01*
X0131721Y0111845D01*
X0127784Y0111845D01*
X0125816Y0109877D01*
X0118926Y0109877D01*
X0118532Y0110271D01*
X0119924Y0113519D02*
X0120566Y0113519D01*
X0123847Y0114404D02*
X0128965Y0114404D01*
X0132509Y0117948D01*
X0128166Y0116716D02*
X0126175Y0116716D01*
X0138231Y0110322D02*
X0168622Y0110322D01*
X0167024Y0108724D02*
X0136632Y0108724D01*
X0135034Y0107125D02*
X0165425Y0107125D01*
X0163827Y0105527D02*
X0133435Y0105527D01*
X0138373Y0103928D02*
X0142346Y0103928D01*
X0140748Y0102330D02*
X0138939Y0102330D01*
X0138939Y0100731D02*
X0139149Y0100731D01*
X0139595Y0098066D02*
X0131721Y0098066D01*
X0115973Y0082318D01*
X0115973Y0069719D01*
X0118283Y0067389D02*
X0119254Y0068360D01*
X0119254Y0071078D01*
X0118173Y0072160D01*
X0118173Y0081407D01*
X0126036Y0089269D01*
X0127803Y0087501D01*
X0128046Y0087501D01*
X0128046Y0085289D01*
X0129968Y0083367D01*
X0132687Y0083367D01*
X0134609Y0085289D01*
X0134609Y0086601D01*
X0136268Y0084942D01*
X0138986Y0084942D01*
X0140267Y0086223D01*
X0144361Y0086223D01*
X0145172Y0087035D01*
X0145172Y0086471D01*
X0147094Y0084549D01*
X0149813Y0084549D01*
X0151735Y0086471D01*
X0151735Y0087798D01*
X0164294Y0087798D01*
X0160224Y0083727D01*
X0135420Y0083727D01*
X0134249Y0082556D01*
X0128827Y0077134D01*
X0127016Y0077134D01*
X0125094Y0075212D01*
X0125094Y0072494D01*
X0127016Y0070572D01*
X0129734Y0070572D01*
X0130409Y0071247D01*
X0130409Y0071235D01*
X0126562Y0067389D01*
X0118283Y0067389D01*
X0119254Y0068761D02*
X0127934Y0068761D01*
X0129533Y0070360D02*
X0119254Y0070360D01*
X0118375Y0071958D02*
X0125630Y0071958D01*
X0125094Y0073557D02*
X0118173Y0073557D01*
X0118173Y0075155D02*
X0125094Y0075155D01*
X0126635Y0076754D02*
X0118173Y0076754D01*
X0118173Y0078352D02*
X0130045Y0078352D01*
X0131644Y0079951D02*
X0118173Y0079951D01*
X0118316Y0081549D02*
X0133242Y0081549D01*
X0134841Y0083148D02*
X0119914Y0083148D01*
X0121513Y0084746D02*
X0128590Y0084746D01*
X0128046Y0086345D02*
X0123111Y0086345D01*
X0124710Y0087943D02*
X0127361Y0087943D01*
X0129162Y0090782D02*
X0132902Y0094916D01*
X0142154Y0094916D01*
X0145107Y0097869D01*
X0159280Y0097869D01*
X0171091Y0109680D01*
X0188808Y0109680D01*
X0189005Y0109877D01*
X0187116Y0107125D02*
X0175530Y0107125D01*
X0172272Y0105743D02*
X0171879Y0105743D01*
X0161052Y0094916D01*
X0146485Y0094916D01*
X0143926Y0092357D01*
X0136052Y0092357D01*
X0131328Y0086649D01*
X0134609Y0086345D02*
X0134865Y0086345D01*
X0134065Y0084746D02*
X0146897Y0084746D01*
X0145298Y0086345D02*
X0144482Y0086345D01*
X0150010Y0084746D02*
X0161242Y0084746D01*
X0162841Y0086345D02*
X0151609Y0086345D01*
X0160528Y0079727D02*
X0160217Y0078978D01*
X0160217Y0061485D01*
X0159674Y0062795D01*
X0158616Y0063854D01*
X0157233Y0064426D01*
X0155737Y0064426D01*
X0154354Y0063854D01*
X0153296Y0062795D01*
X0152723Y0061413D01*
X0152723Y0059916D01*
X0153209Y0058743D01*
X0152850Y0058743D01*
X0152569Y0059024D01*
X0150675Y0059024D01*
X0150697Y0059067D01*
X0150899Y0059690D01*
X0151002Y0060337D01*
X0151002Y0060664D01*
X0146839Y0060664D01*
X0142677Y0060664D01*
X0142677Y0060337D01*
X0142780Y0059690D01*
X0142982Y0059067D01*
X0143280Y0058483D01*
X0143665Y0057953D01*
X0144128Y0057490D01*
X0144658Y0057104D01*
X0145242Y0056807D01*
X0145865Y0056605D01*
X0146512Y0056502D01*
X0146839Y0056502D01*
X0146839Y0060664D01*
X0146839Y0060664D01*
X0146839Y0060664D01*
X0142677Y0060664D01*
X0142677Y0060992D01*
X0142780Y0061639D01*
X0142982Y0062262D01*
X0143280Y0062846D01*
X0143665Y0063376D01*
X0144128Y0063839D01*
X0144658Y0064224D01*
X0145242Y0064522D01*
X0145865Y0064724D01*
X0146512Y0064826D01*
X0146839Y0064826D01*
X0146839Y0060664D01*
X0146839Y0056502D01*
X0147167Y0056502D01*
X0147814Y0056605D01*
X0147928Y0056642D01*
X0147928Y0054384D01*
X0149491Y0052822D01*
X0143573Y0052822D01*
X0142089Y0054306D01*
X0142089Y0056118D01*
X0140167Y0058040D01*
X0139890Y0058040D01*
X0140383Y0058533D01*
X0140956Y0059916D01*
X0140956Y0061413D01*
X0140383Y0062795D01*
X0139325Y0063854D01*
X0137942Y0064426D01*
X0136445Y0064426D01*
X0135063Y0063854D01*
X0134004Y0062795D01*
X0133431Y0061413D01*
X0133431Y0059916D01*
X0134004Y0058533D01*
X0135063Y0057475D01*
X0136350Y0056941D01*
X0135527Y0056118D01*
X0135527Y0053400D01*
X0137449Y0051478D01*
X0139261Y0051478D01*
X0141916Y0048822D01*
X0154515Y0048822D01*
X0158755Y0044582D01*
X0158755Y0042770D01*
X0160326Y0041199D01*
X0159836Y0040709D01*
X0156401Y0037274D01*
X0150349Y0037274D01*
X0138932Y0048691D01*
X0109404Y0048691D01*
X0103409Y0054686D01*
X0102121Y0055974D01*
X0081845Y0055974D01*
X0079394Y0058426D01*
X0079394Y0072004D01*
X0080868Y0073478D01*
X0080868Y0076181D01*
X0085388Y0076181D01*
X0089070Y0079862D01*
X0089070Y0078990D01*
X0090992Y0077068D01*
X0093710Y0077068D01*
X0095632Y0078990D01*
X0095632Y0080519D01*
X0105073Y0089960D01*
X0107361Y0089960D01*
X0107180Y0089779D01*
X0107180Y0087061D01*
X0108261Y0085980D01*
X0108261Y0058966D01*
X0108755Y0058472D01*
X0108755Y0056943D01*
X0110677Y0055021D01*
X0113395Y0055021D01*
X0115317Y0056943D01*
X0115317Y0059661D01*
X0113395Y0061583D01*
X0112661Y0061583D01*
X0112661Y0062108D01*
X0115364Y0062108D01*
X0116645Y0063389D01*
X0128219Y0063389D01*
X0129391Y0064560D01*
X0134024Y0069194D01*
X0135049Y0069194D01*
X0136971Y0071116D01*
X0136971Y0073834D01*
X0135049Y0075756D01*
X0133106Y0075756D01*
X0137077Y0079727D01*
X0160528Y0079727D01*
X0160217Y0078352D02*
X0135702Y0078352D01*
X0134104Y0076754D02*
X0160217Y0076754D01*
X0160217Y0075155D02*
X0135650Y0075155D01*
X0136971Y0073557D02*
X0160217Y0073557D01*
X0160217Y0071958D02*
X0136971Y0071958D01*
X0136214Y0070360D02*
X0160217Y0070360D01*
X0160217Y0068761D02*
X0133591Y0068761D01*
X0131993Y0067162D02*
X0160217Y0067162D01*
X0160217Y0065564D02*
X0130394Y0065564D01*
X0128796Y0063965D02*
X0135332Y0063965D01*
X0133827Y0062367D02*
X0115623Y0062367D01*
X0114210Y0060768D02*
X0133431Y0060768D01*
X0133740Y0059170D02*
X0115317Y0059170D01*
X0112036Y0058302D02*
X0110461Y0059877D01*
X0110461Y0088420D01*
X0107897Y0086345D02*
X0101458Y0086345D01*
X0103056Y0087943D02*
X0107180Y0087943D01*
X0107180Y0089542D02*
X0104655Y0089542D01*
X0104162Y0092160D02*
X0092351Y0080349D01*
X0095632Y0079951D02*
X0108261Y0079951D01*
X0108261Y0081549D02*
X0096662Y0081549D01*
X0098261Y0083148D02*
X0108261Y0083148D01*
X0108261Y0084746D02*
X0099859Y0084746D01*
X0092527Y0089542D02*
X0086971Y0089542D01*
X0086971Y0090173D02*
X0086971Y0087455D01*
X0085049Y0085533D01*
X0082331Y0085533D01*
X0080409Y0087455D01*
X0080409Y0087798D01*
X0065514Y0087798D01*
X0065514Y0087337D01*
X0064694Y0086517D01*
X0059772Y0086517D01*
X0058952Y0087337D01*
X0058952Y0092259D01*
X0059772Y0093079D01*
X0064694Y0093079D01*
X0065514Y0092259D01*
X0065514Y0091798D01*
X0082034Y0091798D01*
X0082331Y0092095D01*
X0085049Y0092095D01*
X0086971Y0090173D01*
X0086004Y0091140D02*
X0094125Y0091140D01*
X0095724Y0092739D02*
X0065035Y0092739D01*
X0059432Y0092739D02*
X0057540Y0092739D01*
X0057540Y0094337D02*
X0097322Y0094337D01*
X0098921Y0095936D02*
X0057540Y0095936D01*
X0053540Y0095936D02*
X0022645Y0095936D01*
X0022765Y0095645D02*
X0022187Y0097041D01*
X0021118Y0098110D01*
X0019721Y0098689D01*
X0018209Y0098689D01*
X0016813Y0098110D01*
X0015744Y0097041D01*
X0015165Y0095645D01*
X0015165Y0094133D01*
X0015744Y0092736D01*
X0016813Y0091667D01*
X0018209Y0091089D01*
X0019721Y0091089D01*
X0021118Y0091667D01*
X0022187Y0092736D01*
X0022765Y0094133D01*
X0022765Y0095645D01*
X0022765Y0094337D02*
X0053540Y0094337D01*
X0053540Y0092739D02*
X0022188Y0092739D01*
X0019845Y0091140D02*
X0053540Y0091140D01*
X0053540Y0089542D02*
X0006668Y0089542D01*
X0006668Y0091140D02*
X0018085Y0091140D01*
X0015743Y0092739D02*
X0006668Y0092739D01*
X0006668Y0094337D02*
X0015165Y0094337D01*
X0015286Y0095936D02*
X0006668Y0095936D01*
X0006668Y0097534D02*
X0016237Y0097534D01*
X0021694Y0097534D02*
X0053540Y0097534D01*
X0053540Y0099133D02*
X0006668Y0099133D01*
X0006668Y0100731D02*
X0053540Y0100731D01*
X0053540Y0102330D02*
X0006668Y0102330D01*
X0006668Y0103928D02*
X0053540Y0103928D01*
X0053540Y0105527D02*
X0006668Y0105527D01*
X0006668Y0107125D02*
X0053540Y0107125D01*
X0053540Y0108724D02*
X0006668Y0108724D01*
X0006668Y0110322D02*
X0053540Y0110322D01*
X0057540Y0110322D02*
X0088880Y0110322D01*
X0087282Y0111921D02*
X0057540Y0111921D01*
X0057540Y0113519D02*
X0084069Y0113519D01*
X0083165Y0115118D02*
X0059082Y0115118D01*
X0057540Y0108724D02*
X0090479Y0108724D01*
X0092077Y0107125D02*
X0057540Y0107125D01*
X0057540Y0105527D02*
X0093676Y0105527D01*
X0095275Y0103928D02*
X0057540Y0103928D01*
X0057540Y0102330D02*
X0096873Y0102330D01*
X0098472Y0100731D02*
X0057540Y0100731D01*
X0057540Y0099133D02*
X0100070Y0099133D01*
X0100519Y0097534D02*
X0057540Y0097534D01*
X0057540Y0091140D02*
X0058952Y0091140D01*
X0058952Y0089542D02*
X0057540Y0089542D01*
X0057540Y0087943D02*
X0058952Y0087943D01*
X0057540Y0086345D02*
X0081519Y0086345D01*
X0085861Y0086345D02*
X0089330Y0086345D01*
X0090928Y0087943D02*
X0086971Y0087943D01*
X0087731Y0084746D02*
X0057540Y0084746D01*
X0057540Y0083148D02*
X0086133Y0083148D01*
X0084534Y0081549D02*
X0057540Y0081549D01*
X0057540Y0079951D02*
X0069156Y0079951D01*
X0068498Y0079292D02*
X0068498Y0079292D01*
X0067558Y0078352D02*
X0057540Y0078352D01*
X0053540Y0078352D02*
X0021876Y0078352D01*
X0022187Y0078041D02*
X0021118Y0079110D01*
X0019721Y0079689D01*
X0018209Y0079689D01*
X0016813Y0079110D01*
X0015744Y0078041D01*
X0015165Y0076645D01*
X0015165Y0075133D01*
X0015744Y0073736D01*
X0016813Y0072667D01*
X0018209Y0072089D01*
X0019721Y0072089D01*
X0021118Y0072667D01*
X0022187Y0073736D01*
X0022765Y0075133D01*
X0022765Y0076645D01*
X0022187Y0078041D01*
X0022720Y0076754D02*
X0053540Y0076754D01*
X0053540Y0075155D02*
X0051005Y0075155D01*
X0050403Y0075756D02*
X0052325Y0073834D01*
X0052325Y0071116D01*
X0051244Y0070035D01*
X0051244Y0059588D01*
X0051257Y0059575D01*
X0051244Y0058679D01*
X0051244Y0057784D01*
X0051231Y0057771D01*
X0051230Y0057752D01*
X0050588Y0057129D01*
X0049955Y0056496D01*
X0049936Y0056496D01*
X0038743Y0045626D01*
X0038743Y0044148D01*
X0036820Y0042226D01*
X0034102Y0042226D01*
X0032180Y0044148D01*
X0032180Y0046866D01*
X0034102Y0048788D01*
X0035682Y0048788D01*
X0046844Y0059626D01*
X0046844Y0070035D01*
X0045763Y0071116D01*
X0045763Y0073834D01*
X0047685Y0075756D01*
X0050403Y0075756D01*
X0052325Y0073557D02*
X0053540Y0073557D01*
X0053540Y0071958D02*
X0052325Y0071958D01*
X0051568Y0070360D02*
X0053540Y0070360D01*
X0053540Y0068761D02*
X0051244Y0068761D01*
X0051244Y0067162D02*
X0053540Y0067162D01*
X0053540Y0065564D02*
X0051244Y0065564D01*
X0051244Y0063965D02*
X0053540Y0063965D01*
X0053540Y0062367D02*
X0051244Y0062367D01*
X0051244Y0060768D02*
X0053540Y0060768D01*
X0053540Y0059170D02*
X0051251Y0059170D01*
X0049044Y0058696D02*
X0035461Y0045507D01*
X0033143Y0043185D02*
X0024168Y0043185D01*
X0024087Y0043380D02*
X0021917Y0045550D01*
X0019082Y0046724D01*
X0016014Y0046724D01*
X0013179Y0045550D01*
X0011009Y0043380D01*
X0009835Y0040545D01*
X0009835Y0037476D01*
X0011009Y0034641D01*
X0013179Y0032472D01*
X0016014Y0031297D01*
X0019082Y0031297D01*
X0021917Y0032472D01*
X0024087Y0034641D01*
X0025261Y0037476D01*
X0025261Y0040545D01*
X0024087Y0043380D01*
X0024830Y0041586D02*
X0059979Y0041586D01*
X0061577Y0039988D02*
X0025261Y0039988D01*
X0025261Y0038389D02*
X0063176Y0038389D01*
X0064290Y0036791D02*
X0024977Y0036791D01*
X0024315Y0035192D02*
X0064290Y0035192D01*
X0064290Y0033594D02*
X0023039Y0033594D01*
X0020767Y0031995D02*
X0064290Y0031995D01*
X0064793Y0030397D02*
X0009731Y0030397D01*
X0008292Y0031995D02*
X0014329Y0031995D01*
X0012057Y0033594D02*
X0007369Y0033594D01*
X0006929Y0035192D02*
X0010781Y0035192D01*
X0010119Y0036791D02*
X0006685Y0036791D01*
X0006668Y0038389D02*
X0009835Y0038389D01*
X0009835Y0039988D02*
X0006668Y0039988D01*
X0006668Y0041586D02*
X0010266Y0041586D01*
X0010928Y0043185D02*
X0006668Y0043185D01*
X0006668Y0044783D02*
X0012412Y0044783D01*
X0015187Y0046382D02*
X0006668Y0046382D01*
X0006668Y0047980D02*
X0033295Y0047980D01*
X0032180Y0046382D02*
X0019909Y0046382D01*
X0022684Y0044783D02*
X0032180Y0044783D01*
X0037780Y0043185D02*
X0058380Y0043185D01*
X0056782Y0044783D02*
X0038743Y0044783D01*
X0039521Y0046382D02*
X0055183Y0046382D01*
X0053585Y0047980D02*
X0041167Y0047980D01*
X0042813Y0049579D02*
X0053540Y0049579D01*
X0053540Y0051177D02*
X0044459Y0051177D01*
X0046106Y0052776D02*
X0053540Y0052776D01*
X0053540Y0054374D02*
X0047752Y0054374D01*
X0049398Y0055973D02*
X0053540Y0055973D01*
X0053540Y0057571D02*
X0051044Y0057571D01*
X0049044Y0058696D02*
X0049044Y0072475D01*
X0047084Y0075155D02*
X0022765Y0075155D01*
X0022007Y0073557D02*
X0045763Y0073557D01*
X0045763Y0071958D02*
X0006668Y0071958D01*
X0006668Y0070360D02*
X0046520Y0070360D01*
X0046844Y0068761D02*
X0006668Y0068761D01*
X0006668Y0067162D02*
X0046844Y0067162D01*
X0046844Y0065564D02*
X0006668Y0065564D01*
X0006668Y0063965D02*
X0046844Y0063965D01*
X0046844Y0062367D02*
X0006668Y0062367D01*
X0006668Y0060768D02*
X0046844Y0060768D01*
X0046374Y0059170D02*
X0006668Y0059170D01*
X0006668Y0057571D02*
X0044728Y0057571D01*
X0043082Y0055973D02*
X0006668Y0055973D01*
X0006668Y0054374D02*
X0041436Y0054374D01*
X0039789Y0052776D02*
X0006668Y0052776D01*
X0006668Y0051177D02*
X0038143Y0051177D01*
X0036497Y0049579D02*
X0006668Y0049579D01*
X0012212Y0028798D02*
X0066156Y0028798D01*
X0071223Y0028798D02*
X0076156Y0028798D01*
X0074793Y0030397D02*
X0072586Y0030397D01*
X0073090Y0031995D02*
X0074290Y0031995D01*
X0074290Y0033594D02*
X0073090Y0033594D01*
X0073090Y0035192D02*
X0074290Y0035192D01*
X0074290Y0036791D02*
X0073090Y0036791D01*
X0073090Y0038389D02*
X0074290Y0038389D01*
X0074549Y0039988D02*
X0072831Y0039988D01*
X0071813Y0041586D02*
X0075566Y0041586D01*
X0075769Y0043185D02*
X0064037Y0043185D01*
X0062438Y0044783D02*
X0075769Y0044783D01*
X0075769Y0046382D02*
X0060840Y0046382D01*
X0059241Y0047980D02*
X0076409Y0047980D01*
X0078007Y0049579D02*
X0057643Y0049579D01*
X0057540Y0051177D02*
X0079606Y0051177D01*
X0078821Y0052776D02*
X0057540Y0052776D01*
X0057540Y0054374D02*
X0077223Y0054374D01*
X0075624Y0055973D02*
X0057540Y0055973D01*
X0057540Y0057571D02*
X0074994Y0057571D01*
X0077194Y0057515D02*
X0077194Y0074444D01*
X0077587Y0074838D01*
X0074306Y0075155D02*
X0070583Y0075155D01*
X0068985Y0073557D02*
X0074306Y0073557D01*
X0074994Y0071958D02*
X0068073Y0071958D01*
X0067317Y0070360D02*
X0074994Y0070360D01*
X0074994Y0068761D02*
X0057540Y0068761D01*
X0057540Y0067162D02*
X0074994Y0067162D01*
X0074994Y0065564D02*
X0057540Y0065564D01*
X0057540Y0063965D02*
X0074994Y0063965D01*
X0074994Y0062367D02*
X0057540Y0062367D01*
X0057540Y0060768D02*
X0074994Y0060768D01*
X0074994Y0059170D02*
X0057540Y0059170D01*
X0057540Y0070360D02*
X0062268Y0070360D01*
X0061511Y0071958D02*
X0057540Y0071958D01*
X0057540Y0073557D02*
X0061511Y0073557D01*
X0062832Y0075155D02*
X0057540Y0075155D01*
X0057540Y0076754D02*
X0065959Y0076754D01*
X0064792Y0072475D02*
X0070698Y0078381D01*
X0084477Y0078381D01*
X0102194Y0096097D01*
X0119517Y0096097D01*
X0119123Y0099837D02*
X0124438Y0099837D01*
X0119910Y0092160D02*
X0104162Y0092160D01*
X0108261Y0078352D02*
X0094994Y0078352D01*
X0089708Y0078352D02*
X0087560Y0078352D01*
X0085961Y0076754D02*
X0108261Y0076754D01*
X0108261Y0075155D02*
X0080868Y0075155D01*
X0080868Y0073557D02*
X0108261Y0073557D01*
X0108261Y0071958D02*
X0079394Y0071958D01*
X0079394Y0070360D02*
X0108261Y0070360D01*
X0108261Y0068761D02*
X0079394Y0068761D01*
X0079394Y0067162D02*
X0108261Y0067162D01*
X0108261Y0065564D02*
X0079394Y0065564D01*
X0079394Y0063965D02*
X0108261Y0063965D01*
X0108261Y0062367D02*
X0079394Y0062367D01*
X0079394Y0060768D02*
X0108261Y0060768D01*
X0108261Y0059170D02*
X0079394Y0059170D01*
X0080248Y0057571D02*
X0108755Y0057571D01*
X0109725Y0055973D02*
X0102122Y0055973D01*
X0103721Y0054374D02*
X0135527Y0054374D01*
X0135527Y0055973D02*
X0114347Y0055973D01*
X0115317Y0057571D02*
X0134966Y0057571D01*
X0140635Y0057571D02*
X0144046Y0057571D01*
X0142089Y0055973D02*
X0147928Y0055973D01*
X0147938Y0054374D02*
X0142089Y0054374D01*
X0139561Y0051177D02*
X0106918Y0051177D01*
X0108516Y0049579D02*
X0141159Y0049579D01*
X0139642Y0047980D02*
X0155356Y0047980D01*
X0156955Y0046382D02*
X0141241Y0046382D01*
X0142839Y0044783D02*
X0158553Y0044783D01*
X0158755Y0043185D02*
X0144438Y0043185D01*
X0146036Y0041586D02*
X0159939Y0041586D01*
X0159115Y0039988D02*
X0147635Y0039988D01*
X0149233Y0038389D02*
X0157516Y0038389D01*
X0157312Y0035074D02*
X0162036Y0039798D01*
X0166761Y0039798D01*
X0174635Y0047672D01*
X0174635Y0063814D01*
X0177587Y0066767D01*
X0194910Y0066767D01*
X0200973Y0060704D01*
X0200973Y0060664D01*
X0204426Y0059170D02*
X0207467Y0059170D01*
X0206151Y0060768D02*
X0204735Y0060768D01*
X0204552Y0062367D02*
X0204340Y0062367D01*
X0208611Y0063965D02*
X0220080Y0063965D01*
X0218894Y0065151D02*
X0224109Y0059936D01*
X0224109Y0058124D01*
X0224881Y0057352D01*
X0215703Y0057352D01*
X0209995Y0063061D01*
X0209515Y0063061D01*
X0206824Y0065752D01*
X0214337Y0065752D01*
X0215954Y0066422D01*
X0217192Y0067660D01*
X0217861Y0069277D01*
X0217861Y0071028D01*
X0217192Y0072645D01*
X0215954Y0073883D01*
X0214337Y0074552D01*
X0206586Y0074552D01*
X0204969Y0073883D01*
X0203731Y0072645D01*
X0203061Y0071028D01*
X0203061Y0069515D01*
X0202235Y0070341D01*
X0197904Y0070341D01*
X0185369Y0082877D01*
X0203508Y0082877D01*
X0203356Y0082668D01*
X0203013Y0081995D01*
X0202780Y0081276D01*
X0202661Y0080530D01*
X0202661Y0080352D01*
X0210261Y0080352D01*
X0210261Y0079952D01*
X0210661Y0079952D01*
X0210661Y0075352D01*
X0213839Y0075352D01*
X0214585Y0075471D01*
X0215304Y0075704D01*
X0215977Y0076047D01*
X0216588Y0076491D01*
X0217123Y0077025D01*
X0217567Y0077637D01*
X0217910Y0078310D01*
X0218143Y0079028D01*
X0218254Y0079728D01*
X0218894Y0079087D01*
X0218894Y0065151D01*
X0218894Y0065564D02*
X0207012Y0065564D01*
X0210689Y0062367D02*
X0221678Y0062367D01*
X0223277Y0060768D02*
X0212287Y0060768D01*
X0213886Y0059170D02*
X0224109Y0059170D01*
X0224662Y0057571D02*
X0215484Y0057571D01*
X0214792Y0055152D02*
X0247469Y0055152D01*
X0245248Y0057571D02*
X0230119Y0057571D01*
X0230672Y0059170D02*
X0256774Y0059170D01*
X0256774Y0060768D02*
X0230672Y0060768D01*
X0229147Y0062367D02*
X0256774Y0062367D01*
X0256774Y0063965D02*
X0225737Y0063965D01*
X0224138Y0065564D02*
X0256774Y0065564D01*
X0256774Y0067162D02*
X0222894Y0067162D01*
X0222894Y0068761D02*
X0256774Y0068761D01*
X0256774Y0070360D02*
X0222894Y0070360D01*
X0222894Y0071958D02*
X0256774Y0071958D01*
X0256774Y0073557D02*
X0222894Y0073557D01*
X0222894Y0075155D02*
X0256774Y0075155D01*
X0256774Y0076754D02*
X0222894Y0076754D01*
X0222894Y0078352D02*
X0248173Y0078352D01*
X0251884Y0078352D02*
X0256774Y0078352D01*
X0256774Y0079951D02*
X0253309Y0079951D01*
X0253309Y0081549D02*
X0256774Y0081549D01*
X0256774Y0083148D02*
X0252658Y0083148D01*
X0256774Y0084746D02*
X0240128Y0084746D01*
X0243538Y0086345D02*
X0256774Y0086345D01*
X0256774Y0087943D02*
X0244057Y0087943D01*
X0244057Y0089542D02*
X0256774Y0089542D01*
X0256774Y0091140D02*
X0242500Y0091140D01*
X0239053Y0091140D02*
X0217815Y0091140D01*
X0217861Y0089542D02*
X0237495Y0089542D01*
X0237495Y0087943D02*
X0217309Y0087943D01*
X0217098Y0092739D02*
X0256774Y0092739D01*
X0256774Y0094337D02*
X0214856Y0094337D01*
X0214779Y0095936D02*
X0256774Y0095936D01*
X0256774Y0097534D02*
X0217066Y0097534D01*
X0206144Y0095936D02*
X0195103Y0095936D01*
X0196606Y0094337D02*
X0206066Y0094337D01*
X0203825Y0092739D02*
X0196606Y0092739D01*
X0196606Y0091140D02*
X0203108Y0091140D01*
X0203061Y0089542D02*
X0196023Y0089542D01*
X0194425Y0087943D02*
X0203614Y0087943D01*
X0202868Y0081549D02*
X0186696Y0081549D01*
X0188295Y0079951D02*
X0202661Y0079951D01*
X0202661Y0079952D02*
X0202661Y0079775D01*
X0202780Y0079028D01*
X0203013Y0078310D01*
X0203356Y0077637D01*
X0203800Y0077025D01*
X0204334Y0076491D01*
X0204946Y0076047D01*
X0205619Y0075704D01*
X0206337Y0075471D01*
X0207084Y0075352D01*
X0210261Y0075352D01*
X0210261Y0079952D01*
X0202661Y0079952D01*
X0202999Y0078352D02*
X0189893Y0078352D01*
X0191492Y0076754D02*
X0204072Y0076754D01*
X0204643Y0073557D02*
X0194689Y0073557D01*
X0193090Y0075155D02*
X0218894Y0075155D01*
X0218894Y0073557D02*
X0216280Y0073557D01*
X0217476Y0071958D02*
X0218894Y0071958D01*
X0218894Y0070360D02*
X0217861Y0070360D01*
X0217648Y0068761D02*
X0218894Y0068761D01*
X0218894Y0067162D02*
X0216694Y0067162D01*
X0209083Y0060861D02*
X0208887Y0060861D01*
X0209083Y0060861D02*
X0214792Y0055152D01*
X0212459Y0054374D02*
X0188152Y0054374D01*
X0188152Y0055973D02*
X0210860Y0055973D01*
X0209262Y0057571D02*
X0203201Y0057571D01*
X0198746Y0057571D02*
X0193201Y0057571D01*
X0193104Y0057475D02*
X0194163Y0058533D01*
X0194735Y0059916D01*
X0194735Y0061413D01*
X0194163Y0062795D01*
X0193104Y0063854D01*
X0191722Y0064426D01*
X0190225Y0064426D01*
X0188842Y0063854D01*
X0187784Y0062795D01*
X0187211Y0061413D01*
X0187211Y0059916D01*
X0187784Y0058533D01*
X0188842Y0057475D01*
X0190225Y0056902D01*
X0191722Y0056902D01*
X0193104Y0057475D01*
X0194426Y0059170D02*
X0197520Y0059170D01*
X0197211Y0060768D02*
X0194735Y0060768D01*
X0194340Y0062367D02*
X0196199Y0062367D01*
X0194600Y0063965D02*
X0192835Y0063965D01*
X0189112Y0063965D02*
X0183511Y0063965D01*
X0184777Y0062367D02*
X0187606Y0062367D01*
X0187211Y0060768D02*
X0185135Y0060768D01*
X0184864Y0059170D02*
X0187520Y0059170D01*
X0187092Y0057571D02*
X0188746Y0057571D01*
X0184871Y0055152D02*
X0184871Y0054089D01*
X0165934Y0035152D01*
X0162706Y0035152D01*
X0162233Y0034680D01*
X0162430Y0034877D01*
X0157312Y0035074D02*
X0149438Y0035074D01*
X0138020Y0046491D01*
X0108493Y0046491D01*
X0101209Y0053775D01*
X0080934Y0053775D01*
X0077194Y0057515D01*
X0082767Y0045853D02*
X0094845Y0045853D01*
X0095126Y0045572D01*
X0097844Y0045572D01*
X0099766Y0047494D01*
X0099766Y0050212D01*
X0098404Y0051575D01*
X0100298Y0051575D01*
X0106293Y0045580D01*
X0106293Y0045580D01*
X0107582Y0044291D01*
X0130618Y0044291D01*
X0129823Y0043496D01*
X0129704Y0043209D01*
X0129424Y0042929D01*
X0129424Y0042533D01*
X0129306Y0042246D01*
X0129306Y0040893D01*
X0129424Y0040606D01*
X0129424Y0040211D01*
X0129704Y0039931D01*
X0129823Y0039644D01*
X0136095Y0033372D01*
X0137344Y0032855D01*
X0137596Y0032855D01*
X0142320Y0028131D01*
X0121782Y0028131D01*
X0123263Y0029612D01*
X0124572Y0032773D01*
X0124572Y0036194D01*
X0123263Y0039354D01*
X0120844Y0041773D01*
X0117684Y0043082D01*
X0114263Y0043082D01*
X0111102Y0041773D01*
X0108683Y0039354D01*
X0107374Y0036194D01*
X0107374Y0032773D01*
X0108683Y0029612D01*
X0110164Y0028131D01*
X0090714Y0028131D01*
X0091205Y0028382D01*
X0091817Y0028826D01*
X0092351Y0029360D01*
X0092795Y0029971D01*
X0093138Y0030645D01*
X0093372Y0031363D01*
X0093490Y0032109D01*
X0093490Y0035287D01*
X0088890Y0035287D01*
X0088890Y0035687D01*
X0093490Y0035687D01*
X0093490Y0038865D01*
X0093372Y0039611D01*
X0093138Y0040330D01*
X0092795Y0041003D01*
X0092351Y0041614D01*
X0091817Y0042148D01*
X0091205Y0042592D01*
X0090532Y0042935D01*
X0089814Y0043169D01*
X0089068Y0043287D01*
X0088890Y0043287D01*
X0088890Y0035687D01*
X0088490Y0035687D01*
X0088490Y0043287D01*
X0088312Y0043287D01*
X0087566Y0043169D01*
X0086847Y0042935D01*
X0086174Y0042592D01*
X0085563Y0042148D01*
X0085029Y0041614D01*
X0084584Y0041003D01*
X0084241Y0040330D01*
X0084008Y0039611D01*
X0083890Y0038865D01*
X0083890Y0035687D01*
X0088490Y0035687D01*
X0088490Y0035287D01*
X0083890Y0035287D01*
X0083890Y0032109D01*
X0084008Y0031363D01*
X0084241Y0030645D01*
X0084584Y0029971D01*
X0085029Y0029360D01*
X0085563Y0028826D01*
X0086174Y0028382D01*
X0086666Y0028131D01*
X0079671Y0028131D01*
X0081182Y0028757D01*
X0082420Y0029995D01*
X0083090Y0031612D01*
X0083090Y0039362D01*
X0082420Y0040980D01*
X0081768Y0041631D01*
X0081768Y0044855D01*
X0082767Y0045853D01*
X0081768Y0044783D02*
X0107089Y0044783D01*
X0105491Y0046382D02*
X0098654Y0046382D01*
X0099766Y0047980D02*
X0103892Y0047980D01*
X0102294Y0049579D02*
X0099766Y0049579D01*
X0100695Y0051177D02*
X0098801Y0051177D01*
X0105319Y0052776D02*
X0136151Y0052776D01*
X0146839Y0057571D02*
X0146839Y0057571D01*
X0146839Y0059170D02*
X0146839Y0059170D01*
X0146839Y0060664D02*
X0146839Y0060664D01*
X0146839Y0060664D01*
X0146839Y0064826D01*
X0147167Y0064826D01*
X0147814Y0064724D01*
X0148437Y0064522D01*
X0149021Y0064224D01*
X0149551Y0063839D01*
X0150014Y0063376D01*
X0150399Y0062846D01*
X0150697Y0062262D01*
X0150899Y0061639D01*
X0151002Y0060992D01*
X0151002Y0060664D01*
X0146839Y0060664D01*
X0146839Y0060768D02*
X0146839Y0060768D01*
X0146839Y0062367D02*
X0146839Y0062367D01*
X0146839Y0063965D02*
X0146839Y0063965D01*
X0144302Y0063965D02*
X0139055Y0063965D01*
X0140561Y0062367D02*
X0143036Y0062367D01*
X0142677Y0060768D02*
X0140956Y0060768D01*
X0140647Y0059170D02*
X0142948Y0059170D01*
X0150730Y0059170D02*
X0153032Y0059170D01*
X0152723Y0060768D02*
X0151002Y0060768D01*
X0150643Y0062367D02*
X0153118Y0062367D01*
X0154624Y0063965D02*
X0149377Y0063965D01*
X0158346Y0063965D02*
X0160217Y0063965D01*
X0160217Y0062367D02*
X0159852Y0062367D01*
X0166217Y0062367D02*
X0172435Y0062367D01*
X0172435Y0063965D02*
X0166217Y0063965D01*
X0166217Y0065564D02*
X0173273Y0065564D01*
X0173723Y0066014D02*
X0172435Y0064725D01*
X0172435Y0048583D01*
X0165849Y0041998D01*
X0164546Y0041998D01*
X0165317Y0042770D01*
X0165317Y0045488D01*
X0163395Y0047410D01*
X0161584Y0047410D01*
X0157343Y0051650D01*
X0156250Y0052743D01*
X0160861Y0052743D01*
X0161964Y0053200D01*
X0164917Y0056152D01*
X0165761Y0056996D01*
X0166217Y0058099D01*
X0166217Y0077138D01*
X0172250Y0083171D01*
X0172647Y0083171D01*
X0174569Y0085093D01*
X0174569Y0087811D01*
X0174385Y0087995D01*
X0174594Y0087995D01*
X0193622Y0068967D01*
X0176676Y0068967D01*
X0175387Y0067678D01*
X0175387Y0067678D01*
X0173723Y0066014D01*
X0173723Y0066014D01*
X0174872Y0067162D02*
X0166217Y0067162D01*
X0166217Y0068761D02*
X0176470Y0068761D01*
X0166217Y0070360D02*
X0192229Y0070360D01*
X0190631Y0071958D02*
X0166217Y0071958D01*
X0166217Y0073557D02*
X0189032Y0073557D01*
X0187434Y0075155D02*
X0166217Y0075155D01*
X0166217Y0076754D02*
X0185835Y0076754D01*
X0184237Y0078352D02*
X0167431Y0078352D01*
X0169030Y0079951D02*
X0182638Y0079951D01*
X0181040Y0081549D02*
X0170628Y0081549D01*
X0172227Y0083148D02*
X0179441Y0083148D01*
X0177842Y0084746D02*
X0174223Y0084746D01*
X0174569Y0086345D02*
X0176244Y0086345D01*
X0174645Y0087943D02*
X0174437Y0087943D01*
X0182540Y0089542D02*
X0186789Y0089542D01*
X0186206Y0091140D02*
X0182540Y0091140D01*
X0183452Y0087943D02*
X0188388Y0087943D01*
X0203857Y0097534D02*
X0166781Y0097534D01*
X0168380Y0099133D02*
X0203121Y0099133D01*
X0203061Y0100731D02*
X0169978Y0100731D01*
X0171577Y0102330D02*
X0203601Y0102330D01*
X0182386Y0121512D02*
X0180601Y0121512D01*
X0181424Y0123110D02*
X0181620Y0123110D01*
X0181254Y0132701D02*
X0182188Y0132701D01*
X0181821Y0134300D02*
X0181621Y0134300D01*
X0181471Y0135898D02*
X0181971Y0135898D01*
X0182727Y0137497D02*
X0180716Y0137497D01*
X0178580Y0139095D02*
X0184862Y0139095D01*
X0188580Y0139095D02*
X0194862Y0139095D01*
X0192727Y0137497D02*
X0190716Y0137497D01*
X0191471Y0135898D02*
X0191971Y0135898D01*
X0191821Y0134300D02*
X0191621Y0134300D01*
X0191254Y0132701D02*
X0192188Y0132701D01*
X0201471Y0135898D02*
X0201583Y0135898D01*
X0202303Y0137497D02*
X0200716Y0137497D01*
X0198580Y0139095D02*
X0203945Y0139095D01*
X0206537Y0139095D02*
X0206906Y0139095D01*
X0206906Y0137497D02*
X0206537Y0137497D01*
X0206537Y0135898D02*
X0206906Y0135898D01*
X0211140Y0137497D02*
X0212727Y0137497D01*
X0211971Y0135898D02*
X0211860Y0135898D01*
X0209498Y0139095D02*
X0214862Y0139095D01*
X0212188Y0132701D02*
X0211689Y0132701D01*
X0210758Y0131103D02*
X0213251Y0131103D01*
X0230192Y0131103D02*
X0238184Y0131103D01*
X0238846Y0132701D02*
X0231254Y0132701D01*
X0231621Y0134300D02*
X0239724Y0134300D01*
X0241323Y0135898D02*
X0231471Y0135898D01*
X0230716Y0137497D02*
X0254391Y0137497D01*
X0174862Y0139095D02*
X0169498Y0139095D01*
X0171140Y0137497D02*
X0172727Y0137497D01*
X0171971Y0135898D02*
X0171860Y0135898D01*
X0166906Y0135898D02*
X0166537Y0135898D01*
X0166537Y0137497D02*
X0166906Y0137497D01*
X0166906Y0139095D02*
X0166537Y0139095D01*
X0163945Y0139095D02*
X0158580Y0139095D01*
X0160716Y0137497D02*
X0162303Y0137497D01*
X0161583Y0135898D02*
X0161471Y0135898D01*
X0154862Y0139095D02*
X0148580Y0139095D01*
X0150716Y0137497D02*
X0152727Y0137497D01*
X0151971Y0135898D02*
X0151471Y0135898D01*
X0151621Y0134300D02*
X0151821Y0134300D01*
X0152188Y0132701D02*
X0151254Y0132701D01*
X0142727Y0137497D02*
X0141140Y0137497D01*
X0141860Y0135898D02*
X0141971Y0135898D01*
X0136906Y0135898D02*
X0136537Y0135898D01*
X0136537Y0137497D02*
X0136906Y0137497D01*
X0136906Y0139095D02*
X0136537Y0139095D01*
X0133945Y0139095D02*
X0128580Y0139095D01*
X0130716Y0137497D02*
X0132303Y0137497D01*
X0131583Y0135898D02*
X0131471Y0135898D01*
X0124862Y0139095D02*
X0118580Y0139095D01*
X0120716Y0137497D02*
X0122727Y0137497D01*
X0121971Y0135898D02*
X0121471Y0135898D01*
X0121621Y0134300D02*
X0121821Y0134300D01*
X0122188Y0132701D02*
X0121254Y0132701D01*
X0112188Y0132701D02*
X0111254Y0132701D01*
X0111621Y0134300D02*
X0111821Y0134300D01*
X0111971Y0135898D02*
X0111471Y0135898D01*
X0110716Y0137497D02*
X0112727Y0137497D01*
X0114862Y0139095D02*
X0108580Y0139095D01*
X0104862Y0139095D02*
X0098580Y0139095D01*
X0100716Y0137497D02*
X0102727Y0137497D01*
X0101971Y0135898D02*
X0101471Y0135898D01*
X0101621Y0134300D02*
X0101821Y0134300D01*
X0102188Y0132701D02*
X0101254Y0132701D01*
X0091971Y0135898D02*
X0091860Y0135898D01*
X0091140Y0137497D02*
X0092727Y0137497D01*
X0094862Y0139095D02*
X0089498Y0139095D01*
X0086906Y0139095D02*
X0086537Y0139095D01*
X0086537Y0137497D02*
X0086906Y0137497D01*
X0086906Y0135898D02*
X0086537Y0135898D01*
X0083945Y0139095D02*
X0078580Y0139095D01*
X0080716Y0137497D02*
X0082303Y0137497D01*
X0081583Y0135898D02*
X0081471Y0135898D01*
X0074862Y0139095D02*
X0069498Y0139095D01*
X0071140Y0137497D02*
X0072727Y0137497D01*
X0071971Y0135898D02*
X0071860Y0135898D01*
X0066906Y0135898D02*
X0066537Y0135898D01*
X0066537Y0137497D02*
X0066906Y0137497D01*
X0066906Y0139095D02*
X0066537Y0139095D01*
X0063945Y0139095D02*
X0058580Y0139095D01*
X0060716Y0137497D02*
X0062303Y0137497D01*
X0061583Y0135898D02*
X0061471Y0135898D01*
X0061254Y0132701D02*
X0061753Y0132701D01*
X0061339Y0131103D02*
X0060192Y0131103D01*
X0059741Y0129504D02*
X0038661Y0129504D01*
X0034782Y0129504D02*
X0025261Y0129504D01*
X0025261Y0128028D02*
X0024087Y0125193D01*
X0021917Y0123023D01*
X0019082Y0121849D01*
X0016014Y0121849D01*
X0013179Y0123023D01*
X0011009Y0125193D01*
X0009835Y0128028D01*
X0009835Y0131096D01*
X0011009Y0133931D01*
X0013179Y0136101D01*
X0016014Y0137275D01*
X0019082Y0137275D01*
X0021917Y0136101D01*
X0024087Y0133931D01*
X0025261Y0131096D01*
X0025261Y0128028D01*
X0025211Y0127906D02*
X0032600Y0127906D01*
X0031716Y0126307D02*
X0024549Y0126307D01*
X0023603Y0124709D02*
X0036537Y0124709D01*
X0036537Y0123110D02*
X0036906Y0123110D01*
X0036906Y0121512D02*
X0036537Y0121512D01*
X0036537Y0119913D02*
X0036906Y0119913D01*
X0034170Y0119913D02*
X0006668Y0119913D01*
X0006668Y0118315D02*
X0033770Y0118315D01*
X0032959Y0116716D02*
X0006668Y0116716D01*
X0006668Y0115118D02*
X0032959Y0115118D01*
X0032959Y0113519D02*
X0006668Y0113519D01*
X0006668Y0111921D02*
X0032959Y0111921D01*
X0040483Y0116716D02*
X0043148Y0116716D01*
X0046721Y0115118D02*
X0046721Y0115118D01*
X0046721Y0114562D02*
X0046721Y0114562D01*
X0046721Y0113519D02*
X0046721Y0113519D01*
X0032386Y0121512D02*
X0006668Y0121512D01*
X0006668Y0123110D02*
X0013091Y0123110D01*
X0011493Y0124709D02*
X0006668Y0124709D01*
X0006668Y0126307D02*
X0010547Y0126307D01*
X0009885Y0127906D02*
X0006668Y0127906D01*
X0006668Y0129504D02*
X0009835Y0129504D01*
X0009837Y0131103D02*
X0006668Y0131103D01*
X0006745Y0132694D02*
X0006745Y0132694D01*
X0006747Y0132701D02*
X0010500Y0132701D01*
X0011378Y0134300D02*
X0007175Y0134300D01*
X0007900Y0135898D02*
X0012976Y0135898D01*
X0009052Y0137497D02*
X0032727Y0137497D01*
X0031971Y0135898D02*
X0022120Y0135898D01*
X0023718Y0134300D02*
X0031821Y0134300D01*
X0032188Y0132701D02*
X0024596Y0132701D01*
X0025259Y0131103D02*
X0033251Y0131103D01*
X0031620Y0123110D02*
X0022005Y0123110D01*
X0011013Y0139095D02*
X0034862Y0139095D01*
X0078303Y0119913D02*
X0085140Y0119913D01*
X0100601Y0121512D02*
X0102386Y0121512D01*
X0101620Y0123110D02*
X0101424Y0123110D01*
X0139498Y0139095D02*
X0144862Y0139095D01*
X0158058Y0103928D02*
X0162228Y0103928D01*
X0160630Y0102330D02*
X0158624Y0102330D01*
X0158624Y0100731D02*
X0159031Y0100731D01*
X0155343Y0102003D02*
X0143532Y0102003D01*
X0139595Y0098066D01*
X0163584Y0094337D02*
X0164534Y0094337D01*
X0165183Y0095936D02*
X0166133Y0095936D01*
X0196287Y0071958D02*
X0203447Y0071958D01*
X0203061Y0070360D02*
X0197886Y0070360D01*
X0210261Y0076754D02*
X0210661Y0076754D01*
X0210661Y0078352D02*
X0210261Y0078352D01*
X0210261Y0079951D02*
X0210661Y0079951D01*
X0216851Y0076754D02*
X0218894Y0076754D01*
X0218894Y0078352D02*
X0217923Y0078352D01*
X0180973Y0059170D02*
X0180973Y0059170D01*
X0177082Y0059170D02*
X0176835Y0059170D01*
X0176835Y0057571D02*
X0178180Y0057571D01*
X0176835Y0055973D02*
X0181590Y0055973D01*
X0181590Y0054374D02*
X0176835Y0054374D01*
X0176835Y0052776D02*
X0180446Y0052776D01*
X0178848Y0051177D02*
X0176835Y0051177D01*
X0176835Y0049579D02*
X0177249Y0049579D01*
X0172435Y0049579D02*
X0159415Y0049579D01*
X0161013Y0047980D02*
X0171832Y0047980D01*
X0170233Y0046382D02*
X0164423Y0046382D01*
X0165317Y0044783D02*
X0168635Y0044783D01*
X0167036Y0043185D02*
X0165317Y0043185D01*
X0172435Y0051177D02*
X0157816Y0051177D01*
X0157343Y0051650D02*
X0157343Y0051650D01*
X0160941Y0052776D02*
X0172435Y0052776D01*
X0172435Y0054374D02*
X0163139Y0054374D01*
X0164737Y0055973D02*
X0172435Y0055973D01*
X0172435Y0057571D02*
X0165999Y0057571D01*
X0166217Y0059170D02*
X0172435Y0059170D01*
X0172435Y0060768D02*
X0166217Y0060768D01*
X0180973Y0057571D02*
X0180973Y0057571D01*
X0187134Y0052776D02*
X0245206Y0052776D01*
X0249733Y0052776D02*
X0256774Y0052776D01*
X0256774Y0054374D02*
X0250750Y0054374D01*
X0250750Y0055973D02*
X0256774Y0055973D01*
X0256774Y0057571D02*
X0249690Y0057571D01*
X0256774Y0051177D02*
X0195258Y0051177D01*
X0196856Y0049579D02*
X0256774Y0049579D01*
X0256774Y0047980D02*
X0197129Y0047980D01*
X0196712Y0046382D02*
X0243534Y0046382D01*
X0244360Y0046724D02*
X0241525Y0045550D01*
X0239355Y0043380D01*
X0238181Y0040545D01*
X0238181Y0037476D01*
X0239355Y0034641D01*
X0241525Y0032472D01*
X0244360Y0031297D01*
X0247429Y0031297D01*
X0250264Y0032472D01*
X0252434Y0034641D01*
X0253608Y0037476D01*
X0253608Y0040545D01*
X0252434Y0043380D01*
X0250264Y0045550D01*
X0247429Y0046724D01*
X0244360Y0046724D01*
X0240759Y0044783D02*
X0195255Y0044783D01*
X0192201Y0051177D02*
X0185070Y0051177D01*
X0184011Y0043185D02*
X0239275Y0043185D01*
X0238612Y0041586D02*
X0226346Y0041586D01*
X0227945Y0039988D02*
X0238181Y0039988D01*
X0238181Y0038389D02*
X0228978Y0038389D01*
X0229640Y0036791D02*
X0238465Y0036791D01*
X0239127Y0035192D02*
X0229887Y0035192D01*
X0229887Y0033594D02*
X0240403Y0033594D01*
X0242675Y0031995D02*
X0229565Y0031995D01*
X0228903Y0030397D02*
X0253712Y0030397D01*
X0255151Y0031995D02*
X0249114Y0031995D01*
X0251386Y0033594D02*
X0256074Y0033594D01*
X0256514Y0035192D02*
X0252662Y0035192D01*
X0253324Y0036791D02*
X0256758Y0036791D01*
X0256774Y0038389D02*
X0253608Y0038389D01*
X0253608Y0039988D02*
X0256774Y0039988D01*
X0256774Y0041586D02*
X0253177Y0041586D01*
X0252514Y0043185D02*
X0256774Y0043185D01*
X0256774Y0044783D02*
X0251030Y0044783D01*
X0248255Y0046382D02*
X0256774Y0046382D01*
X0251231Y0028798D02*
X0227764Y0028798D01*
X0214812Y0028798D02*
X0169624Y0028798D01*
X0171223Y0030397D02*
X0213673Y0030397D01*
X0213011Y0031995D02*
X0172821Y0031995D01*
X0174420Y0033594D02*
X0212689Y0033594D01*
X0212689Y0035192D02*
X0176018Y0035192D01*
X0177617Y0036791D02*
X0212936Y0036791D01*
X0213598Y0038389D02*
X0179215Y0038389D01*
X0180814Y0039988D02*
X0214632Y0039988D01*
X0216230Y0041586D02*
X0182412Y0041586D01*
X0141653Y0028798D02*
X0122449Y0028798D01*
X0123588Y0030397D02*
X0140054Y0030397D01*
X0138456Y0031995D02*
X0124250Y0031995D01*
X0124572Y0033594D02*
X0135873Y0033594D01*
X0134275Y0035192D02*
X0124572Y0035192D01*
X0124325Y0036791D02*
X0132676Y0036791D01*
X0131078Y0038389D02*
X0123663Y0038389D01*
X0122630Y0039988D02*
X0129647Y0039988D01*
X0129306Y0041586D02*
X0121031Y0041586D01*
X0129680Y0043185D02*
X0089713Y0043185D01*
X0088890Y0043185D02*
X0088490Y0043185D01*
X0087666Y0043185D02*
X0081768Y0043185D01*
X0081813Y0041586D02*
X0085008Y0041586D01*
X0084130Y0039988D02*
X0082831Y0039988D01*
X0083090Y0038389D02*
X0083890Y0038389D01*
X0088490Y0038389D02*
X0088890Y0038389D01*
X0088890Y0039988D02*
X0088490Y0039988D01*
X0088490Y0041586D02*
X0088890Y0041586D01*
X0092371Y0041586D02*
X0110915Y0041586D01*
X0109317Y0039988D02*
X0093249Y0039988D01*
X0093490Y0038389D02*
X0108283Y0038389D01*
X0107621Y0036791D02*
X0093490Y0036791D01*
X0093490Y0035192D02*
X0107374Y0035192D01*
X0107374Y0033594D02*
X0093490Y0033594D01*
X0093472Y0031995D02*
X0107696Y0031995D01*
X0108358Y0030397D02*
X0093012Y0030397D01*
X0091779Y0028798D02*
X0109497Y0028798D01*
X0088890Y0036791D02*
X0088490Y0036791D01*
X0083890Y0036791D02*
X0083090Y0036791D01*
X0083090Y0035192D02*
X0083890Y0035192D01*
X0083890Y0033594D02*
X0083090Y0033594D01*
X0083090Y0031995D02*
X0083908Y0031995D01*
X0084368Y0030397D02*
X0082586Y0030397D01*
X0081223Y0028798D02*
X0085601Y0028798D01*
X0015923Y0073557D02*
X0006668Y0073557D01*
X0006668Y0075155D02*
X0015165Y0075155D01*
X0015211Y0076754D02*
X0006668Y0076754D01*
X0006668Y0078352D02*
X0016055Y0078352D01*
X0006668Y0079951D02*
X0053540Y0079951D01*
X0053540Y0081549D02*
X0006668Y0081549D01*
X0006668Y0083148D02*
X0053540Y0083148D01*
X0053540Y0084746D02*
X0006668Y0084746D01*
X0006668Y0086345D02*
X0053540Y0086345D01*
X0053540Y0087943D02*
X0006668Y0087943D01*
D20*
X0034674Y0088223D03*
X0046682Y0085861D03*
X0059280Y0094916D03*
X0062627Y0083696D03*
X0059871Y0077003D03*
X0064792Y0072475D03*
X0077587Y0074838D03*
X0085855Y0073656D03*
X0097272Y0073853D03*
X0092351Y0080349D03*
X0082706Y0083105D03*
X0083690Y0088814D03*
X0110461Y0088420D03*
X0121879Y0083302D03*
X0131328Y0086649D03*
X0137627Y0088223D03*
X0129162Y0090782D03*
X0119517Y0096097D03*
X0124438Y0099837D03*
X0135658Y0102003D03*
X0118532Y0110271D03*
X0112627Y0110664D03*
X0104359Y0104365D03*
X0123847Y0114404D03*
X0132509Y0117948D03*
X0149438Y0113814D03*
X0157312Y0117751D03*
X0171682Y0120113D03*
X0189005Y0109877D03*
X0194713Y0106334D03*
X0198454Y0114404D03*
X0219713Y0104956D03*
X0236052Y0103971D03*
X0247272Y0103381D03*
X0255146Y0115979D03*
X0240776Y0088223D03*
X0250028Y0081137D03*
X0220894Y0081727D03*
X0199831Y0092751D03*
X0193532Y0080546D03*
X0178375Y0080349D03*
X0171288Y0086452D03*
X0148454Y0087830D03*
X0148847Y0073853D03*
X0133690Y0072475D03*
X0128375Y0073853D03*
X0121091Y0069523D03*
X0115973Y0069719D03*
X0114005Y0065389D03*
X0121091Y0061649D03*
X0112036Y0058302D03*
X0096485Y0048853D03*
X0083296Y0042751D03*
X0073847Y0042357D03*
X0035461Y0045507D03*
X0027194Y0054562D03*
X0008296Y0052397D03*
X0049044Y0072475D03*
X0027194Y0107908D03*
X0008296Y0117948D03*
X0059280Y0111452D03*
X0062036Y0115389D03*
X0082115Y0111058D03*
X0086446Y0115782D03*
X0155343Y0102003D03*
X0162824Y0108696D03*
X0172272Y0105743D03*
X0151800Y0064011D03*
X0151209Y0055743D03*
X0138808Y0054759D03*
X0155934Y0043341D03*
X0162036Y0044129D03*
X0162233Y0034680D03*
X0172863Y0029759D03*
X0190776Y0031924D03*
X0205737Y0032712D03*
X0205737Y0038223D03*
X0205737Y0043932D03*
X0193729Y0048066D03*
X0184871Y0055152D03*
X0170501Y0053381D03*
X0132706Y0041570D03*
X0134674Y0030349D03*
X0216170Y0050625D03*
X0221485Y0059483D03*
X0227391Y0059483D03*
X0247469Y0060271D03*
X0247469Y0055152D03*
D21*
X0193729Y0048066D02*
X0192548Y0046885D01*
X0182902Y0046885D01*
X0165776Y0029759D01*
X0145501Y0029759D01*
X0139005Y0036255D01*
X0138020Y0036255D01*
X0132706Y0041570D01*
D22*
X0151209Y0055743D02*
X0160265Y0055743D01*
X0163217Y0058696D01*
X0163217Y0078381D01*
X0171288Y0086452D01*
X0096485Y0048853D02*
X0081524Y0048853D01*
X0078769Y0046097D01*
X0078769Y0035526D01*
X0078690Y0035487D01*
D23*
X0062233Y0089798D03*
M02*
