%
M48
M72
T01C0.02362
T02C0.03150
T03C0.03200
T04C0.03937
T05C0.04000
T06C0.10827
T07C0.12598
%
T01
X35461Y45507
X27194Y54562
X8296Y52397
X49044Y72475
X59871Y77003
X64792Y72475
X77587Y74838
X85855Y73656
X97272Y73853
X92351Y80349
X82706Y83105
X83690Y88814
X62233Y89798
X59280Y94916
X46682Y85861
X34674Y88223
X62627Y83696
X104359Y104365
X112627Y110664
X118532Y110271
X123847Y114404
X132509Y117948
X149438Y113814
X157312Y117751
X171682Y120113
X189005Y109877
X194713Y106334
X198454Y114404
X219713Y104956
X236052Y103971
X247272Y103381
X255146Y115979
X199831Y92751
X193532Y80546
X178375Y80349
X171288Y86452
X148454Y87830
X137627Y88223
X131328Y86649
X129162Y90782
X119517Y96097
X124438Y99837
X135658Y102003
X155343Y102003
X162824Y108696
X172272Y105743
X220894Y81727
X240776Y88223
X250028Y81137
X247469Y60271
X247469Y55152
X227391Y59483
X221485Y59483
X216170Y50625
X205737Y43932
X205737Y38223
X205737Y32712
X190776Y31924
X172863Y29759
X162233Y34680
X162036Y44129
X155934Y43341
X170501Y53381
X184871Y55152
X193729Y48066
X151209Y55743
X138808Y54759
X151800Y64011
X133690Y72475
X128375Y73853
X121091Y69523
X115973Y69719
X114005Y65389
X121091Y61649
X112036Y58302
X96485Y48853
X83296Y42751
X73847Y42357
X132706Y41570
X134674Y30349
X148847Y73853
X121879Y83302
X110461Y88420
X82115Y111058
X86446Y115782
X62036Y115389
X59280Y111452
X27194Y107908
X8296Y117948
T02
X137194Y60664
X146839Y60664
X156485Y60664
X180973Y60664
X190973Y60664
X200973Y60664
X46721Y114562
X36721Y114562
T03
X18965Y75889
X18965Y94889
T04
X226721Y124562
X216721Y124562
X206721Y124562
X196721Y124562
X186721Y124562
X176721Y124562
X166721Y124562
X156721Y124562
X146721Y124562
X136721Y124562
X126721Y124562
X116721Y124562
X106721Y124562
X96721Y124562
X86721Y124562
X76721Y124562
X66721Y124562
X56721Y124562
X46721Y124562
X36721Y124562
X36721Y134562
X46721Y134562
X56721Y134562
X66721Y134562
X76721Y134562
X86721Y134562
X96721Y134562
X106721Y134562
X116721Y134562
X126721Y134562
X136721Y134562
X146721Y134562
X156721Y134562
X166721Y134562
X176721Y134562
X186721Y134562
X196721Y134562
X206721Y134562
X216721Y134562
X226721Y134562
T05
X68690Y35487
X78690Y35487
X88690Y35487
X210461Y70152
X210461Y80152
X210461Y90152
X210461Y100152
X210461Y110152
X191406Y92278
T06
X17548Y39011
X245894Y39011
X245894Y129562
X17548Y129562
T07
X115973Y34483
X221288Y34483
M30
