G04 Layer_Color=65535*
%FSLAX25Y25*%
%MOIN*%
G70*
G01*
G75*
%ADD16C,0.01000*%
%ADD28C,0.00984*%
%ADD29C,0.02362*%
%ADD30C,0.00787*%
%ADD31C,0.00500*%
%ADD32C,0.00800*%
D16*
X17895Y23500D02*
Y27499D01*
X19894D01*
X20561Y26832D01*
Y25499D01*
X19894Y24833D01*
X17895D01*
X19228D02*
X20561Y23500D01*
X21893D02*
X23226D01*
X22560D01*
Y27499D01*
X21893Y26832D01*
X61000Y48500D02*
Y52499D01*
X62999D01*
X63666Y51832D01*
Y50499D01*
X62999Y49833D01*
X61000D01*
X62333D02*
X63666Y48500D01*
X67664D02*
X64999D01*
X67664Y51166D01*
Y51832D01*
X66998Y52499D01*
X65665D01*
X64999Y51832D01*
X33071Y43832D02*
X32405Y44499D01*
X31072D01*
X30406Y43832D01*
Y41166D01*
X31072Y40500D01*
X32405D01*
X33071Y41166D01*
X34404Y40500D02*
X35737D01*
X35071D01*
Y44499D01*
X34404Y43832D01*
X69000Y83555D02*
Y87054D01*
X70749D01*
X71333Y86471D01*
Y85304D01*
X70749Y84721D01*
X69000D01*
X70166D02*
X71333Y83555D01*
X72499Y86471D02*
X73082Y87054D01*
X74248D01*
X74831Y86471D01*
Y85888D01*
X74248Y85304D01*
X73665D01*
X74248D01*
X74831Y84721D01*
Y84138D01*
X74248Y83555D01*
X73082D01*
X72499Y84138D01*
X44666Y52305D02*
X43999Y52971D01*
X42667D01*
X42000Y52305D01*
Y49639D01*
X42667Y48972D01*
X43999D01*
X44666Y49639D01*
X48665Y48972D02*
X45999D01*
X48665Y51638D01*
Y52305D01*
X47998Y52971D01*
X46665D01*
X45999Y52305D01*
D28*
X30823Y91689D02*
G03*
X30823Y91689I-492J0D01*
G01*
X84992Y92618D02*
G03*
X84992Y92618I-492J0D01*
G01*
X43992Y44118D02*
G03*
X43992Y44118I-492J0D01*
G01*
D29*
X94185Y89114D02*
G03*
X94185Y89114I-1181J0D01*
G01*
X53185Y40339D02*
G03*
X53185Y40339I-1181J0D01*
G01*
D30*
X97000Y93051D02*
G03*
X102000Y93051I2500J0D01*
G01*
X56000Y44276D02*
G03*
X61000Y44276I2500J0D01*
G01*
X85996Y3161D02*
X89933D01*
X85996Y9461D02*
X89933D01*
X43532Y54850D02*
X47469D01*
X43532Y61150D02*
X47469D01*
X36827Y65311D02*
Y91689D01*
X47063Y65311D02*
Y91689D01*
X36827D02*
X47063D01*
X36827Y65311D02*
X47063D01*
X24044Y11531D02*
Y15469D01*
X17745Y11531D02*
Y15469D01*
X62532Y61150D02*
X66469D01*
X62532Y54850D02*
X66469D01*
X89067Y11949D02*
X109933D01*
X102000Y93051D02*
X109933D01*
X89067D02*
X97000D01*
X109933Y11949D02*
Y93051D01*
X89067Y11949D02*
Y93051D01*
X48067Y3724D02*
Y44276D01*
X68933Y3724D02*
Y44276D01*
X48067D02*
X56000D01*
X61000D02*
X68933D01*
X48067Y3724D02*
X68933D01*
X33000Y10500D02*
Y16500D01*
Y46500D02*
Y52500D01*
X28000Y16500D02*
X38000D01*
X28000D02*
Y46500D01*
X38000D01*
Y16500D02*
Y46500D01*
X68850Y72531D02*
Y76468D01*
X75150Y72531D02*
Y76468D01*
D31*
X12960Y14469D02*
Y94468D01*
X2960D02*
X12960D01*
X2960Y14469D02*
Y94468D01*
Y14469D02*
X12960D01*
X14000Y101500D02*
X34000D01*
Y111500D01*
X14000D02*
X34000D01*
X14000Y101500D02*
Y111500D01*
X34661Y101500D02*
Y111500D01*
X75000D01*
Y101500D02*
Y111500D01*
X34661Y101500D02*
X75000D01*
X105000D02*
Y111500D01*
X75000Y101500D02*
X105000D01*
X75000D02*
Y111500D01*
X105000D01*
D32*
X14000Y87500D02*
Y89833D01*
X15166Y90999D01*
X16333Y89833D01*
Y87500D01*
Y89249D01*
X14000D01*
Y81499D02*
Y78000D01*
X15749D01*
X16333Y78583D01*
Y79166D01*
X15749Y79749D01*
X14000D01*
X15749D01*
X16333Y80333D01*
Y80916D01*
X15749Y81499D01*
X14000D01*
X16333Y70416D02*
X15749Y70999D01*
X14583D01*
X14000Y70416D01*
Y68083D01*
X14583Y67500D01*
X15749D01*
X16333Y68083D01*
X14000Y60999D02*
Y57500D01*
X15749D01*
X16333Y58083D01*
Y60416D01*
X15749Y60999D01*
X14000D01*
X16333Y50999D02*
X14000D01*
Y47500D01*
X16333D01*
X14000Y49249D02*
X15166D01*
X16333Y40999D02*
X14000D01*
Y39249D01*
X15166D01*
X14000D01*
Y37500D01*
X16333Y30416D02*
X15749Y30999D01*
X14583D01*
X14000Y30416D01*
Y28083D01*
X14583Y27500D01*
X15749D01*
X16333Y28083D01*
Y29249D01*
X15166D01*
X14000Y20499D02*
Y17000D01*
Y18166D01*
X16333Y20499D01*
X14583Y18749D01*
X16333Y17000D01*
X97964Y4343D02*
Y7841D01*
X99714D01*
X100297Y7258D01*
Y6092D01*
X99714Y5509D01*
X97964D01*
X99131D02*
X100297Y4343D01*
X103213D02*
Y7841D01*
X101463Y6092D01*
X103796D01*
X78740Y99999D02*
Y96500D01*
X80490D01*
X81073Y97083D01*
Y99416D01*
X80490Y99999D01*
X78740D01*
X89000D02*
Y97083D01*
X89583Y96500D01*
X90749D01*
X91333Y97083D01*
Y99999D01*
X98800Y96500D02*
Y99999D01*
X101133Y96500D01*
Y99999D01*
X63369Y99416D02*
X62786Y99999D01*
X61619D01*
X61036Y99416D01*
Y97083D01*
X61619Y96500D01*
X62786D01*
X63369Y97083D01*
Y98249D01*
X62203D01*
X64535Y96500D02*
Y99999D01*
X66868Y96500D01*
Y99999D01*
X68034D02*
Y96500D01*
X69783D01*
X70367Y97083D01*
Y99416D01*
X69783Y99999D01*
X68034D01*
X26777Y99416D02*
X26194Y99999D01*
X25028D01*
X24445Y99416D01*
Y97083D01*
X25028Y96500D01*
X26194D01*
X26777Y97083D01*
Y98249D01*
X25611D01*
X27944Y96500D02*
Y99999D01*
X30276Y96500D01*
Y99999D01*
X31443D02*
Y96500D01*
X33192D01*
X33775Y97083D01*
Y99416D01*
X33192Y99999D01*
X31443D01*
X13000Y96500D02*
X14166D01*
X13583D01*
Y99999D01*
X13000Y99416D01*
X18248Y96500D02*
X15916D01*
X18248Y98832D01*
Y99416D01*
X17665Y99999D01*
X16499D01*
X15916Y99416D01*
X19415Y99999D02*
Y97666D01*
X20581Y96500D01*
X21747Y97666D01*
Y99999D01*
X45506D02*
X43173D01*
Y98249D01*
X44339Y98832D01*
X44923D01*
X45506Y98249D01*
Y97083D01*
X44923Y96500D01*
X43756D01*
X43173Y97083D01*
X46672Y99999D02*
Y97666D01*
X47838Y96500D01*
X49005Y97666D01*
Y99999D01*
M02*
