%FSDAX24Y24*%
%MOIN*%
%SFA1B1*%

%IPPOS*%
%ADD32C,0.020000*%
%ADD33C,0.016000*%
%ADD34C,0.010000*%
%ADD36C,0.039400*%
%ADD37R,0.059100X0.059100*%
%ADD38C,0.059100*%
%ADD39C,0.049200*%
%ADD40C,0.078700*%
%ADD41C,0.020000*%
%LNlesson-1*%
%LPD*%
G36*
X044118Y026890D02*
Y019192D01*
X020222*
Y027208*
X025270*
Y027101*
X025260Y027093*
Y026870*
Y026647*
X025270Y026639*
Y026331*
X025260Y026323*
Y026100*
Y025877*
X025270Y025869*
Y025120*
X030381*
X030406Y025090*
X030814*
X030808Y025118*
X030764Y025184*
X030731Y025206*
X030726Y025256*
X032678Y027208*
X037109*
X037138Y027179*
Y025890*
X037147Y025843*
X037173Y025803*
X037463Y025513*
X037503Y025487*
X037550Y025478*
X039040*
X039087Y025487*
X039127Y025513*
X039417Y025803*
X039787Y026173*
X040831Y027218*
X044118*
Y026890*
G37*
%LNlesson-2*%
%LPC*%
G36*
X024890Y022574D02*
X024862Y022568D01*
X024796Y022524*
X024752Y022458*
X024742Y022407*
X024740Y022402*
X024690*
X024688Y022407*
X024678Y022458*
X024634Y022524*
X024568Y022568*
X024540Y022574*
Y022380*
Y022186*
X024568Y022192*
X024634Y022236*
X024678Y022302*
X024688Y022353*
X024690Y022358*
X024740*
X024742Y022353*
X024752Y022302*
X024796Y022236*
X024862Y022192*
X024890Y022186*
Y022380*
Y022574*
G37*
G36*
X035020Y022534D02*
X034992Y022528D01*
X034926Y022484*
X034882Y022418*
X034876Y022390*
X035020*
Y022534*
G37*
G36*
X035120D02*
Y022390D01*
X035264*
X035258Y022418*
X035214Y022484*
X035148Y022528*
X035120Y022534*
G37*
G36*
X032579Y025324D02*
X032513Y025311D01*
X032457Y025273*
X032419Y025217*
X032406Y025151*
X032419Y025085*
X032457Y025028*
Y023380*
X031530Y022453*
X031464Y022440*
X031407Y022403*
X031370Y022346*
X031357Y022280*
X031370Y022214*
X031407Y022157*
X031464Y022120*
X031530Y022107*
X031596Y022120*
X031653Y022157*
X031690Y022214*
X031703Y022280*
X032666Y023243*
X032692Y023282*
X032701Y023329*
Y025028*
X032702*
X032739Y025085*
X032752Y025151*
X032739Y025217*
X032702Y025273*
X032645Y025311*
X032579Y025324*
G37*
G36*
X034630Y022630D02*
X034486D01*
X034492Y022602*
X034536Y022536*
X034602Y022492*
X034630Y022486*
Y022630*
G37*
G36*
X024440Y022574D02*
X024412Y022568D01*
X024346Y022524*
X024302Y022458*
X024296Y022430*
X024440*
Y022574*
G37*
G36*
X024990D02*
Y022430D01*
X025134*
X025128Y022458*
X025084Y022524*
X025018Y022568*
X024990Y022574*
G37*
G36*
X033335Y022334D02*
Y022190D01*
X033479*
X033473Y022218*
X033429Y022284*
X033363Y022328*
X033335Y022334*
G37*
G36*
X038350Y022254D02*
Y022110D01*
X038494*
X038488Y022138*
X038444Y022204*
X038378Y022248*
X038350Y022254*
G37*
G36*
X035020Y022290D02*
X034876D01*
X034882Y022262*
X034926Y022196*
X034992Y022152*
X035020Y022146*
Y022290*
G37*
G36*
X033479Y022090D02*
X033335D01*
Y021946*
X033363Y021952*
X033429Y021996*
X033473Y022062*
X033479Y022090*
G37*
G36*
X038250Y022254D02*
X038222Y022248D01*
X038156Y022204*
X038112Y022138*
X038106Y022110*
X038250*
Y022254*
G37*
G36*
X025134Y022330D02*
X024990D01*
Y022186*
X025018Y022192*
X025084Y022236*
X025128Y022302*
X025134Y022330*
G37*
G36*
X033235Y022334D02*
X033207Y022328D01*
X033141Y022284*
X033097Y022218*
X033091Y022190*
X033235*
Y022334*
G37*
G36*
X035264Y022290D02*
X035120D01*
Y022146*
X035148Y022152*
X035214Y022196*
X035258Y022262*
X035264Y022290*
G37*
G36*
X024440Y022330D02*
X024296D01*
X024302Y022302*
X024346Y022236*
X024412Y022192*
X024440Y022186*
Y022330*
G37*
G36*
X028421Y023234D02*
X028393Y023228D01*
X028327Y023184*
X028283Y023118*
X028277Y023090*
X028421*
Y023234*
G37*
G36*
X028521D02*
Y023090D01*
X028665*
X028660Y023118*
X028615Y023184*
X028549Y023228*
X028521Y023234*
G37*
G36*
X034640Y023130D02*
X034496D01*
X034502Y023102*
X034546Y023036*
X034612Y022992*
X034640Y022986*
Y023130*
G37*
G36*
X034884D02*
X034740D01*
Y022986*
X034768Y022992*
X034834Y023036*
X034878Y023102*
X034884Y023130*
G37*
G36*
X025380Y023470D02*
X025236D01*
X025242Y023442*
X025286Y023376*
X025352Y023332*
X025380Y023326*
Y023470*
G37*
G36*
X025624D02*
X025480D01*
Y023326*
X025508Y023332*
X025574Y023376*
X025618Y023442*
X025624Y023470*
G37*
G36*
X034640Y023374D02*
X034612Y023368D01*
X034546Y023324*
X034502Y023258*
X034496Y023230*
X034640*
Y023374*
G37*
G36*
X034740D02*
Y023230D01*
X034884*
X034878Y023258*
X034834Y023324*
X034768Y023368*
X034740Y023374*
G37*
G36*
X028665Y022990D02*
X028521D01*
Y022846*
X028549Y022852*
X028615Y022896*
X028660Y022962*
X028665Y022990*
G37*
G36*
X037794Y022670D02*
X037650D01*
Y022526*
X037678Y022532*
X037744Y022576*
X037788Y022642*
X037794Y022670*
G37*
G36*
X034630Y022874D02*
X034602Y022868D01*
X034536Y022824*
X034492Y022758*
X034486Y022730*
X034630*
Y022874*
G37*
G36*
X034874Y022630D02*
X034730D01*
Y022486*
X034758Y022492*
X034824Y022536*
X034868Y022602*
X034874Y022630*
G37*
G36*
X037550Y022670D02*
X037406D01*
X037412Y022642*
X037456Y022576*
X037522Y022532*
X037550Y022526*
Y022670*
G37*
G36*
X037650Y022914D02*
Y022770D01*
X037794*
X037788Y022798*
X037744Y022864*
X037678Y022908*
X037650Y022914*
G37*
G36*
X028421Y022990D02*
X028277D01*
X028283Y022962*
X028327Y022896*
X028393Y022852*
X028421Y022846*
Y022990*
G37*
G36*
X034730Y022874D02*
Y022730D01*
X034874*
X034868Y022758*
X034824Y022824*
X034758Y022868*
X034730Y022874*
G37*
G36*
X037550Y022914D02*
X037522Y022908D01*
X037456Y022864*
X037412Y022798*
X037406Y022770*
X037550*
Y022914*
G37*
G36*
X033235Y022090D02*
X033091D01*
X033097Y022062*
X033141Y021996*
X033207Y021952*
X033235Y021946*
Y022090*
G37*
G36*
X021700Y021285D02*
X021355D01*
Y020940*
X021700*
Y021285*
G37*
G36*
X022145D02*
X021800D01*
Y020940*
X022145*
Y021285*
G37*
G36*
X021700Y020840D02*
X021355D01*
Y020495*
X021700*
Y020840*
G37*
G36*
X022145D02*
X021800D01*
Y020495*
X022145*
Y020840*
G37*
G36*
X029110Y021260D02*
X028966D01*
X028972Y021232*
X029016Y021166*
X029082Y021122*
X029110Y021116*
Y021260*
G37*
G36*
X029354D02*
X029210D01*
Y021116*
X029238Y021122*
X029304Y021166*
X029348Y021232*
X029354Y021260*
G37*
G36*
X030090Y021090D02*
X029946D01*
X029952Y021062*
X029996Y020996*
X030062Y020952*
X030090Y020946*
Y021090*
G37*
G36*
X030334D02*
X030190D01*
Y020946*
X030218Y020952*
X030284Y020996*
X030328Y021062*
X030334Y021090*
G37*
G36*
X028740Y020390D02*
X028596D01*
X028602Y020362*
X028646Y020296*
X028712Y020252*
X028740Y020246*
Y020390*
G37*
G36*
X028984D02*
X028840D01*
Y020246*
X028868Y020252*
X028934Y020296*
X028978Y020362*
X028984Y020390*
G37*
G36*
X021750Y023258D02*
X021655Y023246D01*
X021566Y023209*
X021489Y023151*
X021431Y023074*
X021394Y022985*
X021382Y022890*
X021394Y022795*
X021431Y022706*
X021489Y022629*
X021566Y022571*
X021655Y022534*
X021750Y022522*
X021845Y022534*
X021856Y022539*
X025007Y019387*
X025064Y019350*
X025130Y019337*
X039910*
X039976Y019350*
X040033Y019387*
X041743Y021097*
X041780Y021154*
X041793Y021220*
Y022130*
Y022450*
X041780Y022516*
X041743Y022573*
X041497Y022818*
X041441Y022856*
X041374Y022869*
X041308Y022856*
X041252Y022818*
X041214Y022762*
X041201Y022696*
X041214Y022629*
X041252Y022573*
X041447Y022378*
Y022130*
Y021292*
X039838Y019683*
X025202*
X022101Y022784*
X022106Y022795*
X022118Y022890*
X022106Y022985*
X022069Y023074*
X022011Y023151*
X021934Y023209*
X021845Y023246*
X021750Y023258*
G37*
G36*
X043400Y020418D02*
X043279Y020402D01*
X043166Y020355*
X043069Y020281*
X042995Y020184*
X042948Y020071*
X042932Y019950*
X042948Y019829*
X042995Y019716*
X043069Y019619*
X043166Y019545*
X043279Y019498*
X043400Y019482*
X043521Y019498*
X043634Y019545*
X043731Y019619*
X043805Y019716*
X043852Y019829*
X043868Y019950*
X043852Y020071*
X043805Y020184*
X043731Y020281*
X043634Y020355*
X043521Y020402*
X043400Y020418*
G37*
G36*
X028740Y020634D02*
X028712Y020628D01*
X028646Y020584*
X028602Y020518*
X028596Y020490*
X028740*
Y020634*
G37*
G36*
X028840D02*
Y020490D01*
X028984*
X028978Y020518*
X028934Y020584*
X028868Y020628*
X028840Y020634*
G37*
G36*
X035290Y020869D02*
X035220Y020860D01*
X035155Y020833*
X035100Y020790*
X035057Y020735*
X035030Y020670*
X035021Y020600*
X035030Y020530*
X035057Y020465*
X035100Y020410*
X035155Y020367*
X035220Y020340*
X035290Y020331*
X035360Y020340*
X035425Y020367*
X035480Y020410*
X035523Y020465*
X035550Y020530*
X035559Y020600*
X035550Y020670*
X035523Y020735*
X035480Y020790*
X035425Y020833*
X035360Y020860*
X035290Y020869*
G37*
G36*
X036460D02*
X036390Y020860D01*
X036325Y020833*
X036270Y020790*
X036227Y020735*
X036200Y020670*
X036191Y020600*
X036200Y020530*
X036227Y020465*
X036270Y020410*
X036325Y020367*
X036390Y020340*
X036460Y020331*
X036530Y020340*
X036595Y020367*
X036650Y020410*
X036693Y020465*
X036720Y020530*
X036729Y020600*
X036720Y020670*
X036693Y020735*
X036650Y020790*
X036595Y020833*
X036530Y020860*
X036460Y020869*
G37*
G36*
X030090Y021334D02*
X030062Y021328D01*
X029996Y021284*
X029952Y021218*
X029946Y021190*
X030090*
Y021334*
G37*
G36*
X038250Y021810D02*
X038106D01*
X038112Y021782*
X038156Y021716*
X038222Y021672*
X038250Y021666*
Y021810*
G37*
G36*
X038494D02*
X038350D01*
Y021666*
X038378Y021672*
X038444Y021716*
X038488Y021782*
X038494Y021810*
G37*
G36*
X025480Y021634D02*
Y021490D01*
X025624*
X025618Y021518*
X025574Y021584*
X025508Y021628*
X025480Y021634*
G37*
G36*
X021750Y022258D02*
X021655Y022246D01*
X021566Y022209*
X021489Y022151*
X021431Y022074*
X021394Y021985*
X021382Y021890*
X021394Y021795*
X021431Y021706*
X021489Y021629*
X021566Y021571*
X021655Y021534*
X021750Y021522*
X021845Y021534*
X021934Y021571*
X022011Y021629*
X022069Y021706*
X022106Y021795*
X022118Y021890*
X022106Y021985*
X022069Y022074*
X022011Y022151*
X021934Y022209*
X021845Y022246*
X021750Y022258*
G37*
G36*
X023760Y024833D02*
X023694Y024820D01*
X023637Y024783*
X023600Y024726*
X023587Y024660*
X023600Y024594*
X023607Y024583*
Y021932*
X023597Y021880*
X023610Y021814*
X023647Y021757*
X023704Y021720*
X023770Y021707*
X023836Y021720*
X023893Y021757*
X023930Y021814*
X023943Y021880*
X023930Y021946*
X023913Y021972*
Y024583*
X023920Y024594*
X023933Y024660*
X023920Y024726*
X023883Y024783*
X023826Y024820*
X023760Y024833*
G37*
G36*
X038494Y022010D02*
X038106D01*
X038112Y021982*
X038126Y021960*
X038112Y021938*
X038106Y021910*
X038494*
X038488Y021938*
X038474Y021960*
X038488Y021982*
X038494Y022010*
G37*
G36*
X033240Y021834D02*
X033212Y021828D01*
X033146Y021784*
X033102Y021718*
X033096Y021690*
X033240*
Y021834*
G37*
G36*
X033340D02*
Y021690D01*
X033484*
X033478Y021718*
X033434Y021784*
X033368Y021828*
X033340Y021834*
G37*
G36*
X025624Y021390D02*
X025480D01*
Y021246*
X025508Y021252*
X025574Y021296*
X025618Y021362*
X025624Y021390*
G37*
G36*
X029110Y021504D02*
X029082Y021498D01*
X029016Y021454*
X028972Y021388*
X028966Y021360*
X029110*
Y021504*
G37*
G36*
X030190Y021334D02*
Y021190D01*
X030334*
X030328Y021218*
X030284Y021284*
X030218Y021328*
X030190Y021334*
G37*
G36*
X025380Y021390D02*
X025236D01*
X025242Y021362*
X025286Y021296*
X025352Y021252*
X025380Y021246*
Y021390*
G37*
G36*
X033484Y021590D02*
X033340D01*
Y021446*
X033368Y021452*
X033434Y021496*
X033478Y021562*
X033484Y021590*
G37*
G36*
X025380Y021634D02*
X025352Y021628D01*
X025286Y021584*
X025242Y021518*
X025236Y021490*
X025380*
Y021634*
G37*
G36*
X029210Y021504D02*
Y021360D01*
X029354*
X029348Y021388*
X029304Y021454*
X029238Y021498*
X029210Y021504*
G37*
G36*
X033240Y021590D02*
X033096D01*
X033102Y021562*
X033146Y021496*
X033212Y021452*
X033240Y021446*
Y021590*
G37*
G36*
X030460Y023585D02*
X030316D01*
X030322Y023557*
X030366Y023491*
X030432Y023447*
X030460Y023441*
Y023585*
G37*
G36*
X035022Y025534D02*
X034730D01*
Y025242*
X034770Y025247*
X034855Y025282*
X034927Y025337*
X034982Y025410*
X035017Y025494*
X035022Y025534*
G37*
G36*
X032440Y025636D02*
X032296D01*
Y025492*
X032324Y025498*
X032390Y025542*
X032434Y025608*
X032440Y025636*
G37*
G36*
X030814Y024990D02*
X030670D01*
Y024846*
X030698Y024852*
X030764Y024896*
X030808Y024962*
X030814Y024990*
G37*
G36*
X034630Y025534D02*
X034338D01*
X034343Y025494*
X034378Y025410*
X034433Y025337*
X034505Y025282*
X034590Y025247*
X034630Y025242*
Y025534*
G37*
G36*
X024264Y025690D02*
X024120D01*
Y025546*
X024148Y025552*
X024214Y025596*
X024258Y025662*
X024264Y025690*
G37*
G36*
X034630Y025926D02*
X034590Y025921D01*
X034505Y025886*
X034433Y025831*
X034378Y025759*
X034343Y025674*
X034338Y025634*
X034630*
Y025926*
G37*
G36*
X021750Y026258D02*
X021655Y026246D01*
X021566Y026209*
X021489Y026151*
X021431Y026074*
X021394Y025985*
X021382Y025890*
X021394Y025795*
X021431Y025706*
X021489Y025629*
X021566Y025571*
X021655Y025534*
X021750Y025522*
X021845Y025534*
X021934Y025571*
X022011Y025629*
X022069Y025706*
X022106Y025795*
X022118Y025890*
X022106Y025985*
X022069Y026074*
X022011Y026151*
X021934Y026209*
X021845Y026246*
X021750Y026258*
G37*
G36*
X024020Y025690D02*
X023876D01*
X023882Y025662*
X023926Y025596*
X023992Y025552*
X024020Y025546*
Y025690*
G37*
G36*
X030930Y024814D02*
Y024670D01*
X031074*
X031068Y024698*
X031024Y024764*
X030958Y024808*
X030930Y024814*
G37*
G36*
X027110Y024914D02*
X027082Y024908D01*
X027016Y024864*
X026972Y024798*
X026966Y024770*
X027110*
Y024914*
G37*
G36*
X038630Y024774D02*
Y024630D01*
X038774*
X038768Y024658*
X038724Y024724*
X038658Y024768*
X038630Y024774*
G37*
G36*
X030830Y024814D02*
X030802Y024808D01*
X030736Y024764*
X030692Y024698*
X030686Y024670*
X030830*
Y024814*
G37*
G36*
X033860Y024944D02*
Y024800D01*
X034004*
X033998Y024828*
X033954Y024894*
X033888Y024938*
X033860Y024944*
G37*
G36*
X030570Y024990D02*
X030426D01*
X030432Y024962*
X030476Y024896*
X030542Y024852*
X030570Y024846*
Y024990*
G37*
G36*
X027210Y024914D02*
Y024770D01*
X027354*
X027348Y024798*
X027304Y024864*
X027238Y024908*
X027210Y024914*
G37*
G36*
X033760Y024944D02*
X033732Y024938D01*
X033666Y024894*
X033622Y024828*
X033616Y024800*
X033760*
Y024944*
G37*
G36*
X034730Y025926D02*
Y025634D01*
X035022*
X035017Y025674*
X034982Y025759*
X034927Y025831*
X034855Y025886*
X034770Y025921*
X034730Y025926*
G37*
G36*
X024910Y026430D02*
X024766D01*
X024772Y026402*
X024816Y026336*
X024882Y026292*
X024910Y026286*
Y026430*
G37*
G36*
X025154D02*
X025010D01*
Y026286*
X025038Y026292*
X025104Y026336*
X025148Y026402*
X025154Y026430*
G37*
G36*
X034680Y026690D02*
X034597Y026679D01*
X034521Y026648*
X034455Y026597*
X034404Y026531*
X034372Y026454*
X034361Y026371*
X034372Y026289*
X034404Y026212*
X034455Y026146*
X034521Y026095*
X034597Y026064*
X034680Y026053*
X034762Y026064*
X034839Y026095*
X034905Y026146*
X034956Y026212*
X034988Y026289*
X034999Y026371*
X034988Y026454*
X034956Y026531*
X034905Y026597*
X034839Y026648*
X034762Y026679*
X034680Y026690*
G37*
G36*
X025160Y026294D02*
X025132Y026288D01*
X025066Y026244*
X025022Y026178*
X025016Y026150*
X025160*
Y026294*
G37*
G36*
Y026820D02*
X025016D01*
X025022Y026792*
X025066Y026726*
X025132Y026682*
X025160Y026676*
Y026820*
G37*
G36*
Y027064D02*
X025132Y027058D01*
X025066Y027014*
X025022Y026948*
X025016Y026920*
X025160*
Y027064*
G37*
G36*
X024910Y026674D02*
X024882Y026668D01*
X024816Y026624*
X024772Y026558*
X024766Y026530*
X024910*
Y026674*
G37*
G36*
X025010D02*
Y026530D01*
X025154*
X025148Y026558*
X025104Y026624*
X025038Y026668*
X025010Y026674*
G37*
G36*
X024020Y025934D02*
X023992Y025928D01*
X023926Y025884*
X023882Y025818*
X023876Y025790*
X024020*
Y025934*
G37*
G36*
X024120D02*
Y025790D01*
X024264*
X024258Y025818*
X024214Y025884*
X024148Y025928*
X024120Y025934*
G37*
G36*
X031630Y025790D02*
X031486D01*
X031492Y025762*
X031536Y025696*
X031602Y025652*
X031630Y025646*
Y025790*
G37*
G36*
X032296Y025880D02*
Y025736D01*
X032440*
X032434Y025764*
X032390Y025830*
X032324Y025874*
X032296Y025880*
G37*
G36*
X031960Y026163D02*
X031894Y026150D01*
X031837Y026113*
X031800Y026056*
X031798Y026045*
X031758Y026028*
X031730Y026034*
Y025840*
Y025646*
X031758Y025652*
X031788Y025671*
X031838Y025645*
Y023331*
X031043Y022537*
X031017Y022497*
X031008Y022450*
Y022263*
X031007*
X030970Y022206*
X030957Y022140*
X030970Y022074*
X031007Y022017*
X031064Y021980*
X031130Y021967*
X031196Y021980*
X031253Y022017*
X031290Y022074*
X031303Y022140*
X031290Y022206*
X031253Y022263*
X031252*
Y022399*
X032047Y023193*
X032073Y023233*
X032082Y023280*
Y025495*
X032132Y025521*
X032168Y025498*
X032196Y025492*
Y025686*
Y025880*
X032168Y025874*
X032132Y025851*
X032128Y025852*
X032095Y025886*
X032120Y025924*
X032133Y025990*
X032120Y026056*
X032083Y026113*
X032026Y026150*
X031960Y026163*
G37*
G36*
X043400Y026968D02*
X043279Y026952D01*
X043166Y026905*
X043069Y026831*
X042995Y026734*
X042948Y026621*
X042932Y026500*
X042948Y026379*
X042995Y026266*
X043069Y026169*
X043166Y026095*
X043279Y026048*
X043400Y026032*
X043521Y026048*
X043634Y026095*
X043731Y026169*
X043805Y026266*
X043852Y026379*
X043868Y026500*
X043852Y026621*
X043805Y026734*
X043731Y026831*
X043634Y026905*
X043521Y026952*
X043400Y026968*
G37*
G36*
X031630Y026034D02*
X031602Y026028D01*
X031536Y025984*
X031492Y025918*
X031486Y025890*
X031630*
Y026034*
G37*
G36*
X025160Y026050D02*
X025016D01*
X025022Y026022*
X025066Y025956*
X025132Y025912*
X025160Y025906*
Y026050*
G37*
G36*
X038530Y024774D02*
X038502Y024768D01*
X038436Y024724*
X038392Y024658*
X038386Y024630*
X038530*
Y024774*
G37*
G36*
X034710Y023844D02*
X034682Y023838D01*
X034616Y023794*
X034572Y023728*
X034566Y023700*
X034710*
Y023844*
G37*
G36*
X034810D02*
Y023700D01*
X034954*
X034948Y023728*
X034904Y023794*
X034838Y023838*
X034810Y023844*
G37*
G36*
X030460Y023829D02*
X030432Y023823D01*
X030366Y023779*
X030322Y023713*
X030316Y023685*
X030460*
Y023829*
G37*
G36*
X030560D02*
Y023685D01*
X030704*
X030698Y023713*
X030654Y023779*
X030588Y023823*
X030560Y023829*
G37*
G36*
X041480Y024364D02*
Y024170D01*
Y023976*
X041508Y023982*
X041533Y023998*
X041576Y024024*
X041642Y023979*
X041670Y023974*
Y024168*
Y024362*
X041642Y024356*
X041617Y024340*
X041574Y024314*
X041508Y024358*
X041480Y024364*
G37*
G36*
X042224Y024119D02*
X042080D01*
Y023975*
X042108Y023980*
X042174Y024025*
X042218Y024091*
X042224Y024119*
G37*
G36*
X033530Y024054D02*
X033502Y024048D01*
X033436Y024004*
X033392Y023938*
X033386Y023910*
X033530*
Y024054*
G37*
G36*
X033630D02*
Y023910D01*
X033774*
X033768Y023938*
X033724Y024004*
X033658Y024048*
X033630Y024054*
G37*
G36*
X034954Y023600D02*
X034810D01*
Y023456*
X034838Y023462*
X034904Y023506*
X034948Y023572*
X034954Y023600*
G37*
G36*
X021750Y024258D02*
X021655Y024246D01*
X021566Y024209*
X021489Y024151*
X021431Y024074*
X021394Y023985*
X021382Y023890*
X021394Y023795*
X021431Y023706*
X021489Y023629*
X021566Y023571*
X021655Y023534*
X021750Y023522*
X021845Y023534*
X021934Y023571*
X022011Y023629*
X022069Y023706*
X022106Y023795*
X022118Y023890*
X022106Y023985*
X022069Y024074*
X022011Y024151*
X021934Y024209*
X021845Y024246*
X021750Y024258*
G37*
G36*
X030704Y023585D02*
X030560D01*
Y023441*
X030588Y023447*
X030654Y023491*
X030698Y023557*
X030704Y023585*
G37*
G36*
X034710Y023600D02*
X034566D01*
X034572Y023572*
X034616Y023506*
X034682Y023462*
X034710Y023456*
Y023600*
G37*
G36*
X033530Y023810D02*
X033386D01*
X033392Y023782*
X033436Y023716*
X033502Y023672*
X033530Y023666*
Y023810*
G37*
G36*
X033774D02*
X033630D01*
Y023666*
X033658Y023672*
X033724Y023716*
X033768Y023782*
X033774Y023810*
G37*
G36*
X025380Y023714D02*
X025352Y023708D01*
X025286Y023664*
X025242Y023598*
X025236Y023570*
X025380*
Y023714*
G37*
G36*
X025480D02*
Y023570D01*
X025624*
X025618Y023598*
X025574Y023664*
X025508Y023708*
X025480Y023714*
G37*
G36*
X041380Y024120D02*
X041236D01*
X041242Y024092*
X041286Y024026*
X041352Y023982*
X041380Y023976*
Y024120*
G37*
G36*
X031074Y024570D02*
X030930D01*
Y024426*
X030958Y024432*
X031024Y024476*
X031068Y024542*
X031074Y024570*
G37*
G36*
X021750Y025258D02*
X021655Y025246D01*
X021566Y025209*
X021489Y025151*
X021431Y025074*
X021394Y024985*
X021382Y024890*
X021394Y024795*
X021431Y024706*
X021489Y024629*
X021566Y024571*
X021655Y024534*
X021750Y024522*
X021845Y024534*
X021934Y024571*
X022011Y024629*
X022069Y024706*
X022106Y024795*
X022118Y024890*
X022106Y024985*
X022069Y025074*
X022011Y025151*
X021934Y025209*
X021845Y025246*
X021750Y025258*
G37*
G36*
X038774Y024530D02*
X038630D01*
Y024386*
X038658Y024392*
X038724Y024436*
X038768Y024502*
X038774Y024530*
G37*
G36*
X030830Y024570D02*
X030686D01*
X030692Y024542*
X030736Y024476*
X030802Y024432*
X030830Y024426*
Y024570*
G37*
G36*
X033760Y024700D02*
X033616D01*
X033622Y024672*
X033666Y024606*
X033732Y024562*
X033760Y024556*
Y024700*
G37*
G36*
X034004D02*
X033860D01*
Y024556*
X033888Y024562*
X033954Y024606*
X033998Y024672*
X034004Y024700*
G37*
G36*
X027110Y024670D02*
X026966D01*
X026972Y024642*
X027016Y024576*
X027082Y024532*
X027110Y024526*
Y024670*
G37*
G36*
X027354D02*
X027210D01*
Y024526*
X027238Y024532*
X027304Y024576*
X027348Y024642*
X027354Y024670*
G37*
G36*
X042080Y024363D02*
Y024219D01*
X042224*
X042218Y024247*
X042174Y024313*
X042108Y024357*
X042080Y024363*
G37*
G36*
X041380Y024364D02*
X041352Y024358D01*
X041286Y024314*
X041242Y024248*
X041236Y024220*
X041380*
Y024364*
G37*
G36*
X036500Y024150D02*
X036356D01*
X036362Y024122*
X036406Y024056*
X036472Y024012*
X036500Y024006*
Y024150*
G37*
G36*
X036744D02*
X036600D01*
Y024006*
X036628Y024012*
X036694Y024056*
X036738Y024122*
X036744Y024150*
G37*
G36*
X041980Y024363D02*
X041952Y024357D01*
X041912Y024330*
X041864Y024312*
X041798Y024356*
X041770Y024362*
Y024168*
Y023974*
X041798Y023979*
X041838Y024006*
X041886Y024025*
X041952Y023980*
X041980Y023975*
Y024169*
Y024363*
G37*
G36*
X038530Y024530D02*
X038386D01*
X038392Y024502*
X038436Y024436*
X038502Y024392*
X038530Y024386*
Y024530*
G37*
G36*
X036500Y024394D02*
X036472Y024388D01*
X036406Y024344*
X036362Y024278*
X036356Y024250*
X036500*
Y024394*
G37*
G36*
X036600D02*
Y024250D01*
X036744*
X036738Y024278*
X036694Y024344*
X036628Y024388*
X036600Y024394*
G37*
%LNlesson-3*%
%LPD*%
G54D32*
X025130Y019510D02*
X039910D01*
X021750Y022890D02*
X025130Y019510D01*
X041374Y022696D02*
X041620Y022450D01*
Y022130D02*
Y022450D01*
Y021220D02*
Y022130D01*
X039910Y019510D02*
X041620Y021220D01*
G54D33*
X023760Y021890D02*
Y024660D01*
G54D34*
X024931Y026479D02*
X024970Y026440D01*
X036000Y023900D02*
X037190D01*
X030610Y025070D02*
X031040Y025500D01*
X031960Y023280D02*
Y025990D01*
X031130Y022450D02*
X031960Y023280D01*
X031130Y022140D02*
Y022450D01*
X032579Y023329D02*
Y025151D01*
X031530Y022280D02*
X032579Y023329D01*
X024932Y026480D02*
X024960D01*
X024931Y026479D02*
X024932Y026480D01*
X024900Y022420D02*
X024940Y022380D01*
X026610*
X028780Y020210D02*
X028790Y020220D01*
X026610Y022380D02*
X028780Y020210D01*
X038610Y022060D02*
X038730Y022180D01*
X038300Y022060D02*
X038610D01*
X028980Y020210D02*
X029000Y020190D01*
X038730Y022180D02*
X038750Y022160D01*
X038770Y022180*
X038950*
X039000Y022230*
X038770Y022180D02*
X038840Y022250D01*
X039000Y022230D02*
X039010Y022220D01*
X038720Y022370D02*
X038840Y022250D01*
X028130Y023530D02*
X028310Y023350D01*
X029140Y024180*
X023760Y021890D02*
X023770Y021880D01*
X029140Y024180D02*
Y024830D01*
X040010Y021980D02*
X041770Y023740D01*
X041810*
X039250Y021980D02*
X040010D01*
G54D36*
X036460Y020600D03*
X035290D03*
G54D37*
X021750Y020890D03*
G54D38*
X021750Y021890D03*
Y022890D03*
Y023890D03*
Y024890D03*
Y025890D03*
G54D39*
X034680Y026371D03*
Y025584D03*
G54D40*
X043400Y019950D03*
Y026500D03*
G54D41*
X036550Y024200D03*
X034680Y022680D03*
X035070Y022340D03*
X034760Y023650D03*
X034690Y023180D03*
X037600Y022720D03*
X038580Y024580D03*
X031530Y022280D03*
X031130Y022140D03*
X041720Y024168D03*
X041430Y024170D03*
X031960Y025990D03*
X031680Y025840D03*
X028471Y023040D03*
X025430Y023520D03*
X024070Y025740D03*
X024960Y026480D03*
X025210Y026100D03*
Y026870D03*
X023760Y024660D03*
X024940Y022380D03*
X025430Y021440D03*
X028790Y020440D03*
X029160Y021310D03*
X030140Y021140D03*
X033290Y021640D03*
X033285Y022140D03*
X032579Y025151D03*
X030510Y023635D03*
X030620Y025040D03*
X030880Y024620D03*
X033810Y024750D03*
X033580Y023860D03*
X041620Y022450D03*
Y022130D03*
X038300Y022060D03*
Y021860D03*
X042030Y024169D03*
X041374Y022696D03*
X024490Y022380D03*
X032246Y025686D03*
X023770Y021880D03*
X027160Y024720D03*
M02*