G04*
G04 Format:               Gerber RS-274X*
G04 Export Settings:      OSH Park*
G04 Layer:                TopSilkscreen*
G04 This File Name:       Analog_to_toslink3.gto*
G04 Source File Name:     Analog_to_toslink3.rrb*
G04 Unique ID:            d9d0b992-0cf9-456e-b653-8f10cddd96cd*
G04 Generated Date:       Thursday, 15 September 2016 10:41:01*
G04*
G04 Created Using:        Robot Room Copper Connection v3.0.5875*
G04 Software Contact:     http://www.robotroom.com/CopperConnection/Support.aspx*
G04 License Number:       1880*
G04*
G04 Zero Suppression:     Leading*
G04 Number Precision:     2.4*
G04*
%FSLAX24Y24*%
%MOIN*%
%LNTopSilkscreen*%
%ADD10C,.006*%
%ADD11C,.007*%
%ADD12C,.0307*%
%ADD13R,.007X.007*%
%ADD14R,.0138X.04*%
%ADD15R,.0354X.0354*%
%ADD16R,.0354X.0394*%
%ADD17R,.04X.0138*%
%ADD18R,.0413X.0236*%
%ADD19R,.064X.064*%
%ADD20R,.0866X.0394*%
G36*
G75*
G01X1705Y3218D02*
G02I125J0D01*
G37*
G36*
G01X4413Y4725D02*
G02I0J125D01*
G37*
D10*
G01X3898Y340D02*
X5177D01*
Y1363D01*
X3898D01*
Y340D01*
X2216Y6025D02*
Y4332D01*
Y6025D02*
X916D01*
X523Y5671D02*
Y4686D01*
X877Y4332D02*
X2216D01*
X877D02*
X523Y4686D01*
X916Y6025D02*
X523Y5671D01*
X2147Y3593D02*
X348Y3597D01*
Y1970D01*
X2147Y1966D01*
Y3593D01*
X5095Y6521D02*
Y5369D01*
X5863D01*
Y6521D01*
X5095D01*
X4038Y5168D02*
X4034Y1566D01*
X5662D01*
X5665Y5168D01*
X4038D01*
X1353Y4734D02*
Y4543D01*
Y4638D02*
X1225D01*
Y4734D01*
X1458D02*
X1585D01*
X1521Y4543D01*
X1817Y4638D02*
Y4606D01*
G74*
G02X1753Y4543I64J0D01*
X1690Y4606I0J64D01*
G01Y4638D01*
Y4463D01*
X1817Y4638D02*
Y4527D01*
X5630Y6939D02*
X5593Y6961D01*
X5557D01*
X5521Y6939D01*
X5502Y6897D01*
Y6833D01*
X5521Y6790D01*
X5557Y6769D01*
X5593D01*
X5630Y6790D01*
Y6854D01*
X5575D01*
X5743Y6769D02*
Y6961D01*
X5854Y6769D01*
Y6961D01*
X5975Y6769D02*
Y6961D01*
X6030D01*
X6067Y6939D01*
X6086Y6897D01*
Y6833D01*
X6067Y6790D01*
X6030Y6769D01*
X5975D01*
X4355Y6939D02*
Y6769D01*
X4291Y6854D02*
X4419D01*
X4624Y6961D02*
X4550D01*
X4532Y6875D01*
X4569Y6897D01*
X4587D01*
X4624Y6875D01*
X4643Y6833D01*
X4624Y6790D01*
X4587Y6769D01*
X4569D01*
X4532Y6790D01*
X2997Y6961D02*
Y6769D01*
X2933Y6961D02*
X3061D01*
X3174D02*
X3285Y6769D01*
Y6961D02*
X3174Y6769D01*
X3406D02*
Y6961D01*
X3461D01*
X3498Y6939D01*
X3517Y6897D01*
Y6833D01*
X3498Y6790D01*
X3461Y6769D01*
X3406D01*
X245Y1255D02*
Y1064D01*
X355D01*
X477D02*
Y1255D01*
X588D01*
X477Y1170D02*
X551D01*
X764Y1255D02*
Y1064D01*
X701Y1255D02*
X828D01*
X2646Y1054D02*
Y1245D01*
X2720D01*
X2757Y1223D01*
Y1160D01*
X2720Y1138D01*
X2646D01*
X2702D02*
X2757Y1054D01*
X2878Y1245D02*
Y1054D01*
X2989Y1245D02*
Y1054D01*
X2878Y1160D02*
X2989D01*
X3166Y1245D02*
Y1054D01*
X3102Y1245D02*
X3230D01*
X1791Y6939D02*
X1755Y6961D01*
X1718D01*
X1682Y6939D01*
X1664Y6897D01*
Y6833D01*
X1682Y6790D01*
X1718Y6769D01*
X1755D01*
X1791Y6790D01*
Y6854D01*
X1736D01*
X1904Y6769D02*
Y6961D01*
X2015Y6769D01*
Y6961D01*
X2136Y6769D02*
Y6961D01*
X2192D01*
X2229Y6939D01*
X2247Y6897D01*
Y6833D01*
X2229Y6790D01*
X2192Y6769D01*
X2136D01*
X812Y7006D02*
Y6836D01*
X748Y6920D02*
X875D01*
X1081Y7028D02*
X1007D01*
X988Y6942D01*
X1025Y6964D01*
X1044D01*
X1081Y6942D01*
X1099Y6900D01*
X1081Y6857D01*
X1044Y6836D01*
X1025D01*
X988Y6857D01*
D11*
X1575Y792D02*
X1850D01*
X2126D02*
X2402D01*
X3465D02*
X3740D01*
X5748Y1265D02*
Y989D01*
Y674D02*
Y399D01*
X2835Y4519D02*
Y4243D01*
Y3928D02*
Y3652D01*
Y3377D02*
Y3101D01*
Y2786D02*
Y2511D01*
Y2235D02*
Y1959D01*
Y1684D02*
Y1408D01*
X1698Y6497D02*
Y6222D01*
X2697Y6147D02*
X2382D01*
X2972D02*
X3287D01*
X3543D02*
X3819D01*
X4331Y5871D02*
X4626D01*
X1024Y792D02*
X1299D01*
X838Y5662D02*
Y5513D01*
X913Y5588D02*
X764D01*
%LPC*%
D12*
X472Y2688D03*
X728Y2097D03*
X1004Y2412D03*
X728Y3436D03*
X4232Y3749D03*
X5433Y2481D03*
X3248Y7466D03*
X4950Y1225D03*
X4154Y2584D03*
X4370Y2225D03*
X4154Y1875D03*
X1969Y7466D03*
X5807D03*
X2539Y6442D03*
X3130D03*
X3681Y5851D03*
X4488Y6147D03*
X1398Y6363D03*
X2539Y4395D03*
Y3785D03*
X4488Y3036D03*
X2264Y497D03*
X3602Y477D03*
X5453Y536D03*
X4961Y497D03*
X4469Y5064D03*
X630Y4611D03*
X1201Y3135D03*
X1890Y2879D03*
X6043Y5458D03*
Y6521D03*
X4705Y4296D03*
X5394Y4690D03*
Y4159D03*
X5374Y3292D03*
X5571Y2146D03*
X1929Y4488D03*
X1988Y5748D03*
D14*
X2008Y1607D03*
X1752D03*
X1496D03*
X1240D03*
X984D03*
X728D03*
X472D03*
X2008Y3969D03*
X1752D03*
X1496D03*
X1240D03*
X984D03*
X728D03*
X472D03*
D15*
X1161Y497D03*
Y1088D03*
X1713Y497D03*
Y1088D03*
X2264Y497D03*
Y1088D03*
X2539Y1603D03*
X3130D03*
X2539Y2154D03*
X3130D03*
X2539Y2705D03*
X3130D03*
X2539Y3239D03*
X3130D03*
X2539Y3790D03*
X3130D03*
X2539Y4381D03*
X3130D03*
X2539Y5851D03*
Y6442D03*
X3130Y5851D03*
Y6442D03*
X3681Y5851D03*
Y6442D03*
X1403Y6360D03*
X1993D03*
X4485Y5563D03*
Y6154D03*
X5453Y1127D03*
X6043D03*
X5453Y536D03*
X6043D03*
X3602Y497D03*
Y1088D03*
X442Y6173D03*
Y6764D03*
D16*
X4124Y478D03*
X4950D03*
X4124Y1226D03*
X4950D03*
D17*
X6024Y5029D03*
Y4773D03*
Y4517D03*
Y4261D03*
Y4005D03*
Y3749D03*
Y3493D03*
X3662Y5029D03*
Y4773D03*
Y4517D03*
Y4261D03*
Y4005D03*
Y3749D03*
Y3493D03*
X6024Y3248D03*
Y2992D03*
Y2737D03*
Y2481D03*
Y2225D03*
Y1969D03*
Y1713D03*
X3662Y3248D03*
Y2992D03*
Y2737D03*
Y2481D03*
Y2225D03*
Y1969D03*
Y1713D03*
D18*
X5015Y6312D03*
Y5564D03*
X5948Y5938D03*
D19*
X3238Y7472D03*
X4518D03*
X5797D03*
X2933Y615D03*
X492D03*
X679Y7472D03*
X1959D03*
D20*
X679Y5184D03*
X2023D03*
%LPD*%
D13*
X0Y7953D02*
X6457D01*
Y79D01*
X0D01*
Y7953D01*
M02*
