%FSLAX33Y33*%
%MOMM*%
%AMRect-W1650000-H1650000-RO1.000*
21,1,1.65,1.65,0.,0.,180*%
%ADD10C,0.254*%
%ADD11C,0.1524*%
%ADD12C,1.905*%
%ADD13C,1.0668*%
%ADD14C,1.65*%
%ADD15Rect-W1650000-H1650000-RO1.000*%
D10*
%LNbottom copper_traces*%
G01*
X0Y-9779D02*
X0Y-2667D01*
X6858Y-14478D02*
X2032Y-19304D01*
D11*
X-0635Y18542D02*
X0Y17907D01*
X4445Y16383D02*
X6858Y16383D01*
X4826Y13335D02*
X4826Y5334D01*
X0Y10033D02*
X0Y17907D01*
X-6858Y8890D02*
X-1143Y8890D01*
X0Y10033*
X-5080Y13843D02*
X-6985Y11938D01*
D10*
X-1270Y-17145D02*
X3937Y-11938D01*
D11*
X-1270Y-0762D02*
X4826Y5334D01*
X-2032Y13843D02*
X-5080Y13843D01*
D10*
X-1270Y-11049D02*
X0Y-9779D01*
D11*
X1905Y16256D02*
X4826Y13335D01*
X-6731Y16510D02*
X-1905Y16510D01*
X1905Y18923D02*
X4445Y16383D01*
D10*
X6858Y-11938D02*
X3937Y-11938D01*
X-1270Y-18288D02*
X-1270Y-11049D01*
D12*
X7620Y1270D03*
D13*
X-1651Y-1016D03*
D12*
X-7620Y-19050D03*
X7620Y6350D03*
X-1270Y-19177D03*
X-7620Y1270D03*
X7620Y11430D03*
X-7620Y-8890D03*
X7620Y3810D03*
X-7620Y13970D03*
X-7620Y16510D03*
X-7620Y3810D03*
X-7620Y19050D03*
X1270Y-19177D03*
X-7620Y-11430D03*
X7620Y19050D03*
X7620Y-8890D03*
X7620Y-6350D03*
X7620Y13970D03*
X-7620Y-13970D03*
X7620Y-19050D03*
X-7620Y-3810D03*
X-7620Y-1270D03*
X7620Y-1270D03*
X-7620Y8890D03*
X7620Y8890D03*
X7620Y-16510D03*
X-7620Y11430D03*
X7620Y-13970D03*
X-7620Y-16510D03*
X7620Y-11430D03*
X7620Y16510D03*
D13*
X0Y-2032D03*
D12*
X-7620Y-6350D03*
X-7620Y6350D03*
X7620Y-3810D03*
%LNbottom copper component 477f20fb70fea3aa*%
D14*
X1270Y18923D03*
X-1270Y13843D03*
X-1270Y18923D03*
X-1270Y16383D03*
X1270Y16383D03*
D15*
X1270Y13843D03*
M02*